{"glyphs":{"0":{"ha":789,"x_min":71,"x_max":718,"o":"m 718 576 l 718 415 q 695 217 718 299 q 630 85 673 136 q 528 10 587 34 q 395 -14 469 -14 q 287 1 337 -14 q 197 48 237 16 q 129 131 157 80 q 86 252 101 181 q 71 415 71 322 l 71 576 q 94 773 71 693 q 159 904 117 854 q 261 978 202 955 q 394 1001 321 1001 q 503 986 453 1001 q 592 941 553 972 q 660 860 632 909 q 703 740 688 810 q 718 576 718 669 m 555 392 l 555 601 q 548 705 555 660 q 528 782 541 750 q 495 833 515 813 q 450 862 475 853 q 394 871 425 871 q 326 857 356 871 q 276 810 296 842 q 245 727 256 779 q 235 601 235 675 l 235 392 q 241 287 235 332 q 262 209 248 241 q 295 156 275 177 q 339 126 314 136 q 395 117 365 117 q 464 132 434 117 q 514 179 494 146 q 545 265 534 212 q 555 392 555 318 z "},"1":{"ha":789,"x_min":115,"x_max":521,"o":"m 521 991 l 521 0 l 357 0 l 357 797 l 115 715 l 115 850 l 501 991 l 521 991 z "},"2":{"ha":789,"x_min":56,"x_max":736,"o":"m 736 130 l 736 0 l 75 0 l 75 112 l 396 463 q 479 566 449 522 q 523 644 510 609 q 535 712 535 679 q 518 794 535 759 q 467 851 500 830 q 387 871 434 871 q 294 848 332 871 q 238 782 257 824 q 219 687 219 741 l 56 687 q 95 845 56 773 q 209 959 134 916 q 389 1001 283 1001 q 557 968 488 1001 q 662 873 626 935 q 699 729 699 812 q 684 637 699 683 q 641 547 669 592 q 576 457 614 502 q 494 366 539 412 l 281 130 l 736 130 z "},"3":{"ha":789,"x_min":53,"x_max":712,"o":"m 267 568 l 364 568 q 459 587 421 568 q 515 642 496 607 q 533 721 533 676 q 516 801 533 768 q 466 853 500 835 q 381 871 433 871 q 303 854 338 871 q 248 805 268 837 q 227 730 227 774 l 63 730 q 104 870 63 809 q 217 966 146 931 q 378 1001 289 1001 q 546 969 474 1001 q 657 876 617 938 q 697 721 697 813 q 677 635 697 679 q 619 556 658 592 q 523 499 581 521 q 389 477 465 477 l 267 477 l 267 568 m 267 440 l 267 530 l 389 530 q 537 509 476 530 q 637 453 599 489 q 694 372 676 418 q 712 276 712 327 q 687 153 712 207 q 617 62 663 99 q 511 5 572 24 q 379 -14 450 -14 q 257 4 315 -14 q 153 57 199 22 q 80 144 106 92 q 53 266 53 197 l 216 266 q 237 188 216 222 q 295 136 258 155 q 382 117 333 117 q 471 135 433 117 q 528 189 508 153 q 548 276 548 225 q 526 370 548 334 q 462 423 503 406 q 364 440 420 440 l 267 440 z "},"4":{"ha":789,"x_min":37,"x_max":755,"o":"m 755 352 l 755 222 l 43 222 l 37 320 l 463 987 l 594 987 l 452 745 l 208 352 l 755 352 m 631 987 l 631 0 l 468 0 l 468 987 l 631 987 z "},"5":{"ha":789,"x_min":86,"x_max":733,"o":"m 246 459 l 116 491 l 170 987 l 702 987 l 702 849 l 305 849 l 278 607 q 342 634 301 621 q 435 647 382 647 q 560 624 505 647 q 654 558 615 602 q 713 454 692 515 q 733 316 733 393 q 713 188 733 248 q 653 83 693 128 q 552 12 613 37 q 409 -14 492 -14 q 291 4 347 -14 q 189 58 234 22 q 117 146 144 94 q 86 267 90 199 l 246 267 q 273 185 252 219 q 328 134 294 152 q 408 117 363 117 q 479 131 450 117 q 529 173 509 146 q 559 238 549 201 q 569 321 569 275 q 558 400 569 364 q 525 463 547 436 q 469 504 503 489 q 393 518 436 518 q 303 501 334 518 q 246 459 273 484 z "},"6":{"ha":789,"x_min":78,"x_max":733,"o":"m 568 994 l 589 994 l 589 860 l 577 860 q 426 833 490 860 q 322 758 363 806 q 261 647 281 711 q 241 513 241 584 l 241 357 q 254 253 241 298 q 291 178 267 208 q 345 132 314 148 q 410 117 375 117 q 477 132 447 117 q 528 174 507 147 q 559 239 549 201 q 570 320 570 276 q 560 399 570 362 q 529 464 549 436 q 478 508 509 492 q 409 524 448 524 q 320 501 360 524 q 257 441 281 478 q 231 363 233 404 l 168 383 q 196 496 174 446 q 256 582 219 547 q 343 636 294 617 q 451 654 392 654 q 576 627 523 654 q 664 554 629 600 q 716 448 699 507 q 733 324 733 389 q 711 192 733 253 q 648 84 690 130 q 547 12 606 38 q 412 -14 488 -14 q 271 17 333 -14 q 166 101 209 47 q 100 224 123 155 q 78 372 78 294 l 78 440 q 106 653 78 553 q 194 829 135 753 q 347 950 254 906 q 568 994 439 994 z "},"7":{"ha":789,"x_min":46,"x_max":730,"o":"m 730 987 l 730 898 l 336 0 l 163 0 l 557 857 l 46 857 l 46 987 l 730 987 z "},"8":{"ha":789,"x_min":70,"x_max":720,"o":"m 720 269 q 677 114 720 177 q 561 19 635 51 q 395 -14 488 -14 q 229 19 303 -14 q 113 114 155 51 q 70 269 70 177 q 94 380 70 330 q 161 466 117 430 q 264 522 205 503 q 394 542 323 542 q 562 507 488 542 q 678 412 635 473 q 720 269 720 351 m 556 277 q 536 364 556 327 q 479 422 515 401 q 394 442 442 442 q 309 422 345 442 q 253 364 273 401 q 233 277 233 327 q 253 191 233 227 q 309 136 273 155 q 395 117 346 117 q 481 136 445 117 q 536 191 517 155 q 556 277 556 227 m 698 728 q 659 596 698 654 q 551 506 620 538 q 395 473 483 473 q 238 506 307 473 q 131 596 170 538 q 92 728 92 654 q 131 877 92 816 q 238 969 170 937 q 395 1001 307 1001 q 551 969 483 1001 q 659 877 620 937 q 698 728 698 816 m 534 722 q 517 800 534 766 q 469 852 500 833 q 395 871 437 871 q 321 853 352 871 q 273 802 290 835 q 256 722 256 768 q 273 643 256 677 q 321 591 290 610 q 395 572 353 572 q 469 591 438 572 q 517 643 500 610 q 534 722 534 677 z "},"9":{"ha":789,"x_min":63,"x_max":709,"o":"m 206 129 l 220 129 q 376 154 313 129 q 476 222 439 178 q 530 326 513 267 q 546 456 546 386 l 546 626 q 533 732 546 686 q 498 809 521 778 q 446 855 475 840 q 382 871 416 871 q 316 854 345 871 q 266 809 286 838 q 236 742 246 780 q 225 660 225 703 q 235 582 225 619 q 264 515 245 544 q 314 469 284 486 q 384 452 344 452 q 454 466 422 452 q 509 506 486 481 q 547 562 533 531 q 562 626 560 593 l 624 607 q 603 506 624 555 q 544 415 581 456 q 456 349 506 374 q 348 325 406 325 q 223 352 277 325 q 134 425 170 378 q 81 530 98 471 q 63 656 63 590 q 85 789 63 727 q 148 900 106 852 q 249 974 189 947 q 383 1001 308 1001 q 524 970 463 1001 q 625 884 584 939 q 688 756 667 829 q 709 600 709 684 l 709 543 q 693 374 709 455 q 643 224 677 293 q 551 103 608 155 q 413 23 494 52 q 221 -6 331 -6 l 206 -6 l 206 129 z "},"\u0000":{"ha":0,"x_min":0,"x_max":0,"o":""},"\u0002":{"ha":0,"x_min":0,"x_max":0,"o":""},"\r":{"ha":345,"x_min":0,"x_max":0,"o":""}," ":{"ha":345,"x_min":0,"x_max":0,"o":""},"!":{"ha":368,"x_min":95,"x_max":282,"o":"m 273 987 l 256 291 l 117 291 l 100 987 l 273 987 m 95 77 q 120 140 95 115 q 189 165 144 165 q 257 140 232 165 q 282 77 282 115 q 257 16 282 41 q 189 -9 232 -9 q 120 16 144 -9 q 95 77 95 41 z "},"\"":{"ha":444,"x_min":65,"x_max":387,"o":"m 183 1042 l 183 949 l 159 689 l 65 689 l 65 941 l 65 1042 l 183 1042 m 387 1042 l 387 949 l 363 689 l 269 689 l 269 947 l 269 1042 l 387 1042 z "},"#":{"ha":838,"x_min":58,"x_max":815,"o":"m 165 0 l 347 987 l 458 987 l 277 0 l 165 0 m 430 0 l 612 987 l 723 987 l 541 0 l 430 0 m 815 600 l 110 600 l 110 705 l 815 705 l 815 600 m 764 278 l 58 278 l 58 383 l 764 383 l 764 278 z "},"$":{"ha":789,"x_min":68,"x_max":721,"o":"m 467 1145 l 467 943 l 363 943 l 363 1145 l 467 1145 m 454 38 l 454 -144 l 351 -144 l 351 38 l 454 38 m 557 257 q 541 326 557 296 q 489 379 525 355 q 393 425 453 404 q 241 493 306 455 q 141 588 176 532 q 105 730 105 645 q 143 874 105 813 q 250 968 182 935 q 410 1002 319 1002 q 537 981 481 1002 q 634 919 594 960 q 695 819 674 878 q 717 683 717 760 l 554 683 q 544 761 554 726 q 515 819 534 795 q 470 856 496 843 q 409 869 443 869 q 330 851 361 869 q 284 802 298 833 q 269 730 269 770 q 284 663 269 692 q 335 610 299 633 q 435 563 372 587 q 587 493 523 532 q 686 399 651 455 q 721 258 721 343 q 681 110 721 171 q 568 17 640 49 q 400 -14 496 -14 q 280 2 340 -14 q 173 54 221 18 q 96 152 125 91 q 68 300 68 212 l 232 300 q 246 212 232 248 q 285 157 260 177 q 339 127 309 136 q 400 119 370 119 q 486 136 451 119 q 539 185 521 153 q 557 257 557 216 z "},"%":{"ha":1023,"x_min":68,"x_max":962,"o":"m 68 745 l 68 798 q 92 900 68 854 q 163 974 117 946 q 276 1002 210 1002 q 390 974 344 1002 q 461 900 437 946 q 486 798 486 854 l 486 745 q 461 644 486 690 q 391 570 437 598 q 277 543 345 543 q 164 570 211 543 q 92 644 117 598 q 68 745 68 690 m 181 798 l 181 745 q 192 694 181 718 q 224 654 202 669 q 277 640 245 640 q 331 654 310 640 q 361 694 351 669 q 372 745 372 718 l 372 798 q 361 850 372 825 q 330 890 351 875 q 276 905 309 905 q 223 890 245 905 q 192 850 202 875 q 181 798 181 825 m 544 189 l 544 242 q 569 344 544 298 q 640 418 593 390 q 753 446 687 446 q 867 418 821 446 q 938 344 913 390 q 962 242 962 298 l 962 189 q 938 87 962 134 q 867 14 913 41 q 754 -14 821 -14 q 641 14 688 -14 q 569 87 593 41 q 544 189 544 134 m 658 242 l 658 189 q 669 138 658 162 q 702 98 680 113 q 754 83 724 83 q 810 98 789 83 q 840 137 831 113 q 849 189 849 161 l 849 242 q 839 294 849 270 q 807 334 828 319 q 753 349 785 349 q 700 334 721 349 q 668 294 679 319 q 658 242 658 270 m 793 846 l 311 75 l 228 123 l 710 895 l 793 846 z "},"&":{"ha":890,"x_min":58,"x_max":879,"o":"m 253 537 l 423 652 q 484 708 466 680 q 503 777 503 735 q 475 842 503 812 q 399 871 448 871 q 340 856 364 871 q 305 813 317 840 q 293 755 293 787 q 309 693 293 725 q 351 626 324 661 q 412 551 378 591 l 879 0 l 690 0 l 309 448 q 221 558 259 508 q 162 655 183 608 q 141 752 141 702 q 173 885 141 829 q 263 971 205 941 q 399 1001 321 1001 q 529 971 475 1001 q 613 891 584 941 q 643 783 643 842 q 626 697 643 736 q 579 627 609 659 q 510 566 549 595 l 303 416 q 250 360 267 387 q 227 311 233 333 q 222 271 222 288 q 240 193 222 228 q 295 137 259 157 q 384 116 332 116 q 493 141 440 116 q 588 214 546 167 q 655 326 630 260 q 680 470 680 391 l 821 470 q 807 334 821 398 q 763 214 793 269 q 684 116 732 159 q 673 104 679 111 q 662 92 667 97 q 531 13 604 39 q 378 -14 459 -14 q 208 22 279 -14 q 97 121 136 58 q 58 266 58 184 q 83 372 58 326 q 152 457 108 418 q 253 537 195 497 z "},"'":{"ha":233,"x_min":56,"x_max":180,"o":"m 180 1042 l 180 954 l 162 693 l 56 693 l 56 943 l 56 1042 l 180 1042 z "},"(":{"ha":481,"x_min":87,"x_max":454,"o":"m 87 390 l 87 401 q 119 665 87 547 q 201 872 151 783 q 310 1020 252 962 q 422 1105 368 1079 l 454 1011 q 376 930 415 982 q 305 804 337 879 q 253 629 273 729 q 234 403 234 529 l 234 389 q 253 162 234 262 q 305 -13 273 62 q 376 -141 337 -88 q 454 -224 415 -193 l 422 -314 q 310 -229 368 -288 q 201 -81 252 -170 q 119 126 151 8 q 87 390 87 245 z "},")":{"ha":486,"x_min":26,"x_max":399,"o":"m 399 401 l 399 390 q 367 129 399 247 q 284 -79 335 11 q 173 -228 233 -168 q 60 -314 114 -288 l 26 -224 q 105 -143 66 -195 q 176 -15 144 -91 q 228 162 208 62 q 247 389 247 262 l 247 403 q 227 630 247 529 q 174 806 207 730 q 102 934 140 882 q 26 1015 63 986 l 60 1105 q 173 1019 114 1079 q 284 870 233 960 q 367 662 335 780 q 399 401 399 544 z "},"*":{"ha":616,"x_min":19,"x_max":603,"o":"m 87 474 l 229 661 l 19 722 l 55 833 l 264 753 l 254 988 l 372 988 l 361 748 l 567 828 l 603 715 l 389 653 l 528 471 l 432 401 l 307 598 l 183 407 l 87 474 z "},"+":{"ha":771,"x_min":45,"x_max":722,"o":"m 722 541 l 722 394 l 45 394 l 45 541 l 722 541 m 463 818 l 463 99 l 304 99 l 304 818 l 463 818 z "},",":{"ha":311,"x_min":23,"x_max":237,"o":"m 237 157 l 237 41 q 202 -102 237 -28 q 111 -222 168 -175 l 23 -172 q 58 -110 42 -141 q 83 -43 73 -79 q 92 35 92 -8 l 92 157 l 237 157 z "},"-":{"ha":472,"x_min":54,"x_max":413,"o":"m 413 487 l 413 357 l 54 357 l 54 487 l 413 487 z "},".":{"ha":386,"x_min":91,"x_max":282,"o":"m 91 81 q 117 145 91 119 q 186 172 142 172 q 257 145 231 172 q 282 81 282 119 q 257 18 282 43 q 186 -8 231 -8 q 117 18 142 -8 q 91 81 91 43 z "},"/":{"ha":542,"x_min":1,"x_max":513,"o":"m 513 987 l 129 -85 l 1 -85 l 386 987 l 513 987 z "},":":{"ha":366,"x_min":86,"x_max":278,"o":"m 86 81 q 112 145 86 119 q 182 172 138 172 q 252 145 227 172 q 277 81 277 119 q 252 18 277 43 q 182 -8 227 -8 q 112 18 138 -8 q 86 81 86 43 m 87 659 q 113 723 87 697 q 182 749 138 749 q 253 723 227 749 q 278 659 278 697 q 253 595 278 621 q 182 570 227 570 q 113 595 138 570 q 87 659 87 621 z "},";":{"ha":333,"x_min":35,"x_max":265,"o":"m 74 659 q 100 723 74 697 q 170 749 125 749 q 240 723 214 749 q 265 659 265 697 q 240 595 265 621 q 170 570 214 570 q 100 595 125 570 q 74 659 74 621 m 249 157 l 248 41 q 214 -102 248 -28 q 122 -222 179 -175 l 35 -172 q 69 -110 54 -141 q 94 -43 85 -79 q 104 35 104 -8 l 104 157 l 249 157 z "},"<":{"ha":707,"x_min":42,"x_max":614,"o":"m 165 446 l 614 274 l 614 113 l 42 366 l 42 472 l 165 446 m 614 586 l 165 412 l 42 388 l 42 494 l 614 746 l 614 586 z "},"=":{"ha":781,"x_min":97,"x_max":686,"o":"m 686 663 l 686 529 l 97 529 l 97 663 l 686 663 m 686 376 l 686 241 l 97 241 l 97 376 l 686 376 z "},">":{"ha":722,"x_min":85,"x_max":671,"o":"m 542 418 l 85 589 l 85 747 l 671 495 l 671 388 l 542 418 m 85 272 l 543 446 l 671 473 l 671 366 l 85 114 l 85 272 z "},"?":{"ha":675,"x_min":40,"x_max":623,"o":"m 390 291 l 239 291 q 250 397 239 354 q 284 475 260 440 q 348 550 308 511 q 404 607 379 580 q 444 664 429 633 q 459 733 459 694 q 445 806 459 776 q 403 851 431 836 q 335 867 376 867 q 271 853 301 867 q 223 813 241 840 q 203 741 205 785 l 40 741 q 81 884 41 826 q 186 972 120 943 q 335 1001 253 1001 q 490 970 426 1001 q 589 881 555 939 q 623 739 623 822 q 600 631 623 680 q 538 541 576 583 q 456 458 500 499 q 404 383 418 423 q 390 291 391 342 m 225 79 q 250 141 225 116 q 319 167 275 167 q 387 141 362 167 q 412 79 412 116 q 387 17 412 43 q 319 -8 362 -8 q 250 17 275 -8 q 225 79 225 43 z "},"@":{"ha":1246,"x_min":62,"x_max":1187,"o":"m 1182 353 q 1162 222 1179 287 q 1111 103 1145 157 q 1023 18 1077 50 q 895 -14 970 -14 q 814 2 849 -14 q 755 47 779 18 q 722 120 732 77 q 716 214 711 162 l 751 599 l 869 599 l 836 214 q 837 146 831 173 q 855 106 843 120 q 883 86 867 92 q 914 81 899 81 q 980 101 951 81 q 1030 159 1009 122 q 1062 245 1050 196 q 1076 351 1074 294 q 1067 526 1081 446 q 1022 669 1054 606 q 938 776 989 732 q 816 843 887 820 q 653 866 745 866 q 498 840 569 866 q 370 766 427 814 q 274 650 314 718 q 211 499 233 583 q 184 319 188 415 q 194 136 179 219 q 244 -10 210 54 q 331 -118 279 -74 q 453 -184 384 -161 q 608 -206 523 -206 q 729 -193 667 -206 q 832 -157 790 -179 l 858 -247 q 739 -292 810 -277 q 605 -307 668 -307 q 413 -280 500 -307 q 259 -200 326 -253 q 148 -72 192 -148 q 83 102 104 4 q 66 319 62 201 q 100 529 71 431 q 181 707 130 627 q 303 845 232 787 q 463 934 374 903 q 656 965 551 965 q 847 937 762 965 q 997 857 932 909 q 1105 728 1062 804 q 1167 558 1147 653 q 1182 353 1187 464 m 492 288 q 492 206 488 242 q 509 146 496 170 q 542 109 522 121 q 589 96 562 96 q 626 104 606 96 q 664 132 645 113 q 700 182 683 151 q 728 260 717 214 l 780 201 q 741 108 764 149 q 687 41 717 68 q 623 0 657 14 q 551 -14 588 -14 q 463 8 501 -14 q 400 70 425 30 q 366 164 376 109 q 361 288 355 220 q 388 418 368 358 q 436 524 407 477 q 501 604 465 571 q 580 654 538 637 q 667 671 623 671 q 787 650 744 671 q 869 599 831 628 l 806 517 q 754 552 786 536 q 680 568 723 568 q 609 551 641 568 q 554 497 578 533 q 514 410 530 462 q 492 288 498 357 z "},"A":{"ha":921,"x_min":12,"x_max":911,"o":"m 485 856 l 190 0 l 12 0 l 383 987 l 497 987 l 485 856 m 732 0 l 436 856 l 423 987 l 538 987 l 911 0 l 732 0 m 718 366 l 718 231 l 180 231 l 180 366 l 718 366 z "},"B":{"ha":877,"x_min":100,"x_max":806,"o":"m 471 446 l 219 446 l 218 570 l 437 570 q 532 587 493 570 q 591 635 571 604 q 612 711 612 667 q 593 792 612 761 q 535 838 574 823 q 435 852 496 852 l 271 852 l 271 0 l 100 0 l 100 987 l 435 987 q 581 972 517 987 q 690 923 645 956 q 759 840 735 890 q 782 721 782 790 q 753 609 782 660 q 667 527 724 559 q 525 489 610 495 l 471 446 m 463 0 l 165 0 l 242 135 l 463 135 q 559 154 521 135 q 617 208 598 174 q 637 288 637 242 q 620 372 637 336 q 566 427 603 408 q 471 446 530 446 l 279 446 l 281 570 l 530 570 l 568 524 q 702 488 650 521 q 781 401 755 454 q 806 288 806 349 q 765 130 806 193 q 648 33 724 66 q 463 0 571 0 z "},"C":{"ha":907,"x_min":69,"x_max":854,"o":"m 684 321 l 853 321 q 799 149 845 224 q 669 30 753 73 q 467 -14 586 -14 q 302 19 375 -14 q 176 113 229 52 q 97 260 124 174 q 69 452 69 346 l 69 534 q 97 727 69 641 q 178 874 125 813 q 306 968 231 936 q 473 1001 380 1001 q 672 958 591 1001 q 799 838 753 914 q 854 662 844 761 l 684 662 q 655 771 677 726 q 588 841 632 817 q 473 865 544 865 q 371 843 414 865 q 298 779 328 821 q 255 676 269 737 q 240 536 240 614 l 240 452 q 253 317 240 378 q 294 213 267 256 q 364 146 321 170 q 467 122 407 122 q 584 145 539 122 q 653 213 629 168 q 684 321 676 257 z "},"D":{"ha":907,"x_min":100,"x_max":837,"o":"m 387 0 l 176 0 l 178 135 l 387 135 q 541 175 479 135 q 634 290 603 215 q 666 467 666 364 l 666 521 q 648 663 666 601 q 595 766 630 724 q 510 830 560 808 q 393 852 459 852 l 172 852 l 172 987 l 393 987 q 573 955 492 987 q 714 860 654 922 q 805 712 773 798 q 837 519 837 626 l 837 467 q 805 275 837 361 q 713 127 773 189 q 571 33 654 66 q 387 0 489 0 m 271 987 l 271 0 l 100 0 l 100 987 l 271 987 z "},"E":{"ha":785,"x_min":100,"x_max":747,"o":"m 747 135 l 747 0 l 222 0 l 222 135 l 747 135 m 271 987 l 271 0 l 100 0 l 100 987 l 271 987 m 678 575 l 678 442 l 222 442 l 222 575 l 678 575 m 743 987 l 743 852 l 222 852 l 222 987 l 743 987 z "},"F":{"ha":765,"x_min":100,"x_max":730,"o":"m 271 987 l 271 0 l 100 0 l 100 987 l 271 987 m 673 555 l 673 420 l 227 420 l 227 555 l 673 555 m 730 987 l 730 852 l 227 852 l 227 987 l 730 987 z "},"G":{"ha":946,"x_min":73,"x_max":859,"o":"m 859 505 l 859 127 q 793 67 838 100 q 675 10 749 34 q 493 -14 602 -14 q 323 18 400 -14 q 190 111 245 50 q 103 259 134 172 q 73 460 73 347 l 73 528 q 101 728 73 640 q 182 877 129 816 q 310 969 235 938 q 479 1001 385 1001 q 681 961 601 1001 q 804 849 760 920 q 859 686 847 778 l 692 686 q 660 779 684 738 q 594 843 637 819 q 482 866 551 866 q 378 844 423 866 q 304 778 334 821 q 260 672 275 734 q 245 530 245 610 l 245 460 q 262 315 245 378 q 312 209 279 252 q 393 143 345 165 q 500 121 440 121 q 595 131 558 121 q 655 155 633 141 q 689 182 677 169 l 689 378 l 484 378 l 484 505 l 859 505 z "},"H":{"ha":985,"x_min":100,"x_max":884,"o":"m 753 575 l 753 440 l 229 440 l 229 575 l 753 575 m 271 987 l 271 0 l 100 0 l 100 987 l 271 987 m 884 987 l 884 0 l 714 0 l 714 987 l 884 987 z "},"I":{"ha":393,"x_min":112,"x_max":282,"o":"m 282 987 l 282 0 l 112 0 l 112 987 l 282 987 z "},"J":{"ha":772,"x_min":32,"x_max":676,"o":"m 507 296 l 507 987 l 676 987 l 676 296 q 634 129 676 198 q 519 23 592 60 q 355 -14 447 -14 q 188 18 260 -14 q 73 116 115 50 q 32 283 32 182 l 203 283 q 221 189 203 224 q 274 137 240 153 q 355 121 309 121 q 433 141 399 121 q 487 200 467 161 q 507 296 507 239 z "},"K":{"ha":878,"x_min":100,"x_max":883,"o":"m 271 987 l 271 0 l 100 0 l 100 987 l 271 987 m 864 987 l 464 512 l 236 271 l 206 439 l 369 640 l 656 987 l 864 987 m 681 0 l 356 468 l 473 584 l 883 0 l 681 0 z "},"L":{"ha":750,"x_min":100,"x_max":719,"o":"m 719 135 l 719 0 l 223 0 l 223 135 l 719 135 m 271 987 l 271 0 l 100 0 l 100 987 l 271 987 z "},"M":{"ha":1215,"x_min":100,"x_max":1114,"o":"m 170 987 l 321 987 l 607 226 l 892 987 l 1044 987 l 667 0 l 546 0 l 170 987 m 100 987 l 245 987 l 270 328 l 270 0 l 100 0 l 100 987 m 968 987 l 1114 987 l 1114 0 l 943 0 l 943 328 l 968 987 z "},"N":{"ha":985,"x_min":100,"x_max":884,"o":"m 884 987 l 884 0 l 713 0 l 271 707 l 271 0 l 100 0 l 100 987 l 271 987 l 715 279 l 715 987 l 884 987 z "},"O":{"ha":957,"x_min":68,"x_max":888,"o":"m 888 521 l 888 467 q 859 266 888 355 q 775 115 829 177 q 646 19 722 52 q 479 -14 571 -14 q 314 19 389 -14 q 184 115 239 52 q 99 266 129 177 q 68 467 68 355 l 68 521 q 98 721 68 633 q 183 872 128 810 q 312 968 237 935 q 478 1001 387 1001 q 645 968 570 1001 q 774 872 720 935 q 858 721 829 810 q 888 521 888 633 m 718 467 l 718 522 q 702 668 718 605 q 655 775 686 732 q 579 840 624 818 q 478 862 534 862 q 378 840 422 862 q 303 775 334 818 q 256 668 272 732 q 239 522 239 605 l 239 467 q 256 320 239 384 q 303 213 272 256 q 379 147 335 169 q 479 125 423 125 q 581 147 536 125 q 655 213 625 169 q 702 320 686 256 q 718 467 718 384 z "},"P":{"ha":886,"x_min":100,"x_max":835,"o":"m 475 368 l 218 368 l 218 503 l 475 503 q 584 525 543 503 q 645 585 625 547 q 664 673 664 623 q 645 761 664 720 q 584 827 625 802 q 475 852 543 852 l 271 852 l 271 0 l 100 0 l 100 987 l 475 987 q 670 947 590 987 q 793 836 751 907 q 835 674 835 765 q 793 510 835 578 q 670 405 751 441 q 475 368 590 368 z "},"Q":{"ha":957,"x_min":65,"x_max":885,"o":"m 623 132 l 883 -75 l 772 -172 l 517 33 l 623 132 m 885 521 l 885 467 q 856 266 885 355 q 772 115 827 177 q 643 19 718 52 q 476 -14 568 -14 q 310 19 385 -14 q 180 115 235 52 q 95 266 125 177 q 65 467 65 355 l 65 521 q 95 721 65 633 q 179 872 125 810 q 309 968 234 935 q 475 1001 384 1001 q 642 968 566 1001 q 772 872 718 935 q 856 721 826 810 q 885 521 885 633 m 714 467 l 714 522 q 698 668 714 605 q 651 775 682 732 q 576 840 621 818 q 475 862 532 862 q 375 840 419 862 q 300 775 331 818 q 252 668 269 732 q 236 522 236 605 l 236 467 q 252 320 236 384 q 300 213 269 256 q 376 147 332 169 q 476 125 420 125 q 577 147 533 125 q 652 213 621 169 q 698 320 682 256 q 714 467 714 384 z "},"R":{"ha":874,"x_min":100,"x_max":846,"o":"m 100 987 l 450 987 q 642 954 562 987 q 763 853 721 920 q 806 690 806 787 q 779 560 806 616 q 702 466 751 504 q 584 406 652 427 l 532 381 l 218 381 l 217 516 l 452 516 q 554 538 513 516 q 615 597 595 559 q 636 682 636 635 q 616 772 636 734 q 555 831 596 810 q 450 852 513 852 l 271 852 l 271 0 l 100 0 l 100 987 m 664 0 l 432 444 l 610 444 l 846 9 l 846 0 l 664 0 z "},"S":{"ha":841,"x_min":51,"x_max":791,"o":"m 620 254 q 611 309 620 285 q 578 352 602 332 q 514 390 555 372 q 408 429 472 409 q 278 477 337 450 q 174 539 218 504 q 106 622 130 575 q 81 729 81 668 q 107 839 81 789 q 179 925 132 888 q 291 981 227 961 q 433 1001 355 1001 q 623 960 543 1001 q 746 851 703 920 q 789 700 789 783 l 620 700 q 599 786 620 749 q 537 846 578 824 q 431 867 495 867 q 331 849 371 867 q 271 800 291 831 q 252 729 252 768 q 264 679 252 701 q 304 636 277 656 q 370 600 330 617 q 465 568 410 583 q 608 514 547 543 q 709 447 669 484 q 770 362 750 410 q 791 256 791 315 q 766 143 791 193 q 694 59 741 94 q 583 5 648 24 q 439 -14 518 -14 q 299 5 368 -14 q 174 63 230 24 q 84 161 117 102 q 51 298 51 220 l 221 298 q 238 216 221 250 q 284 161 254 182 q 354 130 314 140 q 439 119 393 119 q 539 136 498 119 q 600 184 579 153 q 620 254 620 214 z "},"T":{"ha":846,"x_min":31,"x_max":817,"o":"m 507 987 l 507 0 l 338 0 l 338 987 l 507 987 m 817 987 l 817 852 l 31 852 l 31 987 l 817 987 z "},"U":{"ha":909,"x_min":87,"x_max":824,"o":"m 654 987 l 824 987 l 824 328 q 775 139 824 215 q 643 25 726 63 q 456 -14 559 -14 q 266 25 349 -14 q 135 139 182 63 q 87 328 87 215 l 87 987 l 256 987 l 256 328 q 281 211 256 256 q 350 143 305 165 q 456 121 395 121 q 561 143 517 121 q 630 211 606 165 q 654 328 654 256 l 654 987 z "},"V":{"ha":897,"x_min":12,"x_max":886,"o":"m 439 180 l 699 987 l 886 987 l 532 0 l 406 0 l 439 180 m 199 987 l 456 180 l 492 0 l 364 0 l 12 987 l 199 987 z "},"W":{"ha":1223,"x_min":32,"x_max":1198,"o":"m 348 222 l 545 987 l 648 987 l 636 790 l 426 0 l 319 0 l 348 222 m 201 987 l 360 228 l 374 0 l 260 0 l 32 987 l 201 987 m 871 230 l 1028 987 l 1198 987 l 969 0 l 855 0 l 871 230 m 688 987 l 882 220 l 911 0 l 804 0 l 597 790 l 586 987 l 688 987 z "},"X":{"ha":877,"x_min":26,"x_max":852,"o":"m 230 987 l 439 627 l 649 987 l 845 987 l 547 498 l 852 0 l 654 0 l 439 367 l 224 0 l 26 0 l 332 498 l 33 987 l 230 987 z "},"Y":{"ha":848,"x_min":5,"x_max":842,"o":"m 195 987 l 424 516 l 653 987 l 842 987 l 509 363 l 509 0 l 338 0 l 338 363 l 5 987 l 195 987 z "},"Z":{"ha":838,"x_min":54,"x_max":791,"o":"m 791 135 l 791 0 l 105 0 l 105 135 l 791 135 m 775 882 l 168 0 l 54 0 l 54 108 l 663 987 l 775 987 l 775 882 m 712 987 l 712 852 l 58 852 l 58 987 l 712 987 z "},"[":{"ha":377,"x_min":90,"x_max":365,"o":"m 365 1139 l 365 1013 l 254 1013 l 254 -94 l 365 -94 l 365 -221 l 90 -221 l 90 1139 l 365 1139 z "},"\\":{"ha":578,"x_min":12,"x_max":588,"o":"m 425 -85 l 12 987 l 176 987 l 588 -85 l 425 -85 z "},"]":{"ha":377,"x_min":7,"x_max":283,"o":"m 7 1013 l 7 1139 l 283 1139 l 283 -221 l 7 -221 l 7 -94 l 120 -94 l 120 1013 l 7 1013 z "},"^":{"ha":595,"x_min":37,"x_max":559,"o":"m 304 832 l 174 494 l 37 494 l 239 987 l 334 987 l 304 832 m 422 494 l 291 832 l 261 987 l 357 987 l 559 494 l 422 494 z "},"_":{"ha":622,"x_min":1,"x_max":620,"o":"m 620 0 l 620 -127 l 1 -127 l 1 0 l 620 0 z "},"`":{"ha":445,"x_min":38,"x_max":355,"o":"m 223 1042 l 355 838 l 219 838 l 38 1042 l 223 1042 z "},"a":{"ha":749,"x_min":58,"x_max":690,"o":"m 498 147 l 498 497 q 484 565 498 536 q 440 609 469 593 q 368 625 412 625 q 299 611 328 625 q 254 574 270 597 q 237 522 237 551 l 75 522 q 96 606 75 566 q 157 679 117 647 q 252 729 197 711 q 377 747 308 747 q 524 720 460 747 q 625 636 588 692 q 662 496 662 580 l 662 170 q 669 80 662 119 q 690 11 676 40 l 690 0 l 522 0 q 504 67 511 26 q 498 147 498 109 m 522 446 l 523 345 l 406 345 q 326 337 360 345 q 268 312 291 328 q 233 273 245 296 q 222 220 222 250 q 235 167 222 191 q 275 130 249 143 q 338 116 301 116 q 426 137 389 116 q 486 188 464 157 q 509 245 507 218 l 562 172 q 534 113 553 144 q 483 52 514 81 q 407 5 451 23 q 307 -14 363 -14 q 178 15 235 -14 q 90 93 122 44 q 58 205 58 142 q 80 308 58 263 q 145 384 102 353 q 251 430 189 414 q 393 446 313 446 l 522 446 z "},"b":{"ha":781,"x_min":85,"x_max":727,"o":"m 85 1042 l 248 1042 l 248 157 l 233 0 l 85 0 l 85 1042 m 727 374 l 727 359 q 709 210 727 278 q 655 92 691 142 q 565 14 618 41 q 442 -14 512 -14 q 323 12 374 -14 q 238 85 272 38 q 182 199 203 133 q 153 344 161 264 l 153 389 q 182 535 161 469 q 238 648 203 600 q 322 722 272 696 q 441 747 373 747 q 565 720 511 747 q 655 643 619 693 q 709 525 691 593 q 727 374 727 456 m 564 359 l 564 374 q 555 467 564 423 q 529 544 547 511 q 478 596 510 577 q 400 616 447 616 q 326 601 357 616 q 273 560 294 586 q 240 500 252 534 q 224 427 229 467 l 224 304 q 251 211 231 254 q 307 143 271 169 q 401 118 344 118 q 478 136 447 118 q 528 188 509 155 q 555 264 547 220 q 564 359 564 309 z "},"c":{"ha":725,"x_min":53,"x_max":684,"o":"m 384 117 q 456 133 424 117 q 508 177 488 149 q 530 243 528 205 l 684 243 q 642 113 683 172 q 534 21 602 55 q 386 -14 467 -14 q 239 15 302 -14 q 136 95 177 44 q 74 212 94 146 q 53 355 53 279 l 53 378 q 74 521 53 454 q 136 639 94 588 q 239 719 177 690 q 385 747 302 747 q 540 712 473 747 q 645 615 606 677 q 684 471 683 553 l 530 471 q 510 545 528 512 q 460 597 492 578 q 383 617 428 617 q 301 597 334 617 q 250 543 269 577 q 224 466 232 509 q 216 378 216 424 l 216 355 q 224 267 216 309 q 250 190 231 224 q 301 137 269 157 q 384 117 334 117 z "},"d":{"ha":783,"x_min":54,"x_max":696,"o":"m 532 152 l 532 1042 l 696 1042 l 696 0 l 547 0 l 532 152 m 54 359 l 54 373 q 74 525 54 456 q 131 644 94 594 q 222 721 168 694 q 342 747 275 747 q 459 722 409 747 q 545 648 509 696 q 601 534 580 600 q 631 387 622 468 l 631 342 q 601 198 622 263 q 545 85 580 133 q 459 12 509 38 q 341 -14 408 -14 q 221 14 275 -14 q 131 92 168 42 q 74 211 94 142 q 54 359 54 279 m 218 373 l 218 359 q 227 265 218 309 q 256 189 236 222 q 307 137 275 156 q 382 119 338 119 q 474 143 438 119 q 531 209 510 168 q 559 302 551 251 l 559 425 q 542 500 555 465 q 509 561 530 534 q 457 601 488 587 q 384 616 426 616 q 308 597 339 616 q 257 545 277 578 q 227 467 237 511 q 218 373 218 423 z "},"e":{"ha":744,"x_min":55,"x_max":701,"o":"m 408 -14 q 261 13 326 -14 q 150 88 195 40 q 79 201 104 136 q 55 342 55 267 l 55 369 q 80 525 55 455 q 150 645 105 595 q 256 721 195 694 q 388 747 317 747 q 526 721 467 747 q 624 647 585 694 q 682 533 663 599 q 701 388 701 467 l 701 318 l 134 318 l 134 435 l 540 435 l 540 448 q 523 531 538 492 q 474 593 507 570 q 387 617 441 617 q 315 600 347 617 q 262 550 283 583 q 230 472 241 517 q 219 369 219 426 l 219 342 q 232 253 219 294 q 271 181 245 212 q 334 133 297 151 q 417 116 370 116 q 522 140 476 116 q 602 207 568 163 l 688 123 q 627 57 665 89 q 534 6 589 26 q 408 -14 479 -14 z "},"f":{"ha":490,"x_min":29,"x_max":492,"o":"m 305 0 l 142 0 l 142 804 q 173 942 142 886 q 261 1027 203 998 q 397 1056 319 1056 q 446 1053 422 1056 q 492 1044 469 1050 l 488 918 q 458 922 474 921 q 424 924 442 924 q 360 910 387 924 q 319 869 333 896 q 305 804 305 843 l 305 0 m 456 734 l 456 614 l 29 614 l 29 734 l 456 734 z "},"g":{"ha":787,"x_min":56,"x_max":703,"o":"m 554 734 l 703 734 l 703 20 q 661 -148 703 -79 q 543 -253 618 -217 q 369 -290 468 -290 q 276 -277 327 -290 q 177 -238 224 -265 q 97 -168 129 -212 l 174 -72 q 260 -140 213 -119 q 360 -162 308 -162 q 456 -141 416 -162 q 517 -81 496 -121 q 539 17 539 -41 l 539 568 l 554 734 m 56 359 l 56 373 q 76 525 56 456 q 134 644 96 594 q 227 721 172 694 q 349 747 281 747 q 471 722 420 747 q 555 648 522 696 q 609 534 589 600 q 637 387 628 468 l 637 342 q 608 198 629 263 q 552 85 587 133 q 467 12 517 38 q 348 -14 416 -14 q 227 14 281 -14 q 135 92 173 42 q 76 211 96 142 q 56 359 56 279 m 219 373 l 219 359 q 229 265 219 309 q 259 189 239 222 q 312 137 280 156 q 389 119 345 119 q 483 143 446 119 q 540 209 520 168 q 568 302 560 251 l 568 425 q 552 500 564 465 q 518 561 539 534 q 465 601 497 587 q 390 616 433 616 q 313 597 346 616 q 260 545 281 578 q 229 467 239 511 q 219 373 219 423 z "},"h":{"ha":772,"x_min":83,"x_max":690,"o":"m 245 1042 l 245 0 l 83 0 l 83 1042 l 245 1042 m 217 394 l 164 395 q 185 535 165 471 q 244 647 206 600 q 334 721 281 695 q 452 747 387 747 q 550 732 506 747 q 625 685 593 718 q 674 599 657 652 q 690 471 690 547 l 690 0 l 526 0 l 526 473 q 511 557 526 526 q 467 602 496 588 q 395 616 437 616 q 318 598 351 616 q 262 550 284 581 q 228 479 239 519 q 217 394 217 439 z "},"i":{"ha":354,"x_min":84,"x_max":271,"o":"m 259 734 l 259 0 l 95 0 l 95 734 l 259 734 m 84 926 q 109 988 84 964 q 178 1013 134 1013 q 246 988 221 1013 q 271 926 271 964 q 246 865 271 890 q 178 841 221 841 q 109 865 134 841 q 84 926 84 890 z "},"j":{"ha":349,"x_min":-58,"x_max":265,"o":"m 92 734 l 256 734 l 256 -64 q 231 -191 256 -139 q 155 -270 205 -243 q 32 -296 104 -296 q -13 -293 10 -296 q -58 -285 -37 -290 l -57 -157 q -27 -162 -43 -160 q 3 -163 -11 -163 q 52 -153 33 -163 q 82 -121 72 -143 q 92 -64 92 -100 l 92 734 m 78 926 q 103 988 78 964 q 172 1013 128 1013 q 240 988 216 1013 q 265 926 265 964 q 240 865 265 890 q 172 841 216 841 q 103 865 128 841 q 78 926 78 890 z "},"k":{"ha":724,"x_min":85,"x_max":732,"o":"m 249 1042 l 249 0 l 85 0 l 85 1042 l 249 1042 m 705 734 l 385 380 l 210 201 l 168 339 l 300 503 l 507 734 l 705 734 m 543 0 l 304 345 l 408 459 l 732 0 l 543 0 z "},"l":{"ha":354,"x_min":95,"x_max":259,"o":"m 259 1042 l 259 0 l 95 0 l 95 1042 l 259 1042 z "},"m":{"ha":1210,"x_min":84,"x_max":1126,"o":"m 248 585 l 248 0 l 84 0 l 84 734 l 238 734 l 248 585 m 221 394 l 165 395 q 184 535 165 471 q 240 647 203 600 q 331 721 277 695 q 458 747 386 747 q 550 733 508 747 q 622 687 591 718 q 670 607 653 656 q 686 489 686 558 l 686 0 l 523 0 l 523 475 q 507 559 523 528 q 461 603 491 589 q 391 616 432 616 q 313 598 345 616 q 260 550 281 581 q 231 479 240 519 q 221 394 221 439 m 676 437 l 600 420 q 618 546 600 487 q 673 651 637 606 q 763 722 709 696 q 886 747 817 747 q 986 732 942 747 q 1062 684 1031 717 q 1109 600 1093 652 q 1126 475 1126 548 l 1126 0 l 962 0 l 962 475 q 946 562 962 531 q 901 604 930 592 q 831 616 871 616 q 764 602 793 616 q 715 563 735 588 q 686 507 696 538 q 676 437 676 475 z "},"n":{"ha":773,"x_min":83,"x_max":690,"o":"m 246 577 l 246 0 l 83 0 l 83 734 l 237 734 l 246 577 m 217 394 l 164 395 q 186 538 165 473 q 246 650 208 603 q 338 722 284 696 q 457 747 391 747 q 553 733 510 747 q 627 686 596 718 q 674 601 658 653 q 690 474 690 549 l 690 0 l 526 0 l 526 475 q 511 558 526 528 q 467 603 496 589 q 395 616 438 616 q 320 598 353 616 q 264 550 287 581 q 229 479 241 519 q 217 394 217 439 z "},"o":{"ha":788,"x_min":53,"x_max":735,"o":"m 53 359 l 53 374 q 76 522 53 454 q 143 641 99 590 q 250 719 186 691 q 393 747 313 747 q 537 719 474 747 q 645 641 601 691 q 712 522 689 590 q 735 374 735 454 l 735 359 q 712 212 735 279 q 645 93 689 144 q 538 15 601 43 q 395 -14 475 -14 q 251 15 314 -14 q 143 93 187 43 q 76 212 99 144 q 53 359 53 279 m 216 374 l 216 359 q 227 265 216 309 q 258 188 237 221 q 314 136 280 155 q 395 117 348 117 q 474 136 440 117 q 529 188 507 155 q 561 265 551 221 q 572 359 572 309 l 572 374 q 561 467 572 423 q 529 545 551 511 q 473 598 507 578 q 393 617 439 617 q 314 598 347 617 q 258 545 280 578 q 227 467 237 511 q 216 374 216 423 z "},"p":{"ha":781,"x_min":85,"x_max":726,"o":"m 248 593 l 248 -282 l 85 -282 l 85 734 l 235 734 l 248 593 m 726 374 l 726 359 q 708 211 726 279 q 653 93 689 143 q 564 14 616 42 q 441 -14 511 -14 q 322 12 373 -14 q 235 84 271 37 q 179 194 200 131 q 149 334 157 258 l 149 389 q 179 535 157 469 q 235 648 200 601 q 321 722 271 696 q 440 747 372 747 q 563 721 509 747 q 653 645 616 694 q 708 527 690 595 q 726 374 726 458 m 563 359 l 563 374 q 553 468 563 425 q 524 545 544 512 q 472 597 503 578 q 396 616 440 616 q 321 601 353 616 q 269 561 290 587 q 237 501 248 535 q 220 427 225 467 l 220 295 q 248 205 229 246 q 304 141 268 165 q 397 117 340 117 q 473 136 441 117 q 524 188 504 155 q 553 266 544 222 q 563 359 563 310 z "},"q":{"ha":786,"x_min":54,"x_max":696,"o":"m 531 -282 l 531 588 l 550 734 l 696 734 l 696 -282 l 531 -282 m 54 359 l 54 374 q 73 526 54 457 q 130 644 92 595 q 220 721 167 694 q 344 747 274 747 q 462 722 412 747 q 548 648 513 696 q 604 534 583 600 q 634 388 625 469 l 634 342 q 604 199 625 264 q 548 86 583 134 q 462 13 513 39 q 342 -14 411 -14 q 220 14 274 -14 q 130 93 167 42 q 74 211 93 143 q 54 359 54 279 m 218 374 l 218 359 q 227 266 218 309 q 256 188 236 222 q 308 136 277 155 q 383 117 339 117 q 478 142 441 117 q 535 209 515 167 q 563 303 555 252 l 563 426 q 546 501 558 466 q 512 562 534 536 q 459 603 491 588 q 385 617 428 617 q 309 598 340 617 q 257 546 277 579 q 227 468 237 512 q 218 374 218 424 z "},"r":{"ha":491,"x_min":85,"x_max":473,"o":"m 248 594 l 248 0 l 85 0 l 85 734 l 241 734 l 248 594 m 473 739 l 471 587 q 439 591 456 589 q 405 592 422 592 q 331 580 363 592 q 278 546 299 568 q 245 493 256 524 q 231 423 233 462 l 194 420 q 208 549 194 490 q 249 652 221 608 q 318 722 276 697 q 414 747 359 747 q 447 745 429 747 q 473 739 464 742 z "},"s":{"ha":715,"x_min":50,"x_max":656,"o":"m 496 199 q 484 243 496 223 q 437 279 471 263 q 336 309 403 296 q 230 340 278 322 q 146 384 181 358 q 93 445 112 410 q 74 526 74 480 q 94 611 74 571 q 150 682 113 651 q 239 730 186 712 q 357 747 292 747 q 515 716 449 747 q 616 633 581 686 q 652 515 652 581 l 488 515 q 474 569 488 544 q 430 611 459 595 q 357 627 401 627 q 287 613 315 627 q 247 579 260 600 q 233 533 233 558 q 240 500 233 515 q 264 474 248 486 q 311 452 281 462 q 385 432 340 441 q 530 387 469 414 q 623 316 591 359 q 656 208 656 273 q 635 118 656 159 q 575 48 614 78 q 481 3 536 19 q 359 -14 427 -14 q 190 22 259 -14 q 85 114 121 58 q 50 230 50 170 l 208 230 q 233 158 210 184 q 290 119 256 131 q 361 107 324 107 q 435 119 405 107 q 480 152 465 131 q 496 199 496 172 z "},"t":{"ha":463,"x_min":7,"x_max":427,"o":"m 420 734 l 420 614 l 7 614 l 7 734 l 420 734 m 126 913 l 290 913 l 290 203 q 299 151 290 169 q 327 127 309 133 q 368 121 345 121 q 401 123 385 121 q 426 127 416 125 l 427 2 q 379 -9 406 -4 q 318 -14 353 -14 q 218 6 262 -14 q 151 72 175 26 q 126 193 126 117 l 126 913 z "},"u":{"ha":772,"x_min":81,"x_max":690,"o":"m 526 173 l 526 734 l 690 734 l 690 0 l 535 0 l 526 173 m 549 326 l 604 327 q 587 191 604 253 q 537 83 571 129 q 450 12 503 37 q 323 -14 397 -14 q 225 2 270 -14 q 148 50 180 18 q 98 135 116 83 q 81 260 81 187 l 81 734 l 244 734 l 244 258 q 254 192 244 218 q 279 149 263 165 q 317 125 296 132 q 363 119 339 119 q 474 146 433 119 q 531 220 514 174 q 549 326 549 267 z "},"v":{"ha":689,"x_min":15,"x_max":672,"o":"m 323 130 l 503 734 l 672 734 l 417 0 l 311 0 l 323 130 m 185 734 l 368 127 l 377 0 l 271 0 l 15 734 l 185 734 z "},"w":{"ha":1031,"x_min":24,"x_max":1004,"o":"m 283 163 l 453 734 l 557 734 l 529 563 l 358 0 l 264 0 l 283 163 m 184 734 l 316 160 l 327 0 l 222 0 l 24 734 l 184 734 m 716 167 l 844 734 l 1004 734 l 806 0 l 701 0 l 716 167 m 575 734 l 743 170 l 764 0 l 670 0 l 497 564 l 469 734 l 575 734 z "},"x":{"ha":699,"x_min":21,"x_max":680,"o":"m 209 734 l 349 490 l 491 734 l 671 734 l 448 374 l 680 0 l 500 0 l 351 254 l 201 0 l 21 0 l 252 374 l 30 734 l 209 734 z "},"y":{"ha":680,"x_min":8,"x_max":671,"o":"m 297 80 l 496 734 l 671 734 l 377 -112 q 351 -171 367 -139 q 308 -232 334 -203 q 243 -278 282 -260 q 150 -296 205 -296 q 108 -293 128 -296 q 71 -285 88 -289 l 70 -160 q 86 -161 77 -161 q 102 -162 96 -162 q 170 -152 143 -162 q 215 -121 197 -142 q 244 -62 232 -99 l 297 80 m 184 734 l 359 184 l 388 12 l 275 -17 l 8 734 l 184 734 z "},"z":{"ha":699,"x_min":55,"x_max":652,"o":"m 652 130 l 652 0 l 105 0 l 105 130 l 652 130 m 637 632 l 161 0 l 55 0 l 55 105 l 528 734 l 637 734 l 637 632 m 574 734 l 574 604 l 63 604 l 63 734 l 574 734 z "},"{":{"ha":463,"x_min":38,"x_max":444,"o":"m 411 1083 l 444 990 q 348 906 374 966 q 321 768 321 846 l 321 628 q 293 505 321 560 q 201 416 264 449 q 38 384 139 384 l 38 477 q 138 518 108 477 q 169 628 169 559 l 169 768 q 191 901 169 839 q 266 1010 213 963 q 411 1083 319 1057 m 444 -153 l 411 -247 q 266 -173 319 -220 q 191 -64 213 -126 q 169 69 169 -2 l 169 208 q 155 288 169 254 q 113 340 142 321 q 38 359 84 359 l 38 453 q 201 420 139 453 q 293 332 264 387 q 321 208 321 277 l 321 69 q 333 -27 321 17 q 371 -104 344 -72 q 444 -153 397 -137 z "},"|":{"ha":345,"x_min":119,"x_max":228,"o":"m 228 987 l 228 -183 l 119 -183 l 119 987 l 228 987 z "},"}":{"ha":463,"x_min":19,"x_max":425,"o":"m 19 990 l 52 1083 q 197 1010 144 1057 q 272 901 250 963 q 294 768 294 839 l 294 628 q 307 549 294 583 q 350 496 321 515 q 425 477 379 477 l 425 388 q 262 419 325 388 q 170 506 199 451 q 141 628 141 560 l 141 768 q 130 865 141 820 q 93 942 119 909 q 19 990 66 975 m 52 -247 l 19 -153 q 92 -104 66 -137 q 130 -27 119 -72 q 141 69 141 17 l 141 208 q 170 331 141 277 q 262 417 199 385 q 425 448 325 448 l 425 359 q 325 318 356 359 q 294 208 294 277 l 294 69 q 272 -64 294 -2 q 197 -173 250 -126 q 52 -247 144 -220 z "},"~":{"ha":920,"x_min":79,"x_max":840,"o":"m 715 532 l 840 533 q 824 426 840 475 q 778 340 808 376 q 708 284 749 304 q 618 264 667 264 q 517 287 561 264 q 423 356 473 310 q 365 402 392 386 q 307 418 338 418 q 254 402 276 418 q 220 357 233 386 q 208 289 208 328 l 79 289 q 96 396 79 348 q 141 480 112 445 q 212 534 171 515 q 301 553 252 553 q 404 529 358 553 q 497 461 450 505 q 556 414 530 430 q 612 399 583 399 q 666 416 643 399 q 702 464 689 433 q 715 532 715 494 z "},"¡":{"ha":368,"x_min":90,"x_max":277,"o":"m 99 -248 l 116 449 l 256 449 l 273 -248 l 99 -248 m 277 660 q 253 598 277 623 q 184 572 228 572 q 115 598 140 572 q 90 660 90 623 q 115 722 90 696 q 184 747 140 747 q 253 722 228 747 q 277 660 277 696 z "},"¢":{"ha":783,"x_min":70,"x_max":702,"o":"m 465 894 l 465 698 l 335 698 l 335 894 l 465 894 m 465 29 l 465 -166 l 335 -166 l 335 29 l 465 29 m 401 117 q 473 133 441 117 q 526 177 506 149 q 547 243 545 205 l 702 243 q 659 113 700 172 q 551 21 618 55 q 403 -14 484 -14 q 256 15 319 -14 q 152 95 193 44 q 90 212 111 146 q 70 355 70 279 l 70 378 q 90 521 70 454 q 152 639 111 588 q 256 719 194 690 q 402 747 319 747 q 557 712 490 747 q 662 615 623 677 q 702 471 700 553 l 547 471 q 527 545 545 512 q 477 597 509 578 q 400 617 445 617 q 318 597 351 617 q 267 543 286 577 q 241 466 249 509 q 233 378 233 424 l 233 355 q 241 267 233 309 q 267 190 248 224 q 318 137 286 157 q 401 117 351 117 z "},"£":{"ha":817,"x_min":64,"x_max":777,"o":"m 777 0 l 67 0 l 67 135 l 777 135 l 777 0 m 556 407 l 64 407 l 64 539 l 556 539 l 556 407 m 336 705 l 352 284 q 329 168 353 219 q 250 87 304 117 l 126 135 q 160 164 149 140 q 177 219 172 187 q 181 278 181 250 l 167 705 q 206 864 167 798 q 313 966 245 930 q 471 1001 382 1001 q 631 966 565 1001 q 731 870 696 932 q 766 728 766 809 l 602 728 q 583 809 602 779 q 533 852 564 839 q 466 866 502 866 q 400 848 429 866 q 353 793 370 829 q 336 705 336 758 z "},"¤":{"ha":975,"x_min":62,"x_max":921,"o":"m 206 412 q 228 294 206 349 q 289 197 250 238 q 379 132 328 155 q 490 109 431 109 q 600 132 549 109 q 690 197 651 155 q 751 294 729 238 q 772 412 772 349 q 751 531 772 476 q 690 627 729 586 q 600 692 651 669 q 490 715 549 715 q 379 692 431 715 q 289 627 328 669 q 228 531 250 586 q 206 412 206 476 m 86 412 q 118 580 86 503 q 204 715 149 657 q 333 805 260 772 q 490 837 406 837 q 646 805 573 837 q 775 715 720 772 q 862 580 831 657 q 893 412 893 503 q 862 245 893 322 q 775 110 831 168 q 646 19 720 52 q 490 -14 573 -14 q 333 19 406 -14 q 204 110 260 52 q 118 245 149 168 q 86 412 86 322 m 921 763 l 784 623 l 692 718 l 829 858 l 921 763 m 290 122 l 153 -18 l 62 77 l 199 216 l 290 122 m 829 -18 l 692 121 l 784 216 l 921 77 l 829 -18 m 199 623 l 62 763 l 153 857 l 290 718 l 199 623 z "},"¥":{"ha":738,"x_min":9,"x_max":728,"o":"m 659 501 l 659 400 l 70 400 l 70 501 l 659 501 m 659 304 l 659 203 l 70 203 l 70 304 l 659 304 m 326 467 l 548 987 l 728 987 l 445 393 l 346 393 l 326 467 m 191 987 l 416 462 l 393 393 l 294 393 l 9 987 l 191 987 m 451 519 l 451 0 l 281 0 l 281 519 l 451 519 z "},"¦":{"ha":342,"x_min":93,"x_max":245,"o":"m 245 -183 l 93 -183 l 93 355 l 245 355 l 245 -183 m 245 987 l 245 473 l 93 473 l 93 987 l 245 987 z "},"§":{"ha":863,"x_min":62,"x_max":789,"o":"m 466 84 l 466 172 q 553 189 517 172 q 608 234 589 205 q 627 298 627 262 q 616 348 627 327 q 581 388 606 370 q 513 422 555 406 q 408 459 471 439 q 273 504 332 479 q 173 560 214 528 q 110 638 132 593 q 89 748 89 684 q 113 852 89 806 q 182 932 137 899 q 290 984 227 966 q 431 1002 353 1002 q 615 968 538 1002 q 733 869 692 934 q 774 711 774 804 l 611 711 q 590 792 611 755 q 530 850 570 828 q 431 871 490 871 q 330 855 369 871 q 271 811 290 838 q 252 749 252 783 q 262 699 252 720 q 294 661 271 677 q 359 629 317 644 q 467 596 401 614 q 604 551 544 576 q 705 495 663 527 q 768 417 746 463 q 789 309 789 372 q 766 213 789 255 q 701 142 743 171 q 599 99 659 114 q 466 84 539 84 m 376 593 l 376 504 q 293 488 326 504 q 244 443 260 471 q 229 379 229 415 q 238 327 229 349 q 271 287 247 304 q 337 253 294 269 q 446 218 380 237 q 582 173 522 197 q 682 117 642 149 q 744 39 723 85 q 766 -71 766 -7 q 742 -177 766 -130 q 672 -256 718 -224 q 565 -305 627 -288 q 425 -321 503 -321 q 293 -307 357 -321 q 176 -259 229 -292 q 93 -171 124 -227 q 62 -34 62 -115 l 226 -33 q 243 -110 226 -79 q 290 -158 261 -140 q 354 -183 319 -176 q 425 -191 389 -191 q 521 -176 481 -191 q 582 -133 561 -160 q 602 -72 602 -106 q 592 -24 602 -45 q 557 13 581 -4 q 491 47 532 31 q 387 81 449 63 q 252 126 311 102 q 151 182 192 150 q 87 260 109 215 q 65 368 65 306 q 87 463 65 421 q 150 533 109 505 q 248 578 191 562 q 376 593 306 593 z "},"¨":{"ha":620,"x_min":67,"x_max":551,"o":"m 67 928 q 90 984 67 962 q 151 1007 113 1007 q 213 984 190 1007 q 236 928 236 962 q 213 873 236 896 q 151 850 190 850 q 90 873 113 850 q 67 928 67 896 m 381 928 q 404 984 381 961 q 466 1006 427 1006 q 527 984 504 1006 q 551 928 551 961 q 527 872 551 895 q 466 850 504 850 q 404 872 427 850 q 381 928 381 895 z "},"©":{"ha":1091,"x_min":61,"x_max":1023,"o":"m 657 405 l 759 405 q 698 245 759 298 q 533 192 637 192 q 408 225 460 192 q 327 317 355 258 q 298 454 298 376 l 298 534 q 327 671 298 612 q 408 763 355 730 q 533 796 460 796 q 699 743 637 796 q 760 583 760 690 l 658 583 q 626 679 658 650 q 533 707 595 707 q 459 685 489 707 q 413 624 429 663 q 398 534 398 585 l 398 454 q 413 364 398 404 q 459 303 429 325 q 533 281 489 281 q 626 309 595 281 q 657 405 657 338 m 140 494 q 172 327 140 404 q 258 191 203 249 q 386 101 313 133 q 543 68 459 68 q 698 101 625 68 q 826 191 770 133 q 912 327 881 249 q 943 494 943 404 q 912 662 943 585 q 826 797 881 739 q 698 887 770 854 q 543 919 625 919 q 386 887 459 919 q 258 797 313 854 q 172 662 203 739 q 140 494 140 585 m 61 494 q 98 694 61 602 q 202 856 136 787 q 356 963 269 924 q 543 1001 443 1001 q 729 963 642 1001 q 883 856 817 924 q 986 694 949 787 q 1023 494 1023 602 q 986 294 1023 387 q 883 133 949 202 q 729 24 817 63 q 543 -14 642 -14 q 356 24 443 -14 q 202 133 269 63 q 98 294 136 202 q 61 494 61 387 z "},"ª":{"ha":618,"x_min":96,"x_max":530,"o":"m 399 585 l 399 815 q 390 864 399 844 q 363 894 381 884 q 317 904 345 904 q 245 886 271 904 q 219 834 219 869 l 107 844 q 133 925 107 890 q 207 981 159 961 q 317 1002 254 1002 q 419 981 376 1002 q 488 918 463 960 q 513 814 513 877 l 513 602 q 517 538 513 568 q 530 479 521 509 l 415 479 q 399 585 399 528 m 427 779 l 427 703 l 328 703 q 261 692 288 703 q 223 664 235 682 q 210 625 210 646 q 230 580 210 597 q 293 564 250 564 q 350 576 321 564 q 399 608 379 589 q 418 644 418 627 l 431 567 q 399 522 420 545 q 345 484 378 499 q 265 469 311 469 q 140 511 184 469 q 96 623 96 553 q 122 708 96 673 q 198 761 147 743 q 327 779 250 779 l 427 779 z "},"«":{"ha":675,"x_min":59,"x_max":611,"o":"m 366 634 l 195 361 l 59 361 l 59 370 l 254 634 l 366 634 m 195 367 l 366 93 l 254 93 l 59 357 l 59 366 l 195 367 m 611 634 l 441 361 l 304 361 l 304 370 l 499 634 l 611 634 m 441 367 l 611 93 l 499 93 l 304 357 l 304 366 l 441 367 z "},"¬":{"ha":767,"x_min":86,"x_max":650,"o":"m 650 544 l 650 432 l 86 432 l 86 544 l 650 544 m 650 493 l 650 254 l 522 254 l 522 493 l 650 493 z "},"®":{"ha":1092,"x_min":60,"x_max":1023,"o":"m 559 444 l 412 444 l 411 532 l 542 532 q 597 542 572 532 q 639 569 623 551 q 654 613 654 587 q 643 666 654 646 q 605 694 632 686 q 533 703 578 703 l 443 703 l 443 215 l 345 215 l 345 790 l 533 790 q 649 771 600 790 q 725 712 699 751 q 752 615 752 673 q 735 550 752 578 q 685 501 718 522 q 605 467 652 480 q 601 463 603 467 q 596 458 598 458 q 582 448 585 451 q 575 444 578 445 q 559 444 572 444 m 552 444 l 566 511 q 711 465 672 511 q 749 349 749 419 l 749 312 q 752 264 749 287 q 761 226 754 241 l 761 215 l 660 215 q 652 265 653 233 q 651 313 651 298 l 651 348 q 629 420 651 397 q 552 444 606 444 m 140 494 q 171 327 140 404 q 258 191 202 249 q 386 101 313 133 q 542 68 459 68 q 698 101 625 68 q 825 191 770 133 q 911 327 880 249 q 943 494 943 404 q 911 662 943 585 q 825 797 880 739 q 698 887 770 854 q 542 919 625 919 q 386 887 459 919 q 258 797 313 854 q 171 662 202 739 q 140 494 140 585 m 60 494 q 98 694 60 602 q 201 856 135 787 q 355 963 268 924 q 542 1001 442 1001 q 729 963 642 1001 q 882 856 816 924 q 986 694 948 787 q 1023 494 1023 602 q 986 294 1023 387 q 882 133 948 202 q 729 24 816 63 q 542 -14 642 -14 q 355 24 442 -14 q 201 133 268 63 q 98 294 135 202 q 60 494 60 387 z "},"¯":{"ha":669,"x_min":106,"x_max":567,"o":"m 567 983 l 567 879 l 106 879 l 106 983 l 567 983 z "},"°":{"ha":531,"x_min":87,"x_max":444,"o":"m 87 820 q 112 911 87 869 q 177 977 136 952 q 267 1002 218 1002 q 355 977 315 1002 q 419 911 395 952 q 444 820 444 869 q 419 729 444 770 q 355 665 395 688 q 267 641 315 641 q 177 665 218 641 q 112 729 136 688 q 87 820 87 770 m 179 820 q 205 759 179 783 q 267 734 231 734 q 327 758 302 734 q 351 820 351 783 q 327 883 351 858 q 267 908 302 908 q 205 883 231 908 q 179 820 179 858 z "},"±":{"ha":745,"x_min":62,"x_max":684,"o":"m 684 610 l 684 477 l 62 477 l 62 610 l 684 610 m 450 866 l 450 212 l 306 212 l 306 866 l 450 866 m 661 132 l 661 1 l 83 1 l 83 132 l 661 132 z "},"²":{"ha":513,"x_min":41,"x_max":467,"o":"m 467 551 l 467 452 l 54 452 l 54 535 l 248 715 q 293 761 276 740 q 317 800 309 783 q 325 830 325 818 q 306 878 325 859 q 251 897 287 897 q 186 872 208 897 q 165 814 165 848 l 41 814 q 66 905 41 863 q 137 970 91 946 q 246 995 182 995 q 356 975 311 995 q 425 919 401 956 q 449 831 449 882 q 433 762 449 793 q 386 699 416 730 q 309 631 355 668 l 214 551 l 467 551 z "},"³":{"ha":513,"x_min":37,"x_max":462,"o":"m 183 768 l 242 768 q 290 776 271 768 q 319 800 309 785 q 329 835 329 814 q 310 878 329 859 q 248 897 292 897 q 192 883 215 897 q 170 844 170 869 l 46 844 q 73 926 46 892 q 146 977 100 960 q 245 995 191 995 q 353 978 307 995 q 426 926 400 960 q 452 842 452 892 q 428 774 452 804 q 362 727 404 744 q 262 711 319 711 l 183 711 l 183 768 m 183 683 l 183 739 l 262 739 q 370 724 326 739 q 438 680 415 709 q 462 602 462 650 q 433 517 462 552 q 356 463 405 481 q 245 445 307 445 q 147 461 195 445 q 68 514 99 478 q 37 608 37 550 l 161 608 q 186 563 161 582 q 252 544 210 544 q 317 563 296 544 q 338 612 338 583 q 327 653 338 637 q 293 676 315 669 q 242 683 271 683 l 183 683 z "},"´":{"ha":448,"x_min":75,"x_max":392,"o":"m 75 838 l 208 1042 l 392 1042 l 208 838 l 75 838 z "},"µ":{"ha":825,"x_min":100,"x_max":719,"o":"m 555 734 l 719 734 l 719 0 l 568 0 l 555 170 l 555 734 m 578 341 l 643 342 q 628 200 643 265 q 584 87 614 135 q 507 12 553 39 q 398 -14 461 -14 q 308 0 348 -14 q 239 46 268 15 q 191 127 210 77 l 170 313 l 262 313 q 273 213 262 252 q 301 154 283 174 q 344 125 319 133 q 398 117 369 117 q 487 133 452 117 q 542 180 522 150 q 570 251 562 210 q 578 341 578 292 m 100 734 l 262 734 l 262 -282 l 100 -282 l 100 734 z "},"¶":{"ha":680,"x_min":50,"x_max":578,"o":"m 578 0 l 441 0 l 441 353 l 383 353 q 201 394 275 353 q 88 507 127 435 q 50 670 50 578 q 88 833 50 761 q 201 946 127 905 q 383 987 275 987 l 578 987 l 578 0 z "},"·":{"ha":393,"x_min":98,"x_max":289,"o":"m 98 484 q 123 548 98 522 q 193 574 149 574 q 263 548 238 574 q 289 484 289 522 q 263 420 289 446 q 193 395 238 395 q 123 420 149 395 q 98 484 98 446 z "},"¸":{"ha":360,"x_min":73,"x_max":311,"o":"m 94 3 l 216 3 l 208 -35 q 278 -68 246 -42 q 311 -153 311 -94 q 296 -215 311 -187 q 254 -263 282 -243 q 184 -294 226 -283 q 87 -304 142 -304 l 83 -212 q 130 -206 109 -212 q 164 -186 151 -199 q 176 -151 176 -172 q 165 -118 176 -130 q 132 -100 155 -106 q 73 -92 109 -94 l 94 3 z "},"¹":{"ha":513,"x_min":88,"x_max":348,"o":"m 348 987 l 348 452 l 225 452 l 225 843 l 88 810 l 88 907 l 335 987 l 348 987 z "},"º":{"ha":634,"x_min":82,"x_max":548,"o":"m 82 707 l 82 762 q 111 886 82 831 q 192 971 140 940 q 315 1002 243 1002 q 439 971 387 1002 q 520 886 492 940 q 548 762 548 831 l 548 707 q 520 584 548 637 q 440 499 492 530 q 317 469 388 469 q 192 499 244 469 q 111 584 140 530 q 82 707 82 637 m 196 762 l 196 707 q 209 634 196 667 q 249 583 222 602 q 317 564 276 564 q 383 583 357 564 q 422 634 409 602 q 435 707 435 667 l 435 762 q 422 834 435 802 q 382 885 408 866 q 315 904 356 904 q 249 885 275 904 q 209 834 222 866 q 196 762 196 802 z "},"»":{"ha":675,"x_min":64,"x_max":623,"o":"m 64 94 l 234 368 l 371 367 l 371 358 l 176 94 l 64 94 m 64 635 l 176 635 l 371 371 l 371 362 l 234 361 l 64 635 m 316 94 l 486 368 l 623 367 l 623 358 l 429 94 l 316 94 m 316 635 l 429 635 l 623 371 l 623 362 l 486 361 l 316 635 z "},"¼":{"ha":1005,"x_min":64,"x_max":953,"o":"m 324 985 l 324 450 l 201 450 l 201 841 l 64 808 l 64 905 l 311 985 l 324 985 m 788 852 l 306 80 l 222 128 l 704 900 l 788 852 m 953 212 l 953 112 l 519 112 l 513 192 l 762 535 l 859 535 l 752 366 l 633 212 l 953 212 m 886 535 l 886 0 l 763 0 l 763 535 l 886 535 z "},"½":{"ha":1065,"x_min":56,"x_max":1002,"o":"m 759 852 l 277 80 l 193 128 l 675 900 l 759 852 m 316 987 l 316 452 l 193 452 l 193 843 l 56 810 l 56 907 l 303 987 l 316 987 m 1002 98 l 1002 0 l 589 0 l 589 83 l 783 262 q 828 309 811 288 q 852 348 844 330 q 860 378 860 366 q 841 426 860 407 q 786 444 822 444 q 721 420 743 444 q 700 361 700 396 l 576 361 q 601 452 576 411 q 672 518 626 494 q 781 543 718 543 q 891 523 846 543 q 960 467 936 503 q 984 378 984 430 q 968 310 984 341 q 921 247 951 278 q 844 178 890 216 l 749 98 l 1002 98 z "},"¾":{"ha":1104,"x_min":69,"x_max":1042,"o":"m 888 852 l 406 80 l 321 128 l 804 900 l 888 852 m 1042 212 l 1042 112 l 608 112 l 602 192 l 850 535 l 947 535 l 841 366 l 722 212 l 1042 212 m 975 535 l 975 0 l 852 0 l 852 535 l 975 535 m 215 768 l 274 768 q 322 776 303 768 q 351 800 341 785 q 361 835 361 814 q 342 878 361 859 q 280 897 323 897 q 224 883 247 897 q 201 844 201 869 l 78 844 q 105 926 78 892 q 178 977 132 960 q 277 995 223 995 q 385 978 338 995 q 458 926 432 960 q 484 842 484 892 q 460 774 484 804 q 394 727 436 744 q 294 711 351 711 l 215 711 l 215 768 m 215 683 l 215 739 l 294 739 q 402 724 357 739 q 470 680 447 709 q 494 602 494 650 q 465 517 494 552 q 388 463 437 481 q 277 445 338 445 q 179 461 227 445 q 100 514 131 478 q 69 608 69 550 l 193 608 q 218 563 193 582 q 283 544 242 544 q 349 563 328 544 q 370 612 370 583 q 358 653 370 637 q 325 676 347 669 q 274 683 303 683 l 215 683 z "},"¿":{"ha":676,"x_min":47,"x_max":634,"o":"m 277 449 l 428 449 q 418 343 428 386 q 386 267 408 301 q 322 192 363 233 q 267 135 292 162 q 227 76 242 108 q 212 3 212 45 q 227 -69 212 -40 q 270 -113 241 -98 q 338 -127 298 -127 q 403 -114 373 -127 q 451 -71 433 -100 q 471 1 470 -43 l 634 1 q 594 -143 633 -85 q 489 -232 555 -202 q 340 -262 422 -262 q 182 -231 248 -262 q 82 -142 117 -200 q 47 0 47 -83 q 72 111 47 61 q 135 203 96 160 q 216 286 173 245 q 254 334 241 309 q 272 387 267 358 q 277 449 277 415 m 444 661 q 419 598 444 624 q 351 573 395 573 q 282 598 307 573 q 257 661 257 624 q 282 722 257 697 q 351 747 307 747 q 419 722 395 747 q 444 661 444 697 z "},"Æ":{"ha":1301,"x_min":-3,"x_max":1268,"o":"m 667 884 l 192 0 l -3 0 l 559 987 l 663 987 l 667 884 m 749 376 l 749 233 l 243 233 l 243 376 l 749 376 m 1268 131 l 1268 0 l 771 0 l 771 131 l 1268 131 m 787 987 l 829 0 l 665 0 l 624 987 l 787 987 m 1171 576 l 1171 445 l 744 445 l 744 576 l 1171 576 m 1226 987 l 1226 857 l 730 857 l 730 987 l 1226 987 z "},"×":{"ha":739,"x_min":52,"x_max":680,"o":"m 151 138 l 52 236 l 580 775 l 679 676 l 151 138 m 581 138 l 53 676 l 152 775 l 680 236 l 581 138 z "},"Ø":{"ha":956,"x_min":71,"x_max":891,"o":"m 879 1029 l 218 -64 l 105 -64 l 767 1029 l 879 1029 m 891 521 l 891 467 q 862 266 891 355 q 779 115 833 177 q 649 19 724 52 q 482 -14 574 -14 q 347 8 410 -14 q 233 70 284 29 q 146 169 182 110 q 91 302 110 227 q 71 467 71 377 l 71 521 q 101 721 71 633 q 185 872 131 810 q 315 968 240 935 q 481 1001 390 1001 q 617 980 554 1001 q 731 918 680 958 q 817 819 781 877 q 872 685 852 760 q 891 521 891 610 m 720 467 l 720 522 q 710 642 720 588 q 680 737 700 696 q 631 806 660 778 q 564 848 602 833 q 481 862 526 862 q 380 840 425 862 q 306 775 336 818 q 258 668 275 732 q 242 522 242 605 l 242 467 q 253 346 242 400 q 283 251 263 292 q 333 181 304 210 q 400 139 363 153 q 482 125 437 125 q 583 147 539 125 q 658 213 627 169 q 704 320 688 256 q 720 467 720 384 z "},"Þ":{"ha":835,"x_min":101,"x_max":782,"o":"m 101 987 l 264 987 l 264 0 l 101 0 l 101 987 m 166 798 l 433 798 q 624 759 547 798 q 742 654 701 721 q 782 500 782 587 q 742 348 782 415 q 624 242 701 281 q 433 204 547 204 l 237 204 l 237 334 l 433 334 q 540 357 500 334 q 599 419 581 381 q 618 499 618 457 q 599 581 618 543 q 540 644 581 619 q 433 668 500 668 l 264 668 l 166 798 z "},"ß":{"ha":854,"x_min":94,"x_max":802,"o":"m 256 749 l 256 0 l 94 0 l 94 751 q 115 884 94 827 q 175 979 136 941 q 268 1036 214 1017 q 390 1056 322 1056 q 528 1029 467 1056 q 626 950 589 1003 q 662 817 662 897 q 650 731 662 764 q 623 673 638 698 q 595 623 607 648 q 583 560 583 597 q 605 500 583 528 q 660 446 627 473 q 725 388 692 419 q 780 318 758 357 q 802 228 802 279 q 767 95 802 149 q 669 14 732 41 q 517 -14 605 -14 q 444 -7 482 -14 q 373 8 405 -1 q 322 30 340 18 l 355 159 q 420 131 378 146 q 510 116 462 116 q 582 130 553 116 q 625 168 610 144 q 639 223 639 192 q 617 287 639 259 q 562 340 595 315 q 497 396 530 366 q 442 464 464 425 q 420 556 420 503 q 432 630 420 600 q 461 685 445 660 q 490 739 477 711 q 503 806 503 767 q 487 871 503 844 q 446 912 472 898 q 385 926 419 926 q 316 908 345 926 q 272 851 288 890 q 256 749 256 812 z "},"æ":{"ha":1173,"x_min":49,"x_max":1133,"o":"m 500 124 l 500 484 q 486 555 500 526 q 443 601 471 585 q 375 617 415 617 q 300 603 332 617 q 251 564 268 589 q 234 511 234 540 l 71 523 q 93 612 71 572 q 155 684 115 653 q 251 731 195 714 q 376 747 307 747 q 525 718 462 747 q 623 629 588 688 q 659 482 659 570 l 659 148 l 500 124 m 528 436 l 529 325 l 372 325 q 284 309 320 325 q 231 266 249 292 q 213 208 213 239 q 227 157 213 180 q 268 121 240 134 q 338 109 296 109 q 405 121 371 109 q 467 152 438 133 q 512 192 495 171 q 530 233 530 214 l 610 132 q 553 65 592 99 q 453 8 514 31 q 307 -14 392 -14 q 166 14 224 -14 q 79 92 109 41 q 49 211 49 143 q 70 306 49 264 q 131 377 90 348 q 232 421 172 406 q 371 436 292 436 l 528 436 m 850 -14 q 702 12 766 -14 q 593 87 637 39 q 526 200 549 135 q 504 344 504 266 l 504 382 q 526 530 504 463 q 591 646 549 597 q 694 721 634 694 q 829 747 754 748 q 958 725 901 747 q 1054 659 1015 702 q 1113 554 1093 615 q 1133 417 1133 493 l 1133 322 l 578 322 l 578 435 l 970 435 l 970 455 q 956 538 970 501 q 911 596 942 574 q 829 617 880 617 q 754 599 785 617 q 702 549 722 581 q 671 475 681 517 q 661 382 661 432 l 661 344 q 672 255 661 296 q 708 182 684 214 q 770 134 732 151 q 862 116 808 116 q 984 137 937 116 q 1068 178 1031 157 l 1116 69 q 1060 34 1097 54 q 970 0 1023 15 q 850 -14 918 -14 z "},"ð":{"ha":806,"x_min":71,"x_max":739,"o":"m 166 942 l 217 1072 q 429 991 333 1046 q 594 855 524 937 q 702 668 664 773 q 739 435 739 562 l 739 377 q 714 219 739 291 q 644 95 689 147 q 537 15 599 43 q 403 -14 476 -14 q 268 12 329 -14 q 162 83 207 37 q 94 188 118 128 q 71 317 71 248 q 92 457 71 395 q 154 565 113 520 q 250 635 194 610 q 375 659 306 659 q 513 624 452 659 q 612 532 575 589 q 652 407 649 475 l 593 408 q 582 450 593 428 q 548 491 570 472 q 492 522 526 510 q 412 534 458 534 q 336 519 369 534 q 280 476 302 504 q 245 408 257 448 q 234 317 234 368 q 245 243 234 279 q 279 178 257 207 q 333 133 301 150 q 406 117 365 117 q 478 136 446 117 q 531 189 509 155 q 564 268 553 222 q 575 368 575 314 l 575 436 q 542 634 575 549 q 451 781 509 720 q 321 881 394 842 q 166 942 248 921 m 670 954 l 296 707 l 245 780 l 620 1025 l 670 954 z "},"÷":{"ha":793,"x_min":45,"x_max":734,"o":"m 734 537 l 734 397 l 45 397 l 45 537 l 734 537 m 296 742 q 322 805 296 780 q 392 831 347 831 q 462 805 437 831 q 488 742 488 780 q 462 679 488 704 q 392 654 437 654 q 322 679 347 654 q 296 742 296 704 m 296 190 q 322 253 296 228 q 392 279 347 279 q 462 253 437 279 q 488 190 488 228 q 462 127 488 153 q 392 102 437 102 q 322 127 347 102 q 296 190 296 153 z "},"ø":{"ha":785,"x_min":53,"x_max":735,"o":"m 670 823 l 220 -94 l 123 -94 l 573 823 l 670 823 m 53 359 l 53 374 q 76 522 53 454 q 143 641 99 590 q 250 719 186 691 q 393 747 313 747 q 537 719 474 747 q 645 641 601 691 q 712 522 689 590 q 735 374 735 454 l 735 359 q 712 212 735 279 q 645 93 689 144 q 538 15 601 43 q 395 -14 475 -14 q 251 15 314 -14 q 143 93 187 43 q 76 212 99 144 q 53 359 53 279 m 216 374 l 216 359 q 227 265 216 309 q 258 188 237 221 q 314 136 280 155 q 395 117 348 117 q 474 136 440 117 q 529 188 507 155 q 561 265 551 221 q 572 359 572 309 l 572 374 q 561 467 572 423 q 529 545 551 511 q 473 598 507 578 q 393 617 439 617 q 314 598 347 617 q 258 545 280 578 q 227 467 237 511 q 216 374 216 423 z "},"þ":{"ha":793,"x_min":87,"x_max":730,"o":"m 252 1042 l 252 -282 l 87 -282 l 87 1042 l 252 1042 m 730 374 l 730 359 q 711 211 730 279 q 656 93 692 143 q 567 14 620 42 q 445 -14 514 -14 q 325 12 376 -14 q 239 84 274 37 q 182 194 203 131 q 152 334 161 258 l 152 389 q 182 535 161 469 q 239 648 203 601 q 325 722 274 696 q 443 747 375 747 q 566 721 513 747 q 656 645 620 694 q 711 527 692 595 q 730 374 730 458 m 566 359 l 566 374 q 557 468 566 425 q 527 545 547 512 q 475 597 507 578 q 399 616 444 616 q 325 601 356 616 q 273 561 294 587 q 240 501 252 535 q 224 427 228 467 l 224 295 q 242 225 229 258 q 275 169 254 193 q 327 131 296 144 q 401 117 357 117 q 476 136 445 117 q 527 188 507 155 q 557 266 547 222 q 566 359 566 310 z "},"đ":{"ha":854,"x_min":54,"x_max":812,"o":"m 532 152 l 532 1042 l 696 1042 l 696 0 l 547 0 l 532 152 m 54 359 l 54 373 q 74 525 54 456 q 131 644 94 594 q 222 721 168 694 q 342 747 275 747 q 459 722 409 747 q 545 648 509 696 q 601 534 580 600 q 631 387 622 468 l 631 342 q 601 198 622 263 q 545 85 580 133 q 459 12 509 38 q 341 -14 408 -14 q 221 14 275 -14 q 131 92 168 42 q 74 211 94 142 q 54 359 54 279 m 218 373 l 218 359 q 227 265 218 309 q 256 189 236 222 q 307 137 275 156 q 382 119 338 119 q 474 143 438 119 q 531 209 510 168 q 559 302 551 251 l 559 425 q 542 500 555 465 q 509 561 530 534 q 457 601 488 587 q 384 616 426 616 q 308 597 339 616 q 257 545 277 578 q 227 467 237 511 q 218 373 218 423 m 812 945 l 812 831 l 356 831 l 356 945 l 812 945 z "},"Ħ":{"ha":987,"x_min":21,"x_max":974,"o":"m 974 810 l 974 703 l 21 703 l 21 810 l 974 810 m 756 575 l 756 440 l 232 440 l 232 575 l 756 575 m 274 987 l 274 0 l 104 0 l 104 987 l 274 987 m 888 987 l 888 0 l 718 0 l 718 987 l 888 987 z "},"ı":{"ha":363,"x_min":98,"x_max":261,"o":"m 261 734 l 261 0 l 98 0 l 98 734 l 261 734 z "},"ĸ":{"ha":799,"x_min":96,"x_max":768,"o":"m 259 734 l 259 0 l 96 0 l 96 734 l 259 734 m 751 734 l 403 292 l 221 292 l 200 440 l 321 440 l 547 734 l 751 734 m 560 0 l 317 320 l 446 413 l 768 0 l 560 0 z "},"Ł":{"ha":762,"x_min":22,"x_max":731,"o":"m 444 639 l 444 541 l 22 414 l 22 512 l 444 639 m 731 135 l 731 0 l 235 0 l 235 135 l 731 135 m 282 987 l 282 0 l 113 0 l 113 987 l 282 987 z "},"ł":{"ha":403,"x_min":22,"x_max":381,"o":"m 381 640 l 381 543 l 22 416 l 22 513 l 381 640 m 279 1042 l 279 0 l 116 0 l 116 1042 l 279 1042 z "},"Ŋ":{"ha":970,"x_min":98,"x_max":876,"o":"m 98 987 l 268 987 l 268 0 l 98 0 l 98 987 m 149 908 l 268 987 l 826 79 l 706 0 l 149 908 m 706 987 l 876 987 l 876 -38 q 847 -179 876 -121 q 763 -267 817 -237 q 631 -296 708 -296 q 587 -294 608 -296 q 541 -285 566 -292 l 551 -153 q 584 -159 565 -157 q 618 -161 602 -161 q 666 -146 646 -161 q 696 -105 686 -132 q 706 -38 706 -77 l 706 987 z "},"ŋ":{"ha":785,"x_min":85,"x_max":699,"o":"m 248 577 l 248 0 l 85 0 l 85 734 l 235 734 l 248 577 m 209 391 l 181 390 q 200 533 181 467 q 256 646 220 598 q 342 721 292 694 q 457 747 393 747 q 556 731 512 747 q 632 680 601 715 q 681 589 664 645 q 699 455 699 533 l 699 -42 q 669 -181 699 -124 q 587 -267 640 -238 q 458 -296 533 -296 q 413 -294 434 -296 q 369 -285 392 -292 l 378 -154 q 411 -160 391 -158 q 446 -162 431 -162 q 494 -149 475 -162 q 524 -108 513 -135 q 534 -42 534 -81 l 534 454 q 526 531 534 499 q 499 581 517 562 q 457 607 482 599 q 401 616 433 616 q 315 598 351 616 q 255 550 279 581 q 220 479 232 519 q 209 391 209 438 z "},"Œ":{"ha":1335,"x_min":68,"x_max":1251,"o":"m 463 1002 q 565 997 515 1002 q 661 987 616 993 l 661 853 q 566 866 616 861 q 463 871 516 871 q 367 854 410 871 q 294 802 324 837 q 247 717 263 768 q 231 598 231 666 l 231 391 q 248 272 231 323 q 294 186 264 220 q 368 134 325 151 q 464 116 411 116 q 567 121 517 116 q 661 134 617 126 l 661 0 q 566 -9 616 -5 q 464 -14 516 -14 q 303 15 376 -14 q 178 99 231 45 q 97 227 125 153 q 68 391 68 301 l 68 597 q 97 761 68 686 q 177 889 125 835 q 302 972 230 943 q 463 1002 374 1002 m 1251 135 l 1251 0 l 726 0 l 726 135 l 1251 135 m 774 987 l 774 0 l 604 0 l 604 987 l 774 987 m 1182 575 l 1182 442 l 726 442 l 726 575 l 1182 575 m 1247 987 l 1247 852 l 726 852 l 726 987 l 1247 987 z "},"œ":{"ha":1257,"x_min":60,"x_max":1208,"o":"m 920 -14 q 779 13 842 -14 q 672 90 716 41 q 603 204 627 138 q 579 349 579 271 l 579 377 q 603 525 579 458 q 671 643 627 593 q 773 721 714 693 q 902 747 832 748 q 1035 724 978 747 q 1131 656 1093 700 q 1189 552 1169 612 q 1208 418 1208 492 l 1208 322 l 659 322 l 659 439 l 1047 439 l 1047 457 q 1032 538 1047 502 q 985 596 1017 574 q 902 617 953 617 q 834 598 864 617 q 784 547 804 580 q 753 470 764 513 q 743 377 743 427 l 743 349 q 755 259 743 301 q 790 185 766 217 q 849 134 814 153 q 932 116 884 116 q 1053 134 1006 116 q 1139 179 1101 153 l 1190 74 q 1085 14 1153 41 q 920 -14 1018 -14 m 60 359 l 60 374 q 83 522 60 454 q 149 641 106 590 q 255 719 193 691 q 397 747 317 747 q 542 719 479 747 q 648 641 604 691 q 713 522 691 590 q 736 374 736 454 l 736 359 q 713 211 736 279 q 648 93 691 143 q 542 14 605 42 q 399 -14 479 -14 q 255 14 318 -14 q 149 93 193 42 q 83 211 106 143 q 60 359 60 279 m 224 374 l 224 359 q 234 265 224 309 q 265 188 244 221 q 319 135 286 154 q 399 116 352 116 q 478 135 445 116 q 532 188 511 154 q 563 265 553 221 q 572 359 572 309 l 572 374 q 563 467 572 423 q 532 545 553 511 q 477 598 511 578 q 397 617 444 617 q 318 598 351 617 q 265 545 286 578 q 234 467 244 511 q 224 374 224 423 z "},"ſ":{"ha":352,"x_min":93,"x_max":448,"o":"m 256 0 l 93 0 l 93 804 q 123 942 93 886 q 210 1027 153 998 q 344 1056 266 1056 q 396 1052 371 1056 q 448 1042 421 1048 l 431 919 q 403 924 418 922 q 367 926 388 926 q 307 911 331 926 q 269 870 282 897 q 256 804 256 843 l 256 0 z "},"Ə":{"ha":964,"x_min":58,"x_max":892,"o":"m 475 -14 q 295 18 373 -14 q 164 110 216 50 q 84 254 111 170 q 58 443 58 338 l 58 540 l 774 540 l 774 408 l 227 408 l 227 385 q 240 285 227 332 q 283 203 254 238 q 359 148 312 168 q 475 128 407 128 q 581 153 535 128 q 659 223 627 178 q 706 326 690 267 q 722 451 722 385 l 722 534 q 706 660 722 602 q 655 763 690 719 q 565 833 621 808 q 428 859 509 859 q 275 842 338 859 q 171 808 211 825 l 138 940 q 196 964 155 949 q 298 990 237 979 q 434 1001 359 1001 q 631 967 545 1001 q 774 870 716 932 q 862 723 832 808 q 892 534 892 637 l 892 451 q 860 263 892 349 q 771 116 827 178 q 638 20 714 54 q 475 -14 563 -14 z "},"ƒ":{"ha":488,"x_min":-23,"x_max":491,"o":"m 440 734 l 440 614 l 300 614 l 300 -47 q 272 -183 300 -127 q 191 -268 243 -239 q 65 -296 138 -296 q 20 -294 41 -296 q -23 -285 0 -292 l -13 -158 q 19 -164 -3 -161 q 51 -166 40 -166 q 99 -152 80 -166 q 127 -112 118 -138 q 136 -47 136 -85 l 136 614 l 24 614 l 24 734 l 136 734 l 136 804 q 166 942 136 886 q 253 1027 197 998 q 388 1056 309 1056 q 440 1052 414 1056 q 491 1042 465 1048 l 475 917 q 445 922 462 920 q 408 924 429 924 q 348 910 372 924 q 312 870 324 897 q 300 804 300 843 l 300 734 l 440 734 z "},"Ơ":{"ha":966,"x_min":62,"x_max":987,"o":"m 864 1071 l 987 1071 q 959 915 987 979 q 875 817 932 850 q 732 783 819 783 l 732 882 q 811 904 783 882 q 852 969 840 927 q 864 1071 864 1012 m 882 521 l 882 467 q 852 266 882 355 q 769 115 823 177 q 640 19 715 52 q 473 -14 564 -14 q 338 8 401 -14 q 224 70 275 29 q 137 169 173 110 q 81 302 100 227 q 62 467 62 377 l 62 521 q 92 721 62 633 q 176 872 121 810 q 306 968 231 935 q 471 1001 381 1001 q 608 980 545 1001 q 722 918 671 958 q 808 819 772 877 q 863 685 844 760 q 882 521 882 610 m 711 467 l 711 522 q 701 642 711 588 q 670 737 690 696 q 621 806 650 778 q 554 848 592 833 q 471 862 517 862 q 372 840 416 862 q 296 775 328 818 q 249 668 265 732 q 233 522 233 605 l 233 467 q 243 346 233 400 q 274 251 254 292 q 324 181 294 210 q 391 139 353 153 q 473 125 429 125 q 574 147 530 125 q 649 213 618 169 q 695 320 680 256 q 711 467 711 384 z "},"ơ":{"ha":801,"x_min":52,"x_max":819,"o":"m 709 808 l 819 808 q 796 674 819 730 q 723 588 773 618 q 589 558 672 558 l 589 639 q 665 660 640 639 q 700 719 691 681 q 709 808 709 757 m 52 359 l 52 374 q 75 522 52 454 q 142 641 98 590 q 249 719 186 691 q 393 747 313 747 q 537 719 473 747 q 645 641 601 691 q 711 522 688 590 q 734 374 734 454 l 734 359 q 711 212 734 279 q 645 93 688 144 q 538 15 601 43 q 394 -14 475 -14 q 250 15 313 -14 q 142 93 186 43 q 75 212 98 144 q 52 359 52 279 m 216 374 l 216 359 q 226 265 216 309 q 258 188 236 221 q 314 136 280 155 q 394 117 347 117 q 473 136 440 117 q 528 188 507 155 q 560 265 549 221 q 571 359 571 309 l 571 374 q 561 467 571 423 q 528 545 550 511 q 473 598 507 578 q 393 617 439 617 q 313 598 347 617 q 258 545 280 578 q 226 467 236 511 q 216 374 216 423 z "},"Ư":{"ha":979,"x_min":87,"x_max":1081,"o":"m 962 1043 l 1081 1043 q 1054 877 1081 945 q 965 774 1027 809 q 795 739 903 739 l 795 838 q 903 861 867 838 q 950 931 939 885 q 962 1043 962 977 m 654 987 l 824 987 l 824 328 q 775 139 824 215 q 643 25 726 63 q 456 -14 559 -14 q 266 25 349 -14 q 135 139 182 63 q 87 328 87 215 l 87 987 l 256 987 l 256 328 q 281 211 256 256 q 350 143 305 165 q 456 121 395 121 q 561 143 517 121 q 630 211 606 165 q 654 328 654 256 l 654 987 z "},"ư":{"ha":850,"x_min":81,"x_max":892,"o":"m 785 795 l 892 795 q 870 663 892 717 q 795 583 848 610 q 648 555 742 555 l 648 640 q 741 657 712 640 q 778 708 770 673 q 785 795 785 742 m 526 173 l 526 734 l 690 734 l 690 0 l 535 0 l 526 173 m 549 326 l 604 327 q 587 191 604 253 q 537 83 571 129 q 450 12 503 37 q 323 -14 397 -14 q 225 2 270 -14 q 148 50 180 18 q 98 135 116 83 q 81 260 81 187 l 81 734 l 244 734 l 244 258 q 254 192 244 218 q 279 149 263 165 q 317 125 296 132 q 363 119 339 119 q 474 146 433 119 q 531 220 514 174 q 549 326 549 267 z "},"ȷ":{"ha":372,"x_min":-56,"x_max":273,"o":"m 109 734 l 273 734 l 273 -42 q 244 -181 273 -124 q 161 -267 215 -238 q 33 -296 107 -296 q -12 -294 8 -296 q -56 -285 -33 -292 l -46 -158 q -14 -164 -33 -162 q 20 -166 6 -166 q 68 -152 49 -166 q 99 -109 88 -137 q 109 -42 109 -81 l 109 734 z "},"ə":{"ha":733,"x_min":59,"x_max":688,"o":"m 347 749 q 489 721 426 749 q 596 645 551 694 q 664 530 640 596 q 688 386 688 464 l 688 357 q 664 210 688 277 q 597 92 640 142 q 494 14 553 41 q 366 -13 435 -14 q 232 11 290 -13 q 137 78 175 35 q 79 182 98 122 q 59 316 59 242 l 59 412 l 609 412 l 609 294 l 220 294 l 220 277 q 236 197 220 233 q 283 138 251 160 q 366 117 315 117 q 433 136 404 117 q 483 188 463 155 q 514 264 503 220 q 524 357 524 308 l 524 386 q 512 475 524 433 q 477 550 500 517 q 418 600 454 582 q 336 618 383 618 q 215 600 262 618 q 129 555 168 582 l 77 661 q 183 721 115 693 q 347 749 250 749 z "},"ˆ":{"ha":671,"x_min":98,"x_max":567,"o":"m 379 1042 l 567 854 l 567 847 l 435 847 l 331 954 l 227 847 l 98 847 l 98 856 l 283 1042 l 379 1042 z "},"ˇ":{"ha":636,"x_min":75,"x_max":557,"o":"m 214 1042 l 315 935 l 416 1042 l 557 1042 l 557 1034 l 367 846 l 264 846 l 75 1035 l 75 1042 l 214 1042 z "},"ˉ":{"ha":669,"x_min":106,"x_max":567,"o":"m 567 983 l 567 879 l 106 879 l 106 983 l 567 983 z "},"˘":{"ha":606,"x_min":79,"x_max":520,"o":"m 399 1025 l 520 1025 q 493 925 520 968 q 417 858 467 882 q 300 833 368 833 q 139 887 198 833 q 79 1025 79 940 l 201 1025 q 223 958 201 987 q 300 929 246 929 q 376 958 354 929 q 399 1025 399 987 z "},"˙":{"ha":354,"x_min":87,"x_max":264,"o":"m 87 930 q 111 989 87 965 q 176 1013 134 1013 q 241 989 217 1013 q 264 930 264 965 q 241 872 264 895 q 176 849 217 849 q 111 872 134 849 q 87 930 87 895 z "},"˚":{"ha":463,"x_min":81,"x_max":378,"o":"m 81 927 q 101 997 81 966 q 154 1048 121 1029 q 230 1067 187 1067 q 335 1026 293 1067 q 378 927 378 985 q 358 857 378 888 q 306 808 339 826 q 230 790 272 790 q 124 829 166 790 q 81 927 81 869 m 154 927 q 175 874 154 897 q 230 852 196 852 q 284 874 264 852 q 305 927 305 897 q 284 981 305 958 q 230 1004 264 1004 q 175 981 196 1004 q 154 927 154 958 z "},"˛":{"ha":399,"x_min":28,"x_max":281,"o":"m 189 39 l 267 0 q 210 -41 235 -20 q 171 -85 185 -62 q 157 -136 157 -109 q 168 -169 157 -156 q 205 -182 179 -182 q 241 -177 226 -182 q 266 -166 256 -171 l 281 -260 q 238 -280 264 -271 q 171 -290 212 -290 q 70 -256 111 -290 q 28 -155 28 -221 q 43 -85 28 -119 q 94 -19 59 -51 q 189 39 130 12 z "},"˜":{"ha":661,"x_min":81,"x_max":577,"o":"m 477 1033 l 577 1025 q 557 937 577 976 q 504 876 538 898 q 427 853 470 853 q 371 863 394 853 q 329 884 348 872 q 290 906 310 897 q 243 915 270 915 q 199 896 217 915 q 181 845 181 877 l 81 850 q 100 939 81 899 q 154 1001 120 978 q 231 1024 188 1024 q 281 1015 258 1024 q 325 994 304 1006 q 367 972 345 981 q 415 962 389 962 q 459 982 441 962 q 477 1033 477 1002 z "},"˝":{"ha":548,"x_min":51,"x_max":581,"o":"m 268 836 l 422 1041 l 581 1041 l 399 836 l 268 836 m 51 836 l 173 1041 l 328 1041 l 175 836 l 51 836 z "},"˳":{"ha":425,"x_min":93,"x_max":336,"o":"m 93 -160 q 129 -78 93 -111 q 216 -45 165 -45 q 301 -78 266 -45 q 336 -160 336 -111 q 301 -241 336 -210 q 216 -273 266 -273 q 129 -241 165 -273 q 93 -160 93 -210 m 161 -160 q 177 -198 161 -182 q 216 -214 193 -214 q 253 -198 238 -214 q 268 -160 268 -183 q 253 -121 268 -136 q 216 -105 238 -105 q 177 -121 193 -105 q 161 -160 161 -136 z "},"̀":{"ha":0,"x_min":-595,"x_max":-277,"o":"m -410 1042 l -277 838 l -414 838 l -595 1042 l -410 1042 z "},"́":{"ha":0,"x_min":-454,"x_max":-138,"o":"m -454 838 l -322 1042 l -138 1042 l -322 838 l -454 838 z "},"̃":{"ha":0,"x_min":-616,"x_max":-119,"o":"m -219 1033 l -119 1025 q -139 937 -119 976 q -193 876 -159 898 q -269 853 -227 853 q -326 863 -302 853 q -368 884 -349 872 q -407 906 -387 897 q -454 915 -427 915 q -497 896 -479 915 q -515 845 -515 877 l -616 850 q -596 939 -616 899 q -543 1001 -576 978 q -466 1024 -509 1024 q -415 1015 -438 1024 q -372 994 -393 1006 q -330 972 -351 981 q -281 962 -308 962 q -237 982 -256 962 q -219 1033 -219 1002 z "},"̉":{"ha":0,"x_min":-481,"x_max":-242,"o":"m -346 850 l -467 850 l -473 947 q -418 955 -439 949 q -387 969 -397 960 q -377 996 -377 979 q -385 1019 -377 1009 q -407 1034 -393 1028 q -440 1042 -421 1040 q -481 1044 -459 1044 l -477 1126 q -375 1117 -419 1126 q -302 1091 -332 1108 q -257 1050 -273 1074 q -242 997 -242 1027 q -275 925 -242 948 q -346 897 -307 902 l -346 850 z "},"̏":{"ha":0,"x_min":-689,"x_max":-141,"o":"m -347 849 l -488 849 l -689 1029 l -515 1029 l -347 849 m -141 849 l -273 849 l -440 1029 l -273 1029 l -141 849 z "},"̣":{"ha":0,"x_min":-500,"x_max":-314,"o":"m -500 -163 q -476 -104 -500 -127 q -408 -80 -451 -80 q -339 -104 -364 -80 q -314 -163 -314 -127 q -339 -221 -314 -197 q -408 -245 -364 -245 q -476 -221 -451 -245 q -500 -163 -500 -197 z "},"΄":{"ha":420,"x_min":139,"x_max":334,"o":"m 139 854 l 183 1085 l 334 1085 l 237 854 l 139 854 z "},"΅":{"ha":734,"x_min":75,"x_max":645,"o":"m 306 960 l 336 1161 l 490 1161 l 401 960 l 306 960 m 75 928 q 97 984 75 962 q 159 1007 120 1007 q 220 984 197 1007 q 243 928 243 962 q 220 873 243 896 q 159 850 197 850 q 97 873 120 850 q 75 928 75 896 m 475 928 q 498 984 475 961 q 560 1006 522 1006 q 622 984 599 1006 q 645 928 645 961 q 622 872 645 895 q 560 850 599 850 q 498 872 522 850 q 475 928 475 895 z "},"·":{"ha":393,"x_min":98,"x_max":289,"o":"m 98 484 q 123 548 98 522 q 193 574 149 574 q 263 548 238 574 q 289 484 289 522 q 263 420 289 446 q 193 395 238 395 q 123 420 149 395 q 98 484 98 446 z "},"Γ":{"ha":773,"x_min":104,"x_max":732,"o":"m 732 987 l 732 852 l 273 852 l 273 0 l 104 0 l 104 987 l 732 987 z "},"Δ":{"ha":1000,"x_min":18,"x_max":981,"o":"m 548 900 l 195 0 l 18 0 l 421 987 l 519 987 l 548 900 m 803 0 l 460 905 l 490 987 l 589 987 l 981 0 l 803 0 m 829 135 l 829 0 l 153 0 l 153 135 l 829 135 z "},"∆":{"ha":1000,"x_min":18,"x_max":981,"o":"m 548 900 l 195 0 l 18 0 l 421 987 l 519 987 l 548 900 m 803 0 l 460 905 l 490 987 l 589 987 l 981 0 l 803 0 m 829 135 l 829 0 l 153 0 l 153 135 l 829 135 z "},"Θ":{"ha":951,"x_min":62,"x_max":882,"o":"m 629 559 l 629 430 l 329 430 l 329 559 l 629 559 m 882 521 l 882 467 q 853 266 882 355 q 770 115 824 177 q 640 19 715 52 q 473 -14 565 -14 q 338 8 401 -14 q 224 70 275 29 q 137 169 174 110 q 82 302 101 227 q 62 467 62 377 l 62 521 q 92 721 62 633 q 177 872 122 810 q 306 968 231 935 q 472 1001 381 1001 q 608 980 545 1001 q 722 918 671 958 q 808 819 772 877 q 863 685 844 760 q 882 521 882 610 m 711 467 l 711 522 q 701 642 711 588 q 671 737 691 696 q 622 806 650 778 q 555 848 593 833 q 472 862 517 862 q 372 840 416 862 q 297 775 328 818 q 250 668 266 732 q 233 522 233 605 l 233 467 q 244 346 233 400 q 275 251 254 292 q 325 181 295 210 q 391 139 354 153 q 473 125 429 125 q 574 147 530 125 q 649 213 618 169 q 695 320 680 256 q 711 467 711 384 z "},"Λ":{"ha":904,"x_min":22,"x_max":878,"o":"m 477 835 l 205 0 l 22 0 l 366 987 l 485 987 l 477 835 m 696 0 l 422 838 l 415 987 l 534 987 l 878 0 l 696 0 z "},"Ξ":{"ha":789,"x_min":72,"x_max":726,"o":"m 72 0 l 72 135 l 726 135 l 726 0 l 72 0 m 142 439 l 142 570 l 652 570 l 652 439 l 142 439 m 82 852 l 82 987 l 703 987 l 703 852 l 82 852 z "},"Π":{"ha":986,"x_min":104,"x_max":882,"o":"m 882 987 l 882 0 l 712 0 l 712 852 l 273 852 l 273 0 l 104 0 l 104 987 l 882 987 z "},"Σ":{"ha":789,"x_min":48,"x_max":745,"o":"m 745 135 l 745 0 l 113 0 l 113 135 l 745 135 m 722 987 l 722 852 l 115 852 l 115 987 l 722 987 m 539 504 l 539 490 l 171 0 l 48 0 l 48 99 l 359 497 l 48 888 l 48 987 l 171 987 l 539 504 z "},"Φ":{"ha":1037,"x_min":52,"x_max":991,"o":"m 590 116 l 453 116 q 289 142 363 116 q 162 218 216 169 q 80 336 109 267 q 52 488 52 405 q 102 687 52 602 q 242 821 153 773 q 451 868 332 868 l 591 868 q 754 841 680 868 q 881 764 827 814 q 963 644 934 713 q 991 490 991 575 q 941 294 991 378 q 801 163 891 210 q 590 116 711 116 m 453 258 l 591 258 q 719 285 667 258 q 797 365 770 313 q 824 490 824 416 q 809 590 824 546 q 764 664 793 633 q 691 710 734 694 q 593 726 648 726 l 451 726 q 325 698 377 726 q 246 617 273 670 q 218 488 218 564 q 234 391 218 434 q 279 318 249 348 q 353 273 309 288 q 453 258 397 258 m 608 987 l 608 0 l 437 0 l 437 987 l 608 987 z "},"Ψ":{"ha":988,"x_min":47,"x_max":936,"o":"m 765 987 l 936 987 l 936 652 q 883 435 936 524 q 735 299 830 346 q 517 253 641 253 l 459 253 q 293 279 368 253 q 162 357 217 306 q 78 482 108 408 q 47 652 47 557 l 47 987 l 218 987 l 218 652 q 235 538 218 587 q 285 455 252 488 q 363 405 317 422 q 465 388 408 388 l 522 388 q 654 418 600 388 q 736 507 708 448 q 765 652 765 566 l 765 987 m 576 987 l 576 0 l 407 0 l 407 987 l 576 987 z "},"Ω":{"ha":928,"x_min":73,"x_max":843,"o":"m 660 509 l 660 578 q 646 703 660 649 q 606 792 632 756 q 542 847 579 829 q 457 865 504 865 q 374 847 411 865 q 311 792 337 829 q 271 703 285 756 q 257 578 257 649 l 257 509 q 269 359 257 424 q 302 250 281 295 q 355 177 324 204 q 421 139 385 149 l 421 42 q 290 91 352 51 q 179 196 227 132 q 102 340 130 260 q 73 509 73 420 l 73 577 q 101 748 73 671 q 180 883 129 826 q 301 970 231 939 q 457 1001 372 1001 q 614 970 543 1001 q 736 883 685 939 q 815 748 787 826 q 843 577 843 671 l 843 509 q 815 341 843 421 q 739 196 787 260 q 629 92 691 132 q 500 42 568 52 l 500 139 q 565 177 535 150 q 615 250 594 205 q 648 360 636 296 q 660 509 660 425 m 500 0 l 500 136 l 835 136 l 835 0 l 500 0 m 81 0 l 81 136 l 421 136 l 421 0 l 81 0 z "},"Ω":{"ha":928,"x_min":73,"x_max":843,"o":"m 660 509 l 660 578 q 646 703 660 649 q 606 792 632 756 q 542 847 579 829 q 457 865 504 865 q 374 847 411 865 q 311 792 337 829 q 271 703 285 756 q 257 578 257 649 l 257 509 q 269 359 257 424 q 302 250 281 295 q 355 177 324 204 q 421 139 385 149 l 421 42 q 290 91 352 51 q 179 196 227 132 q 102 340 130 260 q 73 509 73 420 l 73 577 q 101 748 73 671 q 180 883 129 826 q 301 970 231 939 q 457 1001 372 1001 q 614 970 543 1001 q 736 883 685 939 q 815 748 787 826 q 843 577 843 671 l 843 509 q 815 341 843 421 q 739 196 787 260 q 629 92 691 132 q 500 42 568 52 l 500 139 q 565 177 535 150 q 615 250 594 205 q 648 360 636 296 q 660 509 660 425 m 500 0 l 500 136 l 835 136 l 835 0 l 500 0 m 81 0 l 81 136 l 421 136 l 421 0 l 81 0 z "},"α":{"ha":784,"x_min":58,"x_max":778,"o":"m 58 344 l 58 358 q 77 515 58 444 q 132 638 96 586 q 222 719 168 690 q 345 747 275 747 q 436 730 395 747 q 507 681 476 713 q 558 604 537 649 q 594 504 580 559 q 614 382 608 448 l 614 340 q 587 197 606 262 q 535 85 568 132 q 455 12 503 37 q 344 -14 408 -14 q 222 12 275 -14 q 132 87 169 39 q 77 200 96 135 q 58 344 58 266 m 222 358 l 222 344 q 231 254 222 296 q 259 182 240 213 q 309 133 278 151 q 385 116 340 116 q 458 133 428 116 q 510 180 489 150 q 543 249 530 210 q 564 334 556 289 l 564 382 q 545 472 557 429 q 512 547 533 515 q 460 598 491 580 q 386 617 429 617 q 311 597 342 617 q 260 541 279 576 q 231 458 240 505 q 222 358 222 411 m 551 734 l 691 734 l 691 219 q 695 172 691 190 q 706 142 699 153 q 722 126 713 131 q 743 122 732 122 q 753 123 749 122 q 762 125 758 125 l 778 5 q 736 -11 756 -7 q 694 -14 716 -14 q 628 -2 658 -14 q 577 35 599 9 q 544 100 556 60 q 528 196 531 140 l 528 576 l 551 734 z "},"β":{"ha":830,"x_min":102,"x_max":769,"o":"m 366 551 l 461 551 q 627 517 559 551 q 732 424 696 484 q 769 284 769 363 q 731 123 769 189 q 625 21 693 56 q 464 -14 556 -14 q 357 2 411 -14 q 258 50 303 18 q 186 133 213 82 q 159 254 159 184 l 220 272 q 247 194 220 229 q 322 137 274 158 q 434 116 370 116 q 527 138 488 116 q 585 198 565 160 q 605 284 605 236 q 587 372 605 333 q 533 435 568 412 q 445 459 497 459 l 366 459 l 366 551 m 418 1001 q 580 968 511 1001 q 686 876 648 936 q 724 734 724 817 q 687 612 724 667 q 586 525 651 557 q 433 492 520 492 l 366 492 l 366 582 l 416 582 q 499 600 468 582 q 546 651 531 618 q 560 728 560 684 q 545 798 560 766 q 498 850 529 830 q 418 871 467 871 q 341 851 376 871 q 286 796 306 831 q 266 714 266 760 l 266 -268 l 102 -268 l 102 714 q 146 862 102 798 q 261 964 189 927 q 418 1001 332 1001 z "},"γ":{"ha":703,"x_min":20,"x_max":687,"o":"m 435 74 l 435 -283 l 271 -283 l 271 74 l 435 74 m 347 175 l 517 734 l 687 734 l 427 0 l 317 0 l 347 175 m 190 734 l 366 172 l 391 0 l 281 0 l 20 734 l 190 734 z "},"δ":{"ha":785,"x_min":55,"x_max":734,"o":"m 139 854 q 172 966 139 920 q 264 1039 204 1013 q 408 1064 324 1064 q 501 1056 461 1064 q 589 1029 541 1047 l 588 901 q 514 924 559 911 q 416 937 468 937 q 353 928 380 937 q 312 900 327 918 q 298 859 298 882 q 303 833 298 846 q 322 805 309 819 q 362 777 336 791 q 428 749 387 762 q 597 660 530 713 q 700 532 665 606 q 734 365 734 458 l 734 351 q 711 207 734 273 q 644 91 688 140 q 537 14 600 41 q 395 -14 475 -14 q 251 14 315 -14 q 144 89 188 41 q 78 203 100 138 q 55 345 55 269 l 55 360 q 85 503 55 439 q 165 611 115 568 q 273 669 216 654 l 272 672 q 201 718 231 691 q 155 779 171 745 q 139 854 139 814 m 218 370 l 218 355 q 229 263 218 306 q 261 187 239 220 q 316 135 283 154 q 395 116 349 116 q 473 135 440 116 q 527 187 506 154 q 559 263 549 220 q 570 355 570 306 l 570 370 q 557 447 570 409 q 522 519 545 486 q 467 575 499 552 q 396 606 435 597 q 318 587 351 606 q 262 535 284 568 q 229 459 240 502 q 218 370 218 416 z "},"ε":{"ha":763,"x_min":66,"x_max":707,"o":"m 356 398 l 515 398 l 515 317 l 383 317 q 300 307 335 317 q 248 274 266 296 q 230 214 230 251 q 240 175 230 194 q 270 142 250 157 q 319 119 290 127 q 386 111 348 111 q 471 125 435 111 q 525 165 506 140 q 544 217 544 189 l 707 217 q 680 114 707 157 q 607 42 652 70 q 506 0 562 14 q 392 -14 450 -14 q 263 1 322 -14 q 159 45 203 16 q 91 114 115 73 q 66 207 66 155 q 86 289 66 253 q 143 349 106 324 q 234 386 180 373 q 356 398 288 398 m 515 351 l 356 351 q 243 365 294 351 q 155 405 192 379 q 99 463 119 430 q 79 534 79 496 q 102 626 79 586 q 165 692 124 665 q 264 733 207 719 q 392 747 322 747 q 508 732 454 747 q 605 688 563 717 q 671 618 647 659 q 695 526 695 578 l 532 526 q 512 576 532 555 q 460 610 493 598 q 386 623 427 623 q 304 608 336 623 q 258 572 273 594 q 243 526 243 550 q 251 488 243 505 q 277 458 260 471 q 320 439 294 446 q 383 432 347 432 l 515 432 l 515 351 z "},"ζ":{"ha":705,"x_min":60,"x_max":654,"o":"m 562 987 l 654 987 l 654 892 l 412 600 q 331 493 363 543 q 281 391 298 444 q 264 275 264 339 q 271 221 264 243 q 292 182 278 198 q 326 155 305 165 q 375 136 347 144 l 444 115 q 541 84 498 100 q 606 38 583 67 q 630 -47 630 8 q 608 -126 630 -85 q 553 -204 585 -168 q 490 -262 522 -240 l 406 -196 q 441 -152 427 -173 q 463 -113 456 -132 q 470 -77 470 -94 q 461 -49 470 -62 q 433 -26 453 -36 q 381 -7 414 -16 l 326 7 q 223 45 266 23 q 153 97 180 67 q 114 167 126 127 q 101 258 101 207 q 121 387 101 321 q 182 522 141 452 q 287 667 224 592 l 562 987 m 60 987 l 589 987 l 589 859 l 60 859 l 60 987 z "},"η":{"ha":785,"x_min":85,"x_max":699,"o":"m 248 577 l 248 0 l 85 0 l 85 734 l 235 734 l 248 577 m 216 391 l 169 390 q 189 533 169 467 q 247 646 209 598 q 337 721 284 694 q 457 747 391 747 q 556 733 512 747 q 632 687 601 719 q 681 601 664 654 q 699 470 699 548 l 699 -281 l 534 -281 l 534 469 q 526 538 534 510 q 499 584 517 567 q 457 609 482 602 q 401 617 433 617 q 318 600 353 617 q 261 551 283 582 q 227 479 238 519 q 216 391 216 438 z "},"θ":{"ha":808,"x_min":80,"x_max":727,"o":"m 403 1001 q 512 985 462 1001 q 602 935 562 968 q 670 849 642 901 q 712 728 698 798 q 727 568 727 658 l 727 422 q 712 263 727 334 q 670 141 698 193 q 603 55 642 89 q 513 3 563 20 q 404 -14 463 -14 q 296 3 346 -14 q 207 55 246 20 q 138 141 167 89 q 95 263 110 193 q 80 422 80 334 l 80 568 q 95 728 80 658 q 138 849 110 798 q 205 935 166 901 q 295 985 245 968 q 403 1001 345 1001 m 403 871 q 335 854 365 871 q 285 802 305 837 q 254 715 264 767 q 243 593 243 663 l 243 557 l 564 557 l 564 593 q 557 693 564 648 q 537 771 550 738 q 505 827 524 805 q 459 860 485 849 q 403 871 434 871 m 404 117 q 461 128 435 117 q 505 162 486 140 q 537 219 524 185 q 557 299 551 254 q 564 400 564 344 l 564 431 l 243 431 l 243 400 q 250 299 243 344 q 271 219 257 254 q 303 162 284 185 q 348 128 323 140 q 404 117 374 117 z "},"ι":{"ha":459,"x_min":111,"x_max":411,"o":"m 111 734 l 275 734 l 274 209 q 284 156 274 174 q 311 132 294 138 q 353 125 329 125 q 385 128 370 125 q 411 132 401 130 l 411 8 q 364 -3 391 1 q 302 -8 337 -8 q 203 12 246 -8 q 135 78 159 33 q 111 199 111 123 l 111 734 z "},"λ":{"ha":765,"x_min":14,"x_max":747,"o":"m 370 510 l 193 0 l 14 0 l 294 750 l 406 745 l 370 510 m 187 1039 q 253 1031 224 1039 q 303 1007 282 1023 q 340 970 325 992 q 365 921 355 948 l 650 190 q 668 154 659 169 q 691 130 678 138 q 720 122 703 122 q 733 122 726 122 q 745 123 739 123 l 747 -5 q 719 -10 735 -8 q 683 -12 703 -12 q 598 2 633 -12 q 539 47 564 16 q 496 133 515 79 l 300 658 l 222 843 q 201 882 213 867 q 173 902 189 896 q 136 909 157 909 q 119 908 129 909 q 100 907 109 908 l 97 1028 q 141 1036 114 1033 q 187 1039 168 1039 z "},"ξ":{"ha":712,"x_min":70,"x_max":669,"o":"m 639 970 l 615 845 q 559 858 584 852 q 511 867 534 864 q 460 869 487 869 q 361 854 399 869 q 304 814 322 840 q 286 758 286 789 q 296 707 286 730 q 329 668 307 684 q 386 642 351 651 q 471 633 421 633 l 570 633 l 570 538 l 468 538 q 327 553 390 538 q 217 597 263 568 q 147 665 172 625 q 122 755 122 705 q 145 859 122 813 q 211 936 168 904 q 313 984 254 968 q 448 1001 373 1001 q 520 997 487 1001 q 583 987 553 994 q 639 970 612 980 m 471 593 l 570 593 l 570 500 l 473 500 q 343 479 397 500 q 261 415 290 458 q 233 306 233 372 q 258 216 233 252 q 323 158 283 180 q 412 125 363 136 l 481 108 q 582 76 540 94 q 646 28 623 58 q 668 -53 669 -2 q 646 -132 668 -91 q 591 -209 623 -173 q 528 -267 559 -245 l 440 -200 q 476 -158 461 -178 q 500 -120 492 -139 q 508 -80 508 -101 q 499 -52 508 -64 q 470 -31 490 -40 q 419 -13 451 -21 l 378 -1 q 250 39 307 17 q 153 94 193 62 q 92 177 113 127 q 70 304 70 228 q 98 428 70 374 q 179 519 127 482 q 306 574 232 555 q 471 593 379 593 z "},"π":{"ha":865,"x_min":33,"x_max":841,"o":"m 816 734 l 816 608 l 33 608 l 33 734 l 816 734 m 314 734 l 314 0 l 151 0 l 151 734 l 314 734 m 540 734 l 704 734 l 704 209 q 714 156 704 174 q 741 132 724 138 q 783 125 759 125 q 815 128 800 125 q 840 132 831 130 l 841 8 q 794 -3 821 1 q 732 -8 767 -8 q 633 12 676 -8 q 565 78 589 33 q 540 199 540 123 l 540 734 z "},"ρ":{"ha":785,"x_min":87,"x_max":727,"o":"m 87 -282 l 87 393 q 110 541 87 475 q 176 652 134 606 q 278 723 219 699 q 407 747 336 747 q 546 719 486 747 q 646 638 606 690 q 707 515 686 586 q 727 358 727 444 l 727 344 q 709 200 727 266 q 654 87 690 135 q 565 13 618 39 q 444 -14 513 -14 q 326 11 376 -14 q 241 82 276 36 q 186 191 207 127 q 156 330 165 254 q 174 319 159 329 q 204 300 189 310 q 220 291 220 291 q 248 202 228 242 q 306 139 269 163 q 399 116 342 116 q 475 133 444 116 q 526 182 506 151 q 554 254 545 213 q 563 344 563 296 l 563 358 q 554 458 563 411 q 527 541 546 505 q 476 597 507 576 q 401 617 446 617 q 332 597 361 617 q 286 543 304 577 q 259 467 267 509 q 250 383 250 425 l 250 -282 l 87 -282 z "},"ς":{"ha":729,"x_min":54,"x_max":679,"o":"m 385 747 q 537 715 471 747 q 641 621 604 682 q 679 471 679 559 l 524 471 q 509 545 524 512 q 463 598 494 578 q 385 617 432 617 q 307 597 339 617 q 256 543 275 577 q 227 466 236 509 q 218 378 218 424 l 218 355 q 241 250 218 294 q 309 177 263 206 q 422 127 354 147 q 526 94 482 111 q 594 46 570 77 q 619 -40 618 16 q 597 -119 619 -77 q 544 -196 576 -160 q 481 -254 512 -231 l 395 -187 q 431 -145 416 -164 q 452 -107 445 -125 q 458 -68 459 -89 q 449 -36 458 -49 q 421 -14 440 -23 q 372 1 402 -5 q 198 73 269 27 q 91 188 127 118 q 54 355 54 258 l 54 378 q 76 521 54 454 q 140 639 98 588 q 243 719 182 690 q 385 747 305 747 z "},"σ":{"ha":791,"x_min":54,"x_max":779,"o":"m 54 359 l 54 374 q 77 516 54 451 q 142 631 99 582 q 248 707 186 680 q 391 734 311 734 q 424 712 408 729 q 462 676 440 695 q 522 647 484 658 q 625 578 579 623 q 697 475 671 533 q 724 348 724 416 l 724 333 q 702 200 724 262 q 637 89 680 137 q 533 14 595 41 q 392 -14 471 -14 q 249 15 312 -14 q 142 93 186 43 q 77 211 99 143 q 54 359 54 279 m 218 374 l 218 359 q 228 265 218 309 q 258 188 237 221 q 313 135 279 155 q 392 116 346 116 q 469 135 437 116 q 521 188 500 155 q 551 265 541 221 q 560 359 560 309 l 560 374 q 551 461 560 420 q 521 535 541 503 q 468 585 500 567 q 391 604 436 604 q 312 585 345 604 q 258 535 279 567 q 228 461 237 503 q 218 374 218 420 m 779 734 l 779 604 l 391 604 l 391 734 l 779 734 z "},"τ":{"ha":723,"x_min":41,"x_max":682,"o":"m 682 734 l 682 605 l 41 605 l 41 734 l 682 734 m 271 734 l 435 734 l 435 203 q 443 152 435 170 q 467 126 452 133 q 502 119 482 119 q 538 123 523 119 q 567 133 553 127 l 590 15 q 529 -8 558 -3 q 466 -14 500 -14 q 361 9 405 -14 q 295 81 318 33 q 271 208 271 130 l 271 734 z "},"υ":{"ha":758,"x_min":86,"x_max":697,"o":"m 86 734 l 250 734 l 250 285 q 258 206 250 239 q 281 153 267 173 q 316 125 296 134 q 359 116 336 116 q 435 139 402 116 q 489 201 467 162 q 523 287 511 239 q 534 382 534 334 q 511 562 532 473 q 458 734 490 650 l 620 734 q 658 639 640 692 q 686 522 675 586 q 697 382 697 458 q 677 230 697 302 q 617 103 658 158 q 514 17 576 48 q 366 -14 452 -14 q 250 3 302 -14 q 162 58 199 21 q 106 151 125 94 q 86 286 86 208 l 86 734 z "},"φ":{"ha":1010,"x_min":47,"x_max":958,"o":"m 418 -324 l 418 563 q 443 655 418 616 q 511 717 468 694 q 608 739 553 739 q 754 710 690 739 q 865 629 819 680 q 934 512 910 578 q 958 374 958 446 q 934 230 958 299 q 856 105 909 160 q 716 18 803 50 q 502 -14 629 -14 q 289 19 376 -14 q 149 110 201 52 q 72 240 96 167 q 47 393 47 313 q 67 532 47 468 q 123 649 87 597 q 210 739 160 702 l 313 642 q 257 568 279 609 q 223 481 235 526 q 211 393 212 437 q 225 289 211 339 q 274 200 240 239 q 363 139 307 161 q 502 116 419 116 q 676 153 612 116 q 767 250 739 191 q 794 374 794 309 q 782 464 794 422 q 749 539 770 507 q 695 590 727 572 q 621 609 663 609 q 590 596 598 609 q 581 568 581 583 l 581 -324 l 418 -324 z "},"ψ":{"ha":1006,"x_min":56,"x_max":954,"o":"m 56 734 l 219 734 l 219 400 q 240 266 219 321 q 299 178 262 211 q 387 131 337 145 q 496 116 437 116 q 635 139 578 116 q 726 201 692 161 q 775 290 760 240 q 791 395 791 340 q 767 568 789 483 q 711 734 745 653 l 870 734 q 911 643 892 694 q 942 530 930 591 q 954 395 954 468 q 931 240 954 314 q 855 110 907 167 q 715 19 802 52 q 502 -14 629 -14 q 318 10 401 -14 q 177 84 236 34 q 87 214 118 135 q 56 402 56 293 l 56 734 m 414 734 l 577 734 l 577 -322 l 414 -322 l 414 734 z "},"ω":{"ha":1142,"x_min":68,"x_max":1074,"o":"m 816 734 l 977 734 q 1025 638 1003 692 q 1061 522 1047 585 q 1074 382 1074 458 q 1059 230 1074 301 q 1011 103 1044 158 q 924 17 979 48 q 791 -14 869 -14 q 685 9 732 -14 q 605 77 638 32 q 554 186 572 121 q 537 336 537 252 l 537 547 l 656 547 l 656 327 q 666 229 656 269 q 693 163 675 189 q 734 127 711 138 q 784 116 757 116 q 843 138 819 116 q 882 196 867 159 q 904 281 897 233 q 911 382 911 329 q 882 562 908 473 q 816 734 857 650 m 165 734 l 327 734 q 261 562 287 650 q 233 382 235 473 q 237 300 233 340 q 250 228 241 261 q 273 169 258 195 q 309 130 288 144 q 358 116 330 116 q 409 127 386 116 q 450 163 433 138 q 477 229 467 189 q 486 327 486 269 l 486 547 l 606 547 l 606 336 q 588 186 606 252 q 538 77 571 121 q 458 9 505 32 q 352 -14 411 -14 q 242 6 289 -14 q 161 63 195 26 q 108 150 128 100 q 78 258 87 199 q 68 382 68 317 q 82 522 68 458 q 118 638 96 585 q 165 734 140 692 z "},"ϑ":{"ha":817,"x_min":81,"x_max":802,"o":"m 795 542 l 802 410 q 725 390 768 399 q 641 382 682 382 q 427 428 520 382 q 282 554 334 473 q 229 736 229 634 l 229 749 q 261 885 229 829 q 348 972 292 942 q 474 1002 403 1002 q 574 984 530 1002 q 650 932 618 966 q 698 847 682 897 q 715 733 715 797 l 715 303 q 675 133 715 204 q 565 24 636 62 q 399 -14 494 -14 q 269 9 328 -14 q 169 74 211 32 q 104 175 127 117 q 81 303 81 233 l 81 499 l 239 500 l 239 303 q 259 207 239 248 q 316 144 279 166 q 405 121 353 121 q 481 142 450 121 q 530 203 513 162 q 547 303 547 243 l 547 743 q 542 796 547 774 q 527 833 536 819 q 502 855 517 848 q 468 862 488 862 q 427 851 445 862 q 398 817 408 840 q 387 754 387 793 l 387 739 q 416 630 387 680 q 501 551 445 581 q 641 522 557 522 q 722 528 682 522 q 795 542 762 534 z "},"ϒ":{"ha":786,"x_min":-21,"x_max":810,"o":"m 479 471 l 479 0 l 309 0 l 309 471 l 479 471 m 386 500 l 531 854 q 581 941 553 909 q 641 987 608 972 q 718 1001 675 1001 q 767 996 744 1001 q 810 983 789 991 l 785 854 q 770 857 783 856 q 747 859 757 859 q 719 853 732 859 q 695 837 706 848 q 677 807 685 825 l 470 340 l 359 341 l 386 500 m 259 857 l 406 495 l 429 341 l 317 340 l 112 807 q 93 837 104 826 q 68 853 81 848 q 41 859 56 859 q 18 857 31 859 q 3 854 5 856 l -21 983 q 22 996 -1 991 q 71 1001 44 1001 q 145 989 111 1001 q 208 945 179 977 q 259 857 236 914 z "},"ϖ":{"ha":1124,"x_min":29,"x_max":1107,"o":"m 1107 734 l 1107 613 l 29 613 l 29 734 l 1107 734 m 799 734 l 960 734 q 1008 638 986 692 q 1044 522 1030 585 q 1057 382 1057 458 q 1048 258 1057 317 q 1020 150 1039 199 q 969 63 1000 100 q 893 6 938 26 q 788 -14 848 -14 q 681 9 728 -14 q 599 77 633 32 q 548 186 566 121 q 530 336 530 252 l 530 480 l 648 480 l 648 327 q 659 229 648 269 q 687 163 669 189 q 729 127 705 138 q 782 116 753 116 q 826 130 807 116 q 857 169 844 144 q 878 228 870 194 q 890 300 886 261 q 894 382 894 340 q 865 562 891 473 q 799 734 840 650 m 168 734 l 329 734 q 262 562 289 650 q 234 382 236 473 q 238 300 234 340 q 250 228 241 261 q 271 169 258 195 q 302 130 283 144 q 345 116 321 116 q 398 127 374 116 q 440 163 422 138 q 469 229 458 189 q 479 327 479 269 l 479 480 l 598 480 l 598 336 q 580 186 598 252 q 529 77 562 121 q 447 9 495 32 q 338 -14 399 -14 q 234 6 279 -14 q 158 63 190 26 q 107 150 127 100 q 79 258 88 199 q 70 382 70 317 q 83 522 70 458 q 119 638 97 585 q 168 734 142 692 z "},"Ђ":{"ha":1040,"x_min":24,"x_max":995,"o":"m 385 422 l 385 559 q 465 582 422 572 q 553 599 509 593 q 635 606 597 606 q 825 571 745 606 q 950 468 906 536 q 995 297 995 399 q 975 178 995 233 q 911 80 954 122 q 801 14 869 38 q 635 -10 732 -10 l 635 118 q 730 132 693 118 q 788 171 768 146 q 817 227 809 195 q 825 291 825 258 q 803 386 825 347 q 736 446 780 425 q 629 467 693 467 q 543 462 584 467 q 464 447 503 457 q 385 422 425 437 m 456 987 l 456 0 l 286 0 l 286 987 l 456 987 m 793 987 l 793 852 l 24 852 l 24 987 l 793 987 z "},"Є":{"ha":924,"x_min":70,"x_max":856,"o":"m 581 564 l 581 429 l 178 429 l 178 564 l 581 564 m 684 321 l 855 321 q 801 149 847 224 q 671 30 754 73 q 468 -14 587 -14 q 303 19 376 -14 q 177 113 229 52 q 98 260 125 174 q 70 452 70 346 l 70 534 q 98 726 70 640 q 179 874 126 812 q 307 968 232 935 q 474 1001 381 1001 q 674 958 593 1001 q 800 838 755 914 q 856 661 846 761 l 686 661 q 656 771 679 726 q 590 841 633 817 q 474 865 546 865 q 373 843 416 865 q 299 779 329 821 q 255 675 270 736 q 240 535 240 614 l 240 452 q 249 341 240 392 q 275 249 258 290 q 319 179 292 208 q 384 136 347 151 q 468 121 420 121 q 586 144 541 121 q 654 212 631 167 q 684 321 677 256 z "},"Љ":{"ha":1476,"x_min":31,"x_max":1427,"o":"m 241 987 l 411 987 l 387 497 q 369 307 382 389 q 332 167 355 225 q 273 72 309 109 q 189 17 238 35 q 74 0 140 0 l 31 0 l 31 135 l 57 137 q 119 154 93 140 q 164 198 145 169 q 194 273 182 227 q 213 385 206 319 q 224 541 220 452 l 241 987 m 745 987 l 745 852 l 275 852 l 275 987 l 745 987 m 822 628 l 1070 628 q 1262 587 1183 628 q 1384 475 1342 547 q 1427 314 1427 404 q 1403 189 1427 246 q 1333 89 1379 132 q 1221 23 1287 47 q 1070 0 1155 0 l 705 0 l 705 987 l 875 987 l 875 135 l 1070 135 q 1176 161 1135 135 q 1238 228 1218 186 q 1257 315 1257 269 q 1238 401 1257 361 q 1176 468 1218 442 q 1070 493 1135 493 l 822 493 l 822 628 z "},"Њ":{"ha":1484,"x_min":104,"x_max":1434,"o":"m 751 565 l 751 431 l 231 431 l 231 565 l 751 565 m 273 987 l 273 0 l 104 0 l 104 987 l 273 987 m 829 610 l 1077 610 q 1269 571 1190 610 q 1391 464 1349 532 q 1434 307 1434 396 q 1410 184 1434 240 q 1339 87 1385 128 q 1227 23 1293 45 q 1077 0 1162 0 l 711 0 l 711 987 l 881 987 l 881 138 l 1077 138 q 1183 162 1141 138 q 1244 225 1225 186 q 1264 309 1264 264 q 1244 391 1264 353 q 1183 452 1225 429 q 1077 475 1141 475 l 829 475 l 829 610 z "},"Ћ":{"ha":1097,"x_min":31,"x_max":1000,"o":"m 1000 0 l 831 0 l 831 307 q 809 416 831 376 q 745 471 788 455 q 637 488 702 488 q 572 485 606 488 q 502 477 537 482 q 434 465 467 472 q 374 449 401 458 l 374 585 q 433 600 401 593 q 498 612 464 607 q 568 620 532 617 q 637 623 603 623 q 831 590 749 623 q 956 489 912 558 q 1000 307 1000 419 l 1000 0 m 454 987 l 454 0 l 284 0 l 284 987 l 454 987 m 790 987 l 790 852 l 31 852 l 31 987 l 790 987 z "},"Џ":{"ha":980,"x_min":97,"x_max":876,"o":"m 97 0 l 97 987 l 267 987 l 267 135 l 705 135 l 705 987 l 876 987 l 876 0 l 97 0 m 578 127 l 578 -243 l 408 -243 l 408 127 l 578 127 z "},"Б":{"ha":873,"x_min":98,"x_max":821,"o":"m 726 987 l 726 852 l 267 852 l 267 0 l 98 0 l 98 987 l 726 987 m 216 608 l 464 608 q 656 571 576 608 q 779 465 736 533 q 821 307 821 397 q 797 183 821 239 q 727 86 773 127 q 615 22 681 45 q 464 0 549 0 l 98 0 l 98 987 l 269 987 l 269 135 l 464 135 q 570 159 528 135 q 631 222 611 183 q 651 309 651 262 q 631 391 651 354 q 570 451 611 429 q 464 473 528 473 l 216 473 l 216 608 z "},"Д":{"ha":1040,"x_min":26,"x_max":1012,"o":"m 880 135 l 880 0 l 153 0 l 153 135 l 880 135 m 195 135 l 195 -243 l 32 -243 l 26 135 l 195 135 m 1012 135 l 1002 -242 l 842 -242 l 842 135 l 1012 135 m 761 987 l 761 852 l 305 852 l 305 987 l 761 987 m 891 987 l 891 0 l 722 0 l 722 987 l 891 987 m 271 987 l 441 987 l 418 587 q 398 416 412 492 q 364 280 384 340 q 319 175 344 220 q 265 96 294 129 q 207 39 237 62 q 149 0 178 16 l 58 0 l 58 135 l 102 135 q 143 184 121 152 q 187 269 165 216 q 224 399 208 321 q 247 587 241 477 l 271 987 z "},"Ж":{"ha":1330,"x_min":14,"x_max":1325,"o":"m 400 427 l 35 987 l 241 987 l 482 574 l 660 574 l 636 427 l 400 427 m 485 449 l 226 0 l 14 0 l 358 564 l 485 449 m 758 987 l 758 0 l 589 0 l 589 987 l 758 987 m 1305 987 l 943 427 l 710 427 l 686 574 l 861 574 l 1098 987 l 1305 987 m 1114 0 l 859 449 l 986 564 l 1325 0 l 1114 0 z "},"З":{"ha":843,"x_min":50,"x_max":783,"o":"m 439 473 l 302 473 l 302 570 l 420 570 q 522 589 483 570 q 579 641 562 608 q 597 720 597 675 q 577 793 597 760 q 516 846 557 826 q 410 866 475 866 q 321 848 361 866 q 257 799 281 831 q 234 724 234 767 l 64 724 q 91 839 64 788 q 166 926 119 890 q 277 982 214 962 q 410 1001 340 1001 q 557 983 491 1001 q 670 930 623 965 q 743 842 718 895 q 768 720 768 789 q 744 625 768 669 q 677 546 721 580 q 573 493 634 512 q 439 473 513 473 m 302 532 l 439 532 q 585 515 521 532 q 692 466 648 498 q 760 386 736 433 q 783 276 783 338 q 755 153 783 207 q 677 62 728 99 q 559 5 627 24 q 410 -14 491 -14 q 280 3 344 -14 q 164 55 216 20 q 81 144 112 90 q 50 274 50 198 l 220 274 q 244 197 220 232 q 311 141 269 162 q 410 121 353 121 q 519 141 474 121 q 588 197 564 161 q 612 276 612 232 q 600 349 612 318 q 563 399 587 380 q 503 428 538 418 q 420 437 467 437 l 302 437 l 302 532 z "},"И":{"ha":981,"x_min":99,"x_max":877,"o":"m 269 277 l 707 987 l 877 987 l 877 0 l 707 0 l 707 711 l 269 0 l 99 0 l 99 987 l 269 987 l 269 277 z "},"Л":{"ha":982,"x_min":30,"x_max":878,"o":"m 748 987 l 748 852 l 275 852 l 275 987 l 748 987 m 878 987 l 878 0 l 708 0 l 708 987 l 878 987 m 241 987 l 410 987 l 386 497 q 368 307 381 389 q 331 167 354 225 q 273 72 308 109 q 188 17 237 35 q 73 0 139 0 l 30 0 l 30 135 l 56 137 q 118 154 92 140 q 163 198 144 169 q 193 273 181 227 q 213 385 205 319 q 223 541 220 452 l 241 987 z "},"У":{"ha":876,"x_min":34,"x_max":847,"o":"m 408 344 l 659 987 l 847 987 l 504 179 q 467 107 488 142 q 417 45 446 72 q 347 2 388 18 q 246 -14 305 -14 q 209 -13 231 -14 q 176 -10 186 -12 l 178 123 q 205 121 186 122 q 233 121 224 121 q 296 134 273 121 q 333 170 319 147 q 357 220 347 193 l 408 344 m 220 987 l 468 441 l 517 263 l 385 258 l 34 987 l 220 987 z "},"Ф":{"ha":1106,"x_min":53,"x_max":1058,"o":"m 458 895 l 652 895 q 813 865 740 895 q 942 783 887 836 q 1027 655 997 730 q 1058 490 1058 581 q 1027 327 1058 401 q 942 200 997 253 q 813 118 887 146 q 652 90 740 90 l 458 90 q 298 118 372 90 q 169 199 224 146 q 83 326 113 252 q 53 489 53 399 q 83 654 53 580 q 169 782 113 728 q 298 865 224 836 q 458 895 372 895 m 458 759 q 328 727 382 759 q 243 634 273 694 q 214 489 214 574 q 231 378 214 427 q 279 295 248 329 q 357 243 311 261 q 458 224 402 224 l 654 224 q 783 257 729 224 q 867 349 838 289 q 897 490 897 408 q 880 603 897 553 q 832 688 863 653 q 755 741 800 722 q 654 759 711 759 l 458 759 m 637 1028 l 637 -41 l 474 -41 l 474 1028 l 637 1028 z "},"Ц":{"ha":1036,"x_min":96,"x_max":996,"o":"m 996 136 l 983 -238 l 827 -238 l 827 0 l 739 0 l 739 136 l 996 136 m 96 0 l 96 987 l 267 987 l 267 135 l 705 135 l 705 987 l 876 987 l 876 0 l 96 0 z "},"Ч":{"ha":958,"x_min":98,"x_max":855,"o":"m 98 987 l 269 987 l 269 682 q 290 572 269 612 q 354 516 311 532 q 461 500 397 500 q 527 503 492 500 q 596 510 562 505 q 664 523 631 515 q 724 538 696 530 l 724 404 q 666 388 697 395 q 600 375 634 380 q 531 368 566 370 q 461 365 496 365 q 268 397 349 365 q 142 499 186 429 q 98 682 98 569 l 98 987 m 685 987 l 855 987 l 855 0 l 685 0 l 685 987 z "},"Ш":{"ha":1320,"x_min":101,"x_max":1219,"o":"m 101 987 l 272 987 l 272 135 l 577 135 l 577 987 l 747 987 l 747 135 l 1049 135 l 1049 987 l 1219 987 l 1219 0 l 101 0 l 101 987 z "},"Щ":{"ha":1385,"x_min":101,"x_max":1335,"o":"m 1335 130 l 1322 -238 l 1173 -238 l 1173 0 l 1084 0 l 1084 130 l 1335 130 m 101 987 l 272 987 l 272 135 l 577 135 l 577 987 l 747 987 l 747 135 l 1049 135 l 1049 987 l 1219 987 l 1219 0 l 101 0 l 101 987 z "},"Ъ":{"ha":1064,"x_min":14,"x_max":1013,"o":"m 14 857 l 14 987 l 348 987 l 348 857 l 14 857 m 408 608 l 656 608 q 848 571 768 608 q 970 465 928 533 q 1013 307 1013 397 q 989 183 1013 239 q 918 86 964 127 q 806 22 872 45 q 656 0 740 0 l 290 0 l 290 987 l 460 987 l 460 135 l 656 135 q 762 159 720 135 q 823 222 803 183 q 843 309 843 262 q 823 391 843 354 q 762 451 803 429 q 656 473 720 473 l 408 473 l 408 608 z "},"Ы":{"ha":1204,"x_min":104,"x_max":1099,"o":"m 221 608 l 470 608 q 662 571 583 608 q 784 465 742 533 q 827 307 827 397 q 803 183 827 239 q 732 86 779 127 q 620 22 686 45 q 470 0 554 0 l 104 0 l 104 987 l 274 987 l 274 135 l 470 135 q 576 159 534 135 q 637 222 617 183 q 657 309 657 262 q 637 391 657 354 q 576 451 617 429 q 470 473 534 473 l 221 473 l 221 608 m 1099 987 l 1099 0 l 928 0 l 928 987 l 1099 987 z "},"Ь":{"ha":869,"x_min":98,"x_max":821,"o":"m 216 608 l 464 608 q 656 571 576 608 q 779 465 736 533 q 821 307 821 397 q 797 183 821 239 q 727 86 773 127 q 615 22 681 45 q 464 0 549 0 l 98 0 l 98 987 l 269 987 l 269 135 l 464 135 q 570 159 528 135 q 631 222 611 183 q 651 309 651 262 q 631 391 651 354 q 570 451 611 429 q 464 473 528 473 l 216 473 l 216 608 z "},"Э":{"ha":917,"x_min":67,"x_max":852,"o":"m 749 561 l 749 425 l 336 425 l 336 561 l 749 561 m 68 321 l 237 321 q 268 212 245 256 q 337 144 292 167 q 455 121 382 121 q 557 144 514 121 q 628 212 600 168 q 669 316 656 256 q 683 452 683 377 l 683 535 q 673 650 683 598 q 645 742 664 702 q 597 809 625 782 q 532 851 569 837 q 448 865 494 865 q 333 841 377 865 q 267 771 289 817 q 237 661 244 726 l 67 661 q 123 838 77 761 q 249 958 168 914 q 448 1001 330 1001 q 615 968 541 1001 q 743 874 690 935 q 824 726 795 812 q 852 534 852 640 l 852 452 q 824 260 852 346 q 745 113 797 174 q 619 19 692 52 q 455 -14 546 -14 q 252 30 335 -14 q 123 149 169 73 q 68 321 77 224 z "},"Ю":{"ha":1282,"x_min":109,"x_max":1223,"o":"m 279 987 l 279 0 l 109 0 l 109 987 l 279 987 m 486 543 l 486 413 l 232 413 l 232 543 l 486 543 m 1223 521 l 1223 467 q 1194 266 1223 355 q 1111 115 1165 177 q 982 19 1057 52 q 814 -14 907 -14 q 649 19 724 -14 q 519 115 574 52 q 434 266 464 177 q 404 467 404 355 l 404 521 q 434 721 404 633 q 518 872 464 810 q 648 968 572 935 q 813 1001 723 1001 q 981 968 905 1001 q 1110 872 1056 935 q 1194 721 1164 810 q 1223 521 1223 633 m 1053 467 l 1053 522 q 1037 668 1053 605 q 990 775 1021 732 q 915 840 960 818 q 813 862 870 862 q 713 840 758 862 q 638 775 669 818 q 591 668 608 732 q 575 522 575 605 l 575 467 q 591 320 575 384 q 639 213 608 256 q 715 147 671 169 q 814 125 759 125 q 916 147 872 125 q 991 213 960 169 q 1037 320 1021 256 q 1053 467 1053 384 z "},"Я":{"ha":852,"x_min":16,"x_max":754,"o":"m 635 370 l 363 370 l 296 398 q 125 505 184 433 q 65 686 65 577 q 109 851 65 784 q 232 953 152 918 q 422 987 313 987 l 754 987 l 754 0 l 583 0 l 583 852 l 422 852 q 281 806 328 852 q 235 678 235 760 q 256 583 235 623 q 318 522 277 543 q 420 500 359 500 l 635 500 l 635 370 m 428 446 l 199 0 l 16 0 l 248 446 l 428 446 z "},"б":{"ha":781,"x_min":61,"x_max":737,"o":"m 545 1055 l 677 1055 q 660 956 677 995 q 611 892 644 917 q 532 852 579 867 q 423 825 485 838 q 320 787 366 813 q 244 714 275 761 q 199 595 213 668 q 191 418 186 523 l 191 372 l 62 361 l 62 407 q 85 633 62 536 q 153 795 109 729 q 257 901 197 861 q 393 955 318 940 q 477 977 444 966 q 528 1006 511 988 q 545 1055 545 1024 m 430 692 q 560 667 503 692 q 656 596 617 642 q 716 489 696 551 q 737 355 737 427 l 737 340 q 715 199 737 264 q 649 87 692 135 q 543 13 606 39 q 399 -14 480 -14 q 256 14 319 -14 q 150 91 193 41 q 84 208 106 141 q 62 355 62 275 l 62 370 q 70 397 61 384 q 90 427 78 411 q 112 463 102 442 q 192 583 146 531 q 297 663 238 634 q 430 692 357 692 m 398 563 q 299 534 337 563 q 242 458 260 505 q 224 355 224 410 l 224 340 q 235 254 224 294 q 266 182 245 213 q 320 134 286 151 q 399 116 353 116 q 479 134 446 116 q 533 182 512 151 q 563 254 553 213 q 573 340 573 294 l 573 355 q 563 434 573 397 q 532 500 553 471 q 478 546 511 529 q 398 563 445 563 z "},"в":{"ha":789,"x_min":97,"x_max":732,"o":"m 441 314 l 206 314 l 205 429 l 397 429 q 476 439 445 429 q 522 468 507 448 q 536 515 536 487 q 528 555 536 538 q 501 584 519 572 q 456 600 483 595 q 394 605 429 605 l 260 605 l 260 0 l 97 0 l 97 734 l 394 734 q 521 722 465 734 q 618 684 578 709 q 679 621 658 659 q 701 531 701 583 q 686 467 701 497 q 643 414 671 437 q 573 377 614 391 q 478 359 532 362 l 441 314 m 441 0 l 159 0 l 224 129 l 441 129 q 513 140 484 129 q 555 171 541 151 q 569 220 569 192 q 555 271 569 250 q 514 303 542 292 q 441 314 486 314 l 254 314 l 256 429 l 477 429 l 524 385 q 640 355 594 380 q 709 292 686 330 q 732 209 732 254 q 713 118 732 157 q 656 53 694 79 q 564 13 618 26 q 441 0 510 0 z "},"г":{"ha":583,"x_min":89,"x_max":572,"o":"m 572 734 l 572 604 l 252 604 l 252 0 l 89 0 l 89 734 l 572 734 z "},"д":{"ha":859,"x_min":26,"x_max":826,"o":"m 217 734 l 380 734 l 372 475 q 347 282 369 363 q 288 146 324 201 q 207 56 252 91 q 113 0 162 20 l 64 0 l 64 129 l 87 130 q 138 193 117 161 q 174 263 159 224 q 198 353 189 301 q 209 475 206 404 l 217 734 m 260 734 l 726 734 l 726 0 l 563 0 l 563 595 l 260 595 l 260 734 m 27 130 l 826 130 l 826 -218 l 663 -218 l 663 0 l 193 0 l 193 -218 l 26 -218 l 27 130 z "},"ж":{"ha":1133,"x_min":22,"x_max":1114,"o":"m 328 296 l 35 734 l 235 734 l 406 445 l 549 445 l 528 296 l 328 296 m 410 320 l 222 0 l 22 0 l 288 413 l 410 320 m 648 734 l 648 0 l 485 0 l 485 734 l 648 734 m 1100 734 l 807 296 l 606 296 l 584 445 l 728 445 l 899 734 l 1100 734 m 911 0 l 723 320 l 850 413 l 1114 0 l 911 0 z "},"з":{"ha":710,"x_min":53,"x_max":656,"o":"m 388 351 l 247 351 l 247 433 l 361 433 q 430 445 404 433 q 468 477 456 456 q 479 526 479 498 q 468 572 479 550 q 430 608 456 594 q 358 623 404 623 q 291 610 321 623 q 245 576 262 598 q 228 526 228 555 l 64 526 q 103 644 64 595 q 208 720 142 694 q 353 747 274 747 q 473 733 420 747 q 565 692 527 719 q 622 626 602 665 q 642 534 642 586 q 625 463 642 496 q 574 405 607 430 q 493 365 541 379 q 388 351 446 351 m 247 398 l 388 398 q 503 386 453 398 q 587 349 553 373 q 638 289 621 324 q 656 207 656 253 q 634 114 656 155 q 571 45 612 73 q 475 1 531 16 q 353 -14 420 -14 q 211 11 279 -14 q 97 86 142 35 q 53 217 53 138 l 216 217 q 233 165 216 189 q 282 125 250 140 q 359 110 314 110 q 434 124 405 110 q 477 163 463 139 q 492 214 492 187 q 477 273 492 251 q 434 306 463 296 q 361 317 405 317 l 247 317 l 247 398 z "},"и":{"ha":793,"x_min":90,"x_max":705,"o":"m 253 239 l 541 734 l 705 734 l 705 0 l 541 0 l 541 496 l 253 0 l 90 0 l 90 734 l 253 734 l 253 239 z "},"к":{"ha":768,"x_min":97,"x_max":763,"o":"m 260 734 l 260 0 l 97 0 l 97 734 l 260 734 m 739 734 l 409 292 l 222 292 l 201 440 l 337 440 l 535 734 l 739 734 m 548 0 l 327 320 l 456 413 l 763 0 l 548 0 z "},"л":{"ha":795,"x_min":22,"x_max":705,"o":"m 577 734 l 577 604 l 219 604 l 219 734 l 577 734 m 705 734 l 705 0 l 542 0 l 542 734 l 705 734 m 179 734 l 340 734 l 321 371 q 305 229 317 290 q 273 124 293 168 q 225 53 254 80 q 159 13 197 26 q 73 0 121 0 l 22 0 l 22 134 l 47 136 q 91 150 73 138 q 122 182 109 161 q 144 236 136 203 q 158 315 153 269 q 165 420 163 360 l 179 734 z "},"м":{"ha":1043,"x_min":97,"x_max":944,"o":"m 520 198 l 739 734 l 880 734 l 576 0 l 465 0 l 161 734 l 302 734 l 520 198 m 260 734 l 260 0 l 97 0 l 97 734 l 260 734 m 780 0 l 780 734 l 944 734 l 944 0 l 780 0 z "},"н":{"ha":793,"x_min":90,"x_max":703,"o":"m 585 427 l 585 298 l 205 298 l 205 427 l 585 427 m 253 734 l 253 0 l 90 0 l 90 734 l 253 734 m 703 734 l 703 0 l 540 0 l 540 734 l 703 734 z "},"п":{"ha":793,"x_min":90,"x_max":705,"o":"m 576 734 l 576 604 l 214 604 l 214 734 l 576 734 m 253 734 l 253 0 l 90 0 l 90 734 l 253 734 m 705 734 l 705 0 l 541 0 l 541 734 l 705 734 z "},"т":{"ha":690,"x_min":24,"x_max":665,"o":"m 425 734 l 425 0 l 260 0 l 260 734 l 425 734 m 665 734 l 665 605 l 24 605 l 24 734 l 665 734 z "},"ф":{"ha":1012,"x_min":56,"x_max":956,"o":"m 956 358 l 956 344 q 938 200 956 266 q 887 87 921 135 q 803 12 853 39 q 688 -14 753 -14 q 587 5 630 -14 q 515 61 545 25 q 469 145 486 96 q 443 252 451 193 l 443 464 q 468 578 451 526 q 515 668 486 630 q 587 727 545 706 q 686 747 629 747 q 782 729 739 747 q 857 676 825 710 q 911 594 890 642 q 944 486 933 546 q 956 358 956 427 m 792 344 l 792 358 q 787 439 792 401 q 770 510 781 478 q 741 567 759 543 q 699 604 724 591 q 642 617 674 617 q 569 603 597 617 q 525 562 540 588 q 507 502 511 536 l 507 213 q 527 163 511 184 q 570 129 542 141 q 643 116 599 116 q 712 133 684 116 q 758 182 740 151 q 784 254 776 213 q 792 344 792 296 m 56 344 l 56 358 q 67 486 56 427 q 100 594 78 546 q 155 676 122 642 q 230 729 187 710 q 326 747 273 747 q 424 727 382 747 q 494 668 465 706 q 540 578 523 630 q 566 464 557 526 l 566 260 q 541 150 558 200 q 494 63 523 100 q 424 6 466 26 q 324 -14 382 -14 q 209 12 259 -14 q 125 87 159 39 q 74 200 91 135 q 56 344 56 266 m 220 358 l 220 344 q 228 254 220 296 q 252 182 235 213 q 297 134 269 151 q 366 116 325 116 q 439 130 410 116 q 483 167 467 143 q 503 221 498 191 l 503 502 q 484 562 498 536 q 440 603 469 588 q 367 617 412 617 q 298 597 326 617 q 253 541 270 576 q 228 458 235 505 q 220 358 220 411 m 420 -282 l 420 1042 l 585 1042 l 585 -282 l 420 -282 z "},"ц":{"ha":835,"x_min":90,"x_max":804,"o":"m 90 0 l 90 734 l 253 734 l 253 130 l 541 130 l 541 734 l 705 734 l 705 0 l 90 0 m 804 130 l 791 -218 l 642 -218 l 642 0 l 553 0 l 553 130 l 804 130 z "},"ч":{"ha":763,"x_min":65,"x_max":673,"o":"m 673 734 l 673 0 l 510 0 l 510 734 l 673 734 m 604 409 l 604 279 q 537 256 574 267 q 460 239 500 245 q 378 233 419 233 q 211 262 281 233 q 103 354 140 292 q 65 512 65 416 l 65 734 l 228 734 l 228 512 q 244 425 228 457 q 294 378 261 392 q 378 363 328 363 q 457 369 420 363 q 531 385 494 375 q 604 409 568 395 z "},"ш":{"ha":1137,"x_min":90,"x_max":1046,"o":"m 90 734 l 253 734 l 253 130 l 486 130 l 486 734 l 650 734 l 650 130 l 882 130 l 882 734 l 1046 734 l 1046 0 l 90 0 l 90 734 z "},"щ":{"ha":1205,"x_min":85,"x_max":1168,"o":"m 1168 130 l 1156 -218 l 1006 -218 l 1006 0 l 918 0 l 918 130 l 1168 130 m 85 734 l 248 734 l 248 130 l 481 130 l 481 734 l 646 734 l 646 130 l 878 130 l 878 734 l 1042 734 l 1042 0 l 85 0 l 85 734 z "},"ъ":{"ha":890,"x_min":22,"x_max":858,"o":"m 376 734 l 376 604 l 22 604 l 22 734 l 376 734 m 345 500 l 560 500 q 722 469 656 500 q 823 380 788 437 q 858 251 858 323 q 838 152 858 197 q 781 72 819 106 q 687 19 743 38 q 560 0 631 0 l 235 0 l 235 734 l 399 734 l 399 130 l 560 130 q 638 146 609 130 q 681 191 667 163 q 694 248 694 218 q 681 307 694 279 q 638 353 667 335 q 560 370 609 370 l 345 370 l 345 500 z "},"ы":{"ha":1117,"x_min":97,"x_max":1008,"o":"m 205 500 l 422 500 q 583 469 517 500 q 685 380 650 437 q 720 251 720 323 q 700 152 720 197 q 642 72 680 106 q 548 19 604 38 q 422 0 493 0 l 97 0 l 97 734 l 261 734 l 261 130 l 422 130 q 500 146 471 130 q 542 191 529 163 q 555 248 555 218 q 542 307 555 279 q 500 353 529 335 q 422 370 471 370 l 205 370 l 205 500 m 1008 734 l 1008 0 l 845 0 l 845 734 l 1008 734 z "},"ь":{"ha":766,"x_min":97,"x_max":720,"o":"m 205 500 l 422 500 q 583 469 517 500 q 685 380 650 437 q 720 251 720 323 q 700 152 720 197 q 642 72 680 106 q 548 19 604 38 q 422 0 493 0 l 97 0 l 97 734 l 261 734 l 261 130 l 422 130 q 500 146 471 130 q 542 191 529 163 q 555 248 555 218 q 542 307 555 279 q 500 353 529 335 q 422 370 471 370 l 205 370 l 205 500 z "},"э":{"ha":733,"x_min":54,"x_max":678,"o":"m 347 617 q 278 601 309 617 q 228 557 246 585 q 209 491 209 529 l 54 491 q 95 621 54 563 q 201 713 135 679 q 347 747 268 747 q 490 719 428 747 q 593 639 551 690 q 657 521 635 588 q 678 378 678 454 l 678 355 q 656 212 678 279 q 593 95 635 146 q 489 15 551 43 q 348 -14 428 -14 q 196 21 262 -14 q 92 118 130 56 q 54 262 54 180 l 209 262 q 227 188 209 221 q 275 135 244 155 q 348 116 307 116 q 425 136 393 116 q 477 191 457 157 q 505 268 496 224 q 514 355 514 311 l 514 378 q 505 467 514 424 q 477 543 496 509 q 426 597 458 577 q 347 617 393 617 m 576 427 l 576 317 l 279 317 l 279 427 l 576 427 z "},"ю":{"ha":1130,"x_min":99,"x_max":1078,"o":"m 516 437 l 516 307 l 123 307 l 123 437 l 516 437 m 262 734 l 262 0 l 99 0 l 99 734 l 262 734 m 395 359 l 395 374 q 418 522 395 454 q 486 641 441 590 q 593 719 530 691 q 736 747 656 747 q 881 719 817 747 q 988 641 944 691 q 1055 522 1032 590 q 1078 374 1078 454 l 1078 359 q 1055 212 1078 279 q 988 93 1032 144 q 881 15 945 43 q 737 -14 818 -14 q 593 15 656 -14 q 486 93 530 43 q 418 212 441 144 q 395 359 395 279 m 559 374 l 559 359 q 570 265 559 309 q 602 188 580 221 q 657 136 623 155 q 737 117 691 117 q 817 136 783 117 q 872 188 850 155 q 904 265 894 221 q 915 359 915 309 l 915 374 q 904 467 915 423 q 872 545 894 511 q 817 598 850 578 q 736 617 783 617 q 657 598 690 617 q 602 545 623 578 q 570 467 580 511 q 559 374 559 423 z "},"я":{"ha":770,"x_min":31,"x_max":673,"o":"m 239 359 l 408 359 l 200 0 l 31 0 l 239 359 m 358 734 l 673 734 l 673 0 l 510 0 l 510 605 l 358 605 q 282 589 312 605 q 238 548 252 573 q 224 496 224 522 q 237 445 224 469 q 278 405 250 420 q 349 389 307 389 l 565 389 l 565 270 l 349 270 q 228 287 281 270 q 137 335 174 304 q 80 408 100 366 q 60 499 60 450 q 81 593 60 550 q 139 667 101 635 q 233 716 178 699 q 358 734 288 734 z "},"ђ":{"ha":772,"x_min":-28,"x_max":690,"o":"m 526 313 l 690 313 l 690 -42 q 662 -181 690 -124 q 579 -267 633 -238 q 450 -296 526 -296 q 406 -294 427 -296 q 361 -285 385 -292 l 371 -158 q 404 -164 384 -162 q 439 -166 424 -166 q 486 -152 467 -166 q 516 -109 506 -137 q 526 -42 526 -81 l 526 313 m 245 1042 l 245 0 l 83 0 l 83 1042 l 245 1042 m 217 394 l 164 395 q 185 535 165 471 q 244 647 206 600 q 334 721 281 695 q 452 747 387 747 q 550 732 506 747 q 625 685 593 718 q 674 599 657 652 q 690 471 690 547 l 690 0 l 526 0 l 526 473 q 511 557 526 526 q 467 602 496 588 q 395 616 437 616 q 318 598 351 616 q 262 550 284 581 q 228 479 239 519 q 217 394 217 439 m 428 926 l 428 814 l -28 814 l -28 926 l 428 926 z "},"є":{"ha":733,"x_min":56,"x_max":687,"o":"m 459 418 l 459 307 l 139 307 l 139 418 l 459 418 m 387 117 q 459 133 427 117 q 511 177 491 149 q 533 243 531 205 l 687 243 q 644 113 685 172 q 537 21 604 55 q 389 -14 470 -14 q 242 15 304 -14 q 138 95 179 44 q 76 212 96 146 q 56 355 56 279 l 56 378 q 76 521 56 454 q 138 639 96 588 q 242 719 180 690 q 388 747 304 747 q 542 712 475 747 q 647 615 609 677 q 687 471 685 553 l 533 471 q 513 545 531 512 q 463 597 495 578 q 386 617 431 617 q 303 597 336 617 q 252 543 271 577 q 227 466 234 509 q 219 378 219 424 l 219 355 q 227 267 219 309 q 253 190 234 224 q 304 137 271 157 q 387 117 336 117 z "},"љ":{"ha":1187,"x_min":20,"x_max":1149,"o":"m 177 734 l 338 734 l 319 371 q 303 229 315 290 q 272 124 292 168 q 223 53 252 80 q 157 13 195 26 q 71 0 119 0 l 20 0 l 20 134 l 46 136 q 89 150 71 138 q 120 182 107 161 q 142 236 133 203 q 156 315 151 269 q 163 420 161 360 l 177 734 m 563 734 l 563 604 l 215 604 l 215 734 l 563 734 m 636 478 l 852 478 q 1014 448 947 478 q 1115 363 1080 417 q 1149 241 1149 310 q 1130 145 1149 189 q 1072 68 1110 101 q 979 18 1034 36 q 852 0 924 0 l 528 0 l 528 734 l 691 734 l 691 129 l 852 129 q 930 145 901 129 q 973 188 960 162 q 986 242 986 214 q 973 294 986 270 q 930 334 960 319 q 852 349 901 349 l 636 349 l 636 478 z "},"њ":{"ha":1196,"x_min":90,"x_max":1162,"o":"m 585 453 l 585 324 l 205 324 l 205 453 l 585 453 m 253 734 l 253 0 l 90 0 l 90 734 l 253 734 m 648 478 l 864 478 q 1026 448 960 478 q 1127 363 1093 417 q 1162 241 1162 310 q 1143 145 1162 189 q 1085 68 1123 101 q 991 18 1046 36 q 864 0 935 0 l 540 0 l 540 734 l 703 734 l 703 129 l 864 129 q 942 145 913 129 q 985 188 972 162 q 998 242 998 214 q 985 294 998 270 q 942 334 972 319 q 864 349 913 349 l 648 349 l 648 478 z "},"ћ":{"ha":785,"x_min":-16,"x_max":690,"o":"m 245 1042 l 245 0 l 83 0 l 83 1042 l 245 1042 m 217 394 l 164 395 q 185 535 165 471 q 244 647 206 600 q 334 721 281 695 q 452 747 387 747 q 550 732 506 747 q 625 685 593 718 q 674 599 657 652 q 690 471 690 547 l 690 0 l 526 0 l 526 473 q 511 557 526 526 q 467 602 496 588 q 395 616 437 616 q 318 598 351 616 q 262 550 284 581 q 228 479 239 519 q 217 394 217 439 m 439 932 l 439 819 l -16 819 l -16 932 l 439 932 z "},"џ":{"ha":793,"x_min":90,"x_max":705,"o":"m 316 130 l 480 130 l 480 -242 l 316 -242 l 316 130 m 90 734 l 253 734 l 253 130 l 541 130 l 541 734 l 705 734 l 705 0 l 90 0 l 90 734 z "},"Ѡ":{"ha":1275,"x_min":92,"x_max":1182,"o":"m 551 987 l 689 987 l 689 293 q 668 159 689 217 q 607 63 646 102 q 516 5 568 24 q 401 -14 464 -14 q 278 5 334 -14 q 180 63 222 24 q 115 159 138 102 q 92 293 92 217 l 92 987 l 262 987 l 262 293 q 273 216 262 249 q 301 162 283 184 q 345 131 319 141 q 401 121 370 121 q 480 139 446 121 q 532 196 513 158 q 551 293 551 234 l 551 987 m 1012 987 l 1182 987 l 1182 293 q 1141 123 1182 192 q 1029 20 1100 55 q 868 -14 959 -14 q 756 5 808 -14 q 666 63 704 24 q 607 159 628 102 q 585 293 585 217 l 585 987 l 724 987 l 724 293 q 734 216 724 249 q 764 162 745 184 q 810 131 783 141 q 868 121 836 121 q 943 139 911 121 q 994 196 976 158 q 1012 293 1012 234 l 1012 987 z "},"ѡ":{"ha":1114,"x_min":77,"x_max":1044,"o":"m 480 734 l 613 734 l 613 272 q 594 147 613 201 q 539 58 574 94 q 456 4 505 22 q 351 -14 408 -14 q 241 4 292 -14 q 155 58 191 22 q 98 147 118 94 q 77 272 77 201 l 77 734 l 241 734 l 241 272 q 249 202 241 232 q 272 154 257 173 q 306 125 286 135 q 351 116 326 116 q 419 133 390 116 q 464 184 448 149 q 480 272 480 218 l 480 734 m 880 734 l 1044 734 l 1044 272 q 1008 114 1044 177 q 908 18 972 50 q 764 -14 845 -14 q 662 4 708 -14 q 582 58 615 22 q 530 147 548 94 q 511 272 511 201 l 511 734 l 644 734 l 644 272 q 652 202 644 232 q 676 154 661 173 q 714 125 692 135 q 764 116 736 116 q 812 125 790 116 q 849 154 833 135 q 872 202 864 173 q 880 272 880 232 l 880 734 z "},"ѣ":{"ha":765,"x_min":-21,"x_max":718,"o":"m 205 521 l 420 521 q 583 487 516 521 q 684 396 649 454 q 718 262 718 338 q 684 128 718 187 q 583 34 649 68 q 420 0 516 0 l 96 0 l 96 1057 l 260 1057 l 260 130 l 420 130 q 499 148 469 130 q 542 196 528 166 q 555 260 555 226 q 542 322 555 292 q 499 372 528 353 q 420 391 469 391 l 205 391 l 205 521 m 454 847 l 454 734 l -21 734 l -21 847 l 454 847 z "},"Ѥ":{"ha":1242,"x_min":103,"x_max":1185,"o":"m 895 574 l 895 444 l 214 444 l 214 574 l 895 574 m 1015 322 l 1184 322 q 1129 150 1176 225 q 1000 31 1083 74 q 797 -13 917 -13 q 632 20 705 -13 q 507 114 559 53 q 427 260 455 174 q 399 453 399 347 l 399 535 q 428 728 399 642 q 509 875 456 814 q 636 969 562 937 q 803 1002 711 1002 q 1003 958 921 1002 q 1130 838 1084 915 q 1185 663 1175 762 l 1015 663 q 986 772 1008 726 q 919 841 963 817 q 803 865 875 865 q 702 844 746 865 q 629 780 659 822 q 586 676 600 738 q 571 536 571 615 l 571 453 q 579 342 571 393 q 605 251 588 291 q 649 182 623 210 q 712 138 675 153 q 797 123 749 123 q 915 146 869 123 q 983 213 960 169 q 1015 322 1007 258 m 273 987 l 273 0 l 103 0 l 103 987 l 273 987 z "},"ѥ":{"ha":1043,"x_min":91,"x_max":994,"o":"m 783 424 l 783 311 l 190 311 l 190 424 l 783 424 m 694 117 q 766 133 734 117 q 819 177 799 149 q 840 243 838 205 l 994 243 q 951 113 992 172 q 844 21 911 55 q 696 -14 777 -14 q 549 15 612 -14 q 445 95 486 44 q 383 212 404 146 q 363 355 363 279 l 363 378 q 383 521 363 454 q 445 639 404 588 q 549 719 487 690 q 695 747 611 747 q 850 712 783 747 q 954 615 916 677 q 994 471 992 553 l 840 471 q 820 545 838 512 q 770 597 802 578 q 693 617 738 617 q 611 597 644 617 q 560 543 578 577 q 534 466 542 509 q 526 378 526 424 l 526 355 q 534 267 526 309 q 560 190 541 224 q 611 137 578 157 q 694 117 644 117 m 254 734 l 254 0 l 91 0 l 91 734 l 254 734 z "},"Ѧ":{"ha":883,"x_min":18,"x_max":886,"o":"m 496 892 l 195 0 l 18 0 l 369 987 l 469 987 l 496 892 m 709 0 l 410 897 l 439 987 l 538 987 l 886 0 l 709 0 m 697 416 l 697 292 l 191 292 l 191 416 l 697 416 m 524 366 l 524 0 l 374 0 l 374 366 l 524 366 z "},"ѧ":{"ha":762,"x_min":7,"x_max":743,"o":"m 355 486 l 175 0 l 7 0 l 296 734 l 418 734 l 355 486 m 576 0 l 393 486 l 331 734 l 454 734 l 743 0 l 576 0 m 604 307 l 604 193 l 151 193 l 151 307 l 604 307 m 437 264 l 437 0 l 311 0 l 311 264 l 437 264 z "},"Ѩ":{"ha":1266,"x_min":117,"x_max":1251,"o":"m 612 416 l 612 292 l 221 292 l 221 416 l 612 416 m 861 892 l 559 0 l 382 0 l 734 987 l 833 987 l 861 892 m 1074 0 l 774 897 l 804 987 l 903 987 l 1251 0 l 1074 0 m 1062 416 l 1062 292 l 556 292 l 556 416 l 1062 416 m 888 366 l 888 0 l 739 0 l 739 366 l 888 366 m 287 987 l 287 0 l 117 0 l 117 987 l 287 987 z "},"ѩ":{"ha":1083,"x_min":104,"x_max":1061,"o":"m 545 307 l 545 193 l 157 193 l 157 307 l 545 307 m 673 486 l 494 0 l 326 0 l 614 734 l 737 734 l 673 486 m 895 0 l 711 486 l 650 734 l 773 734 l 1061 0 l 895 0 m 924 307 l 924 193 l 470 193 l 470 307 l 924 307 m 755 264 l 755 0 l 630 0 l 630 264 l 755 264 m 269 734 l 269 0 l 104 0 l 104 734 l 269 734 z "},"Ѫ":{"ha":1197,"x_min":85,"x_max":1112,"o":"m 256 0 l 85 0 l 85 239 q 127 419 85 352 q 247 516 169 486 q 435 546 325 546 l 762 546 q 950 516 872 546 q 1070 419 1029 486 q 1112 239 1112 352 l 1112 0 l 942 0 l 942 239 q 922 343 942 306 q 863 395 903 380 q 762 410 823 410 l 435 410 q 300 375 345 410 q 256 239 256 339 l 256 0 m 876 987 l 876 851 l 344 851 l 344 987 l 876 987 m 562 473 l 842 987 l 1031 987 l 684 395 l 584 395 l 562 473 m 373 987 l 655 469 l 631 395 l 532 395 l 184 987 l 373 987 m 690 522 l 690 0 l 520 0 l 520 522 l 690 522 z "},"ѫ":{"ha":1018,"x_min":87,"x_max":931,"o":"m 251 0 l 87 0 l 87 118 q 125 291 87 226 q 233 384 162 355 q 401 413 303 413 l 617 413 q 785 384 715 413 q 893 291 855 355 q 931 118 931 226 l 931 0 l 767 0 l 767 118 q 751 221 767 184 q 701 273 734 258 q 617 288 668 288 l 401 288 q 317 273 351 288 q 267 221 283 258 q 251 118 251 184 l 251 0 m 769 734 l 769 618 l 280 618 l 280 734 l 769 734 m 475 340 l 679 734 l 858 734 l 586 274 l 494 274 l 475 340 m 349 734 l 555 336 l 534 274 l 442 274 l 170 734 l 349 734 m 593 373 l 593 0 l 430 0 l 430 373 l 593 373 z "},"Ѭ":{"ha":1591,"x_min":112,"x_max":1506,"o":"m 869 547 l 869 417 l 230 417 l 230 547 l 869 547 m 282 987 l 282 0 l 112 0 l 112 987 l 282 987 m 650 0 l 480 0 l 480 239 q 522 419 480 352 q 641 516 563 486 q 829 546 720 546 l 1157 546 q 1345 516 1267 546 q 1464 419 1423 486 q 1506 239 1506 352 l 1506 0 l 1336 0 l 1336 239 q 1316 343 1336 306 q 1257 395 1297 380 q 1157 410 1217 410 l 829 410 q 694 375 739 410 q 650 239 650 339 l 650 0 m 1271 987 l 1271 851 l 738 851 l 738 987 l 1271 987 m 956 473 l 1237 987 l 1426 987 l 1077 395 l 979 395 l 956 473 m 767 987 l 1050 469 l 1025 395 l 926 395 l 578 987 l 767 987 m 1084 522 l 1084 0 l 914 0 l 914 522 l 1084 522 z "},"ѭ":{"ha":1377,"x_min":98,"x_max":1290,"o":"m 835 413 l 835 290 l 163 290 l 163 413 l 835 413 m 261 734 l 261 0 l 98 0 l 98 734 l 261 734 m 610 0 l 446 0 l 446 118 q 484 291 446 226 q 591 384 521 355 q 760 413 662 413 l 976 413 q 1144 384 1074 413 q 1252 291 1214 355 q 1290 118 1290 226 l 1290 0 l 1126 0 l 1126 118 q 1109 221 1126 184 q 1060 273 1093 258 q 976 288 1027 288 l 760 288 q 676 273 709 288 q 626 221 642 258 q 610 118 610 184 l 610 0 m 1128 734 l 1128 618 l 639 618 l 639 734 l 1128 734 m 834 340 l 1038 734 l 1217 734 l 945 274 l 853 274 l 834 340 m 708 734 l 914 336 l 892 274 l 801 274 l 528 734 l 708 734 m 952 373 l 952 0 l 789 0 l 789 373 l 952 373 z "},"Ѯ":{"ha":716,"x_min":27,"x_max":641,"o":"m 86 987 l 277 987 q 415 971 353 987 q 523 921 477 954 q 592 839 568 888 q 617 726 617 790 q 593 622 617 668 q 524 544 568 576 q 416 495 479 512 q 277 477 353 477 l 174 477 l 174 572 l 273 572 q 377 591 338 572 q 435 643 416 610 q 453 718 453 675 q 434 788 453 757 q 377 837 416 819 q 277 855 338 855 l 86 855 l 86 987 m 174 532 l 273 532 q 429 515 361 532 q 545 466 497 498 q 616 386 592 433 q 641 276 641 338 q 616 153 641 207 q 547 62 591 99 q 440 6 502 25 q 305 -14 379 -14 l 267 -14 q 199 -33 220 -14 q 178 -84 178 -53 q 196 -140 178 -117 q 239 -177 214 -163 q 282 -200 263 -191 l 229 -301 q 126 -252 171 -285 q 54 -173 81 -220 q 27 -67 28 -126 q 56 38 27 -3 q 137 99 85 79 q 261 119 189 119 l 299 119 q 374 130 340 119 q 430 162 407 142 q 465 212 453 183 q 477 273 477 240 q 463 346 477 315 q 424 398 450 377 q 359 430 398 419 q 271 440 321 440 l 174 440 l 174 532 m 248 1307 l 349 1200 l 451 1307 l 591 1307 l 591 1299 l 401 1112 l 298 1112 l 109 1300 l 109 1307 l 248 1307 z "},"ѯ":{"ha":687,"x_min":34,"x_max":614,"o":"m 85 734 l 273 734 q 402 721 344 734 q 502 682 460 708 q 568 617 545 656 q 591 528 591 578 q 568 449 591 484 q 505 389 546 414 q 407 350 464 363 q 279 337 349 337 l 171 337 l 171 422 l 276 422 q 363 434 330 422 q 412 469 397 447 q 427 521 427 492 q 417 557 427 541 q 390 586 408 574 q 342 604 371 597 q 273 611 313 611 l 85 611 l 85 734 m 171 392 l 276 392 q 419 380 357 392 q 526 344 482 368 q 591 286 569 320 q 614 206 614 251 q 592 114 614 155 q 529 45 570 73 q 431 1 488 16 q 307 -14 374 -14 l 274 -14 q 201 -33 222 -14 q 180 -84 180 -53 q 197 -140 180 -117 q 237 -177 214 -163 q 277 -200 260 -191 l 225 -296 q 133 -246 176 -278 q 62 -169 90 -214 q 34 -67 35 -123 q 61 32 34 -7 q 139 90 89 71 q 256 109 189 109 l 290 109 q 357 116 328 109 q 408 137 387 123 q 439 168 429 150 q 450 208 450 186 q 439 253 450 234 q 405 285 427 272 q 349 304 382 298 q 273 311 316 311 l 171 311 l 171 392 m 216 1060 l 317 954 l 418 1060 l 559 1060 l 559 1053 l 369 865 l 266 865 l 76 1053 l 76 1060 l 216 1060 z "},"Ѳ":{"ha":951,"x_min":65,"x_max":885,"o":"m 475 1001 q 611 980 548 1001 q 725 918 675 958 q 811 819 775 877 q 866 685 847 760 q 885 521 885 610 l 885 467 q 856 266 885 355 q 772 115 827 177 q 643 19 718 52 q 476 -14 568 -14 q 341 8 404 -14 q 228 70 278 29 q 140 169 177 110 q 84 302 104 227 q 65 467 65 377 l 65 521 q 95 721 65 633 q 179 872 125 810 q 309 968 234 935 q 475 1001 385 1001 m 475 862 q 385 844 426 862 q 314 792 344 827 q 264 707 283 758 q 239 590 245 656 q 237 570 238 581 q 237 549 237 559 l 714 549 q 713 569 713 559 q 711 589 713 580 q 687 707 705 656 q 638 792 668 758 q 567 844 608 827 q 475 862 526 862 m 476 125 q 569 143 528 125 q 640 197 610 161 q 688 285 670 233 q 712 405 707 337 q 713 420 713 412 q 713 435 713 428 l 237 435 q 238 416 237 425 q 239 397 239 406 q 265 280 246 331 q 315 195 284 229 q 386 142 345 160 q 476 125 427 125 z "},"ѳ":{"ha":787,"x_min":52,"x_max":734,"o":"m 393 747 q 537 719 473 747 q 645 641 601 691 q 711 522 688 590 q 734 374 734 454 l 734 359 q 711 212 734 279 q 645 93 688 144 q 538 15 601 43 q 394 -14 475 -14 q 250 15 313 -14 q 142 93 186 43 q 75 212 98 144 q 52 359 52 279 l 52 374 q 75 522 52 454 q 142 641 98 590 q 249 719 186 691 q 393 747 313 747 m 393 617 q 322 602 353 617 q 270 561 291 587 q 236 499 248 534 q 218 424 223 464 l 568 424 q 551 499 564 464 q 517 561 538 534 q 464 602 495 587 q 393 617 433 617 m 394 117 q 465 131 434 117 q 517 173 496 146 q 551 235 538 199 q 568 311 564 270 l 218 311 q 235 235 222 270 q 269 173 248 199 q 322 131 291 146 q 394 117 353 117 z "},"Ѵ":{"ha":884,"x_min":11,"x_max":861,"o":"m 447 258 l 604 782 q 657 904 627 855 q 730 976 688 952 q 833 1000 773 1000 l 861 1000 l 860 857 l 845 857 q 807 847 824 857 q 778 818 791 838 q 755 769 765 799 l 514 0 l 387 0 l 447 258 m 193 987 l 412 259 l 473 0 l 346 0 l 11 987 l 193 987 z "},"ѵ":{"ha":703,"x_min":20,"x_max":712,"o":"m 354 247 l 437 552 q 487 662 458 618 q 555 726 516 705 q 641 747 593 747 q 678 745 661 747 q 712 733 696 743 l 696 606 q 684 608 694 607 q 664 610 673 610 q 634 601 648 610 q 608 578 619 593 q 590 543 597 563 l 412 0 l 302 0 l 354 247 m 190 734 l 324 247 l 376 0 l 266 0 l 20 734 l 190 734 z "},"Ѻ":{"ha":951,"x_min":65,"x_max":885,"o":"m 539 1073 l 539 786 l 412 786 l 412 1073 l 539 1073 m 540 199 l 540 -94 l 412 -94 l 412 199 l 540 199 m 885 521 l 885 467 q 856 266 885 355 q 772 115 827 177 q 643 19 718 52 q 476 -14 568 -14 q 341 8 404 -14 q 228 70 278 29 q 140 169 177 110 q 84 302 104 227 q 65 467 65 377 l 65 521 q 95 721 65 633 q 179 872 125 810 q 309 968 234 935 q 475 1001 385 1001 q 611 980 548 1001 q 725 918 675 958 q 811 819 775 877 q 866 685 847 760 q 885 521 885 610 m 714 467 l 714 522 q 704 642 714 588 q 674 737 694 696 q 625 806 654 778 q 558 848 596 833 q 475 862 521 862 q 375 840 419 862 q 300 775 331 818 q 253 668 269 732 q 236 522 236 605 l 236 467 q 247 346 236 400 q 278 251 258 292 q 328 181 298 210 q 394 139 357 153 q 476 125 432 125 q 578 147 534 125 q 652 213 622 169 q 699 320 683 256 q 714 467 714 384 z "},"ѻ":{"ha":785,"x_min":53,"x_max":735,"o":"m 452 817 l 452 541 l 336 541 l 336 817 l 452 817 m 450 199 l 450 -83 l 334 -83 l 334 199 l 450 199 m 53 359 l 53 374 q 76 522 53 454 q 143 641 99 590 q 250 719 186 691 q 393 747 313 747 q 537 719 474 747 q 645 641 601 691 q 712 522 689 590 q 735 374 735 454 l 735 359 q 712 212 735 279 q 645 93 689 144 q 538 15 601 43 q 395 -14 475 -14 q 251 15 314 -14 q 143 93 187 43 q 76 212 99 144 q 53 359 53 279 m 216 374 l 216 359 q 227 265 216 309 q 258 188 237 221 q 314 136 280 155 q 395 117 348 117 q 474 136 440 117 q 529 188 507 155 q 561 265 551 221 q 572 359 572 309 l 572 374 q 561 467 572 423 q 529 545 551 511 q 473 598 507 578 q 393 617 439 617 q 314 598 347 617 q 258 545 280 578 q 227 467 237 511 q 216 374 216 423 z "},"Ѽ":{"ha":1272,"x_min":92,"x_max":1173,"o":"m 919 1171 l 938 1171 l 938 1083 l 918 1083 q 813 1096 860 1083 q 727 1125 766 1109 q 656 1154 688 1141 q 593 1167 623 1167 q 540 1149 560 1167 q 519 1095 519 1132 l 519 1083 l 432 1083 l 432 1107 q 474 1219 432 1183 q 591 1255 517 1255 q 668 1243 631 1255 q 742 1213 705 1230 q 823 1184 780 1196 q 919 1171 866 1171 m 606 883 l 553 921 q 587 972 575 948 q 599 1023 599 997 l 599 1087 l 709 1087 l 709 1018 q 692 965 709 992 q 652 917 675 939 q 606 883 628 895 m 401 987 l 401 852 q 329 832 360 852 q 280 771 298 812 q 262 666 262 730 l 262 307 q 273 224 262 259 q 301 166 283 189 q 345 132 319 143 q 401 121 370 121 q 480 139 446 121 q 532 196 513 158 q 551 293 551 234 l 551 557 l 689 557 l 689 293 q 668 159 689 217 q 607 63 646 102 q 516 5 568 24 q 401 -14 464 -14 q 278 6 334 -14 q 180 67 222 26 q 115 167 138 107 q 92 307 92 227 l 92 666 q 133 844 92 772 q 243 951 173 915 q 401 987 313 987 m 865 852 l 865 987 q 988 967 931 987 q 1086 906 1044 947 q 1150 806 1127 866 q 1173 666 1173 745 l 1173 307 q 1150 167 1173 227 q 1086 67 1127 107 q 988 6 1044 26 q 865 -14 931 -14 q 750 5 803 -14 q 659 63 698 24 q 598 159 620 102 q 577 293 577 217 l 577 557 l 715 557 l 715 293 q 726 216 715 249 q 756 162 736 184 q 804 131 776 141 q 865 121 831 121 q 921 132 895 121 q 964 166 946 143 q 993 224 983 189 q 1004 307 1004 259 l 1004 666 q 993 749 1004 713 q 964 807 983 784 q 921 841 946 829 q 865 852 895 852 z "},"ѽ":{"ha":1100,"x_min":79,"x_max":1020,"o":"m 846 937 l 866 937 l 866 850 l 844 850 q 739 862 786 850 q 653 891 692 875 q 583 921 615 908 q 520 933 550 933 q 467 916 488 933 q 446 861 446 899 l 446 849 l 359 849 l 359 873 q 401 985 359 949 q 518 1021 444 1021 q 594 1009 558 1021 q 668 979 631 996 q 749 950 706 962 q 846 937 792 937 m 534 648 l 482 686 q 516 738 505 713 q 528 787 528 762 l 528 852 l 637 852 l 637 783 q 621 730 637 757 q 581 682 604 704 q 534 648 557 660 m 361 743 l 361 614 q 300 596 327 614 q 258 541 273 578 q 243 446 243 504 l 243 283 q 251 209 243 240 q 273 156 259 177 q 307 126 288 136 q 350 116 326 116 q 399 125 377 116 q 437 154 421 135 q 462 202 453 173 q 471 272 471 232 l 471 406 l 597 406 l 597 272 q 579 147 597 201 q 528 58 561 94 q 449 4 494 22 q 350 -14 404 -14 q 242 4 292 -14 q 156 60 193 23 q 100 154 120 98 q 79 283 79 210 l 79 446 q 116 611 79 545 q 216 710 153 677 q 361 743 280 743 m 738 614 l 738 743 q 850 725 799 743 q 940 669 902 706 q 999 576 978 631 q 1020 446 1020 520 l 1020 283 q 1000 154 1020 210 q 943 60 980 98 q 857 4 907 23 q 749 -14 808 -14 q 651 4 696 -14 q 572 58 606 22 q 520 147 538 94 q 502 272 502 201 l 502 406 l 629 406 l 629 272 q 637 202 629 232 q 662 154 646 173 q 700 125 678 135 q 749 116 722 116 q 792 126 772 116 q 827 156 812 136 q 849 209 841 177 q 857 283 857 240 l 857 446 q 848 521 857 490 q 824 573 840 553 q 786 604 808 593 q 738 614 764 614 z "},"Ѿ":{"ha":1275,"x_min":92,"x_max":1182,"o":"m 574 1145 l 351 1145 l 351 1226 l 927 1226 l 928 1145 l 692 1145 l 692 1059 l 574 1059 l 574 1145 m 551 987 l 689 987 l 689 293 q 668 159 689 217 q 607 63 646 102 q 516 5 568 24 q 401 -14 464 -14 q 278 5 334 -14 q 180 63 222 24 q 115 159 138 102 q 92 293 92 217 l 92 987 l 262 987 l 262 293 q 273 216 262 249 q 301 162 283 184 q 345 131 319 141 q 401 121 370 121 q 480 139 446 121 q 532 196 513 158 q 551 293 551 234 l 551 987 m 1012 987 l 1182 987 l 1182 293 q 1141 123 1182 192 q 1029 20 1100 55 q 868 -14 959 -14 q 756 5 808 -14 q 666 63 704 24 q 607 159 628 102 q 585 293 585 217 l 585 987 l 724 987 l 724 293 q 734 216 724 249 q 764 162 745 184 q 810 131 783 141 q 868 121 836 121 q 943 139 911 121 q 994 196 976 158 q 1012 293 1012 234 l 1012 987 z "},"ѿ":{"ha":1114,"x_min":77,"x_max":1044,"o":"m 498 907 l 286 907 l 286 988 l 840 988 l 843 907 l 616 907 l 616 821 l 498 821 l 498 907 m 480 734 l 613 734 l 613 272 q 594 147 613 201 q 539 58 574 94 q 456 4 505 22 q 351 -14 408 -14 q 241 4 292 -14 q 155 58 191 22 q 98 147 118 94 q 77 272 77 201 l 77 734 l 241 734 l 241 272 q 249 202 241 232 q 272 154 257 173 q 306 125 286 135 q 351 116 326 116 q 419 133 390 116 q 464 184 448 149 q 480 272 480 218 l 480 734 m 880 734 l 1044 734 l 1044 272 q 1008 114 1044 177 q 908 18 972 50 q 764 -14 845 -14 q 662 4 708 -14 q 582 58 615 22 q 530 147 548 94 q 511 272 511 201 l 511 734 l 644 734 l 644 272 q 652 202 644 232 q 676 154 661 173 q 714 125 692 135 q 764 116 736 116 q 812 125 790 116 q 849 154 833 135 q 872 202 864 173 q 880 272 880 232 l 880 734 z "},"Ҁ":{"ha":879,"x_min":70,"x_max":815,"o":"m 448 121 l 448 -14 q 321 5 380 -14 q 216 62 262 25 q 137 151 170 99 q 87 266 104 202 q 70 401 70 329 l 70 586 q 97 753 70 677 q 174 885 123 829 q 294 971 224 941 q 449 1002 363 1002 q 645 962 563 1002 q 770 848 726 923 q 815 665 814 772 l 646 665 q 624 776 645 731 q 559 843 602 821 q 449 866 516 866 q 359 845 399 866 q 294 786 320 824 q 253 697 267 748 q 239 587 239 646 l 239 401 q 248 311 239 354 q 274 234 257 269 q 317 173 292 199 q 375 134 342 148 q 448 121 408 121 m 556 121 l 556 -251 l 387 -251 l 387 121 l 556 121 z "},"ҁ":{"ha":743,"x_min":63,"x_max":686,"o":"m 394 116 l 394 -14 q 252 15 313 -14 q 148 94 190 43 q 84 212 106 145 q 63 355 63 279 l 63 378 q 84 521 63 454 q 148 639 106 588 q 252 719 190 690 q 393 747 313 747 q 545 712 479 747 q 649 615 612 677 q 686 471 686 553 l 532 471 q 515 545 532 512 q 467 598 498 578 q 393 617 435 617 q 315 597 347 617 q 264 543 283 577 q 236 466 245 509 q 227 378 227 424 l 227 355 q 236 267 227 309 q 264 190 245 224 q 315 136 283 156 q 394 116 348 116 m 495 116 l 495 -253 l 332 -253 l 332 116 l 495 116 z "},"҂":{"ha":865,"x_min":76,"x_max":792,"o":"m 547 549 l 407 304 l 603 187 l 555 102 l 358 217 l 235 0 l 119 0 l 272 270 l 76 386 l 123 471 l 321 355 l 460 601 l 263 717 l 311 803 l 509 687 l 635 910 l 749 910 l 593 635 l 792 519 l 742 434 l 547 549 z "},"҃":{"ha":0,"x_min":-618,"x_max":-136,"o":"m -136 892 l -503 892 l -503 806 l -618 807 l -618 966 l -250 966 l -251 1039 l -136 1038 l -136 892 z "},"҄":{"ha":0,"x_min":-615,"x_max":-101,"o":"m -615 972 l -595 972 q -497 984 -541 972 q -415 1014 -453 997 q -339 1043 -376 1031 q -262 1056 -302 1056 q -144 1020 -187 1056 q -101 908 -101 983 l -101 884 l -190 884 l -190 896 q -210 950 -190 933 q -265 968 -231 968 q -328 955 -295 968 q -400 926 -361 943 q -487 897 -439 909 q -593 884 -534 884 l -615 884 l -615 972 z "},"҅":{"ha":0,"x_min":-433,"x_max":-269,"o":"m -323 885 l -433 1017 l -433 1108 l -309 1108 l -309 1006 l -269 930 l -323 885 z "},"҆":{"ha":0,"x_min":-408,"x_max":-245,"o":"m -245 1017 l -355 885 l -408 930 l -369 1006 l -370 1108 l -245 1108 l -245 1017 z "},"҈":{"ha":0,"x_min":-1016,"x_max":305,"o":"m -431 859 l -508 859 q -470 951 -508 916 q -366 987 -431 987 q -261 951 -299 987 q -222 859 -222 916 l -298 859 q -314 907 -298 886 q -366 928 -329 928 q -416 907 -401 928 q -431 859 -431 886 m -30 671 l -107 671 q -69 763 -107 728 q 35 799 -31 799 q 140 763 102 799 q 179 671 179 728 l 102 671 q 87 719 102 699 q 35 740 73 740 q -15 719 0 740 q -30 671 -30 699 m 96 330 l 20 330 q 58 422 20 387 q 162 458 96 458 q 267 422 229 458 q 305 330 305 387 l 229 330 q 214 378 229 357 q 162 399 199 399 q 112 378 127 399 q 96 330 96 357 m -37 -22 l -114 -22 q -76 70 -114 35 q 28 106 -37 106 q 133 70 95 106 q 172 -22 172 35 l 96 -22 q 81 26 96 5 q 28 47 66 47 q -22 26 -7 47 q -37 -22 -37 5 m -428 -214 l -505 -214 q -466 -122 -505 -158 q -362 -87 -428 -87 q -257 -122 -296 -87 q -219 -214 -219 -158 l -295 -214 q -310 -166 -295 -187 q -362 -146 -326 -146 q -413 -166 -397 -146 q -428 -214 -428 -187 m -819 671 l -897 671 q -858 763 -897 728 q -753 799 -819 799 q -649 763 -687 799 q -610 671 -610 728 l -686 671 q -702 719 -686 699 q -753 740 -717 740 q -804 719 -789 740 q -819 671 -819 699 m -939 330 l -1016 330 q -978 422 -1016 387 q -873 458 -939 458 q -769 422 -807 458 q -730 330 -730 387 l -806 330 q -821 378 -806 357 q -873 399 -836 399 q -924 378 -909 399 q -939 330 -939 357 m -826 -22 l -903 -22 q -865 70 -903 35 q -761 106 -827 106 q -656 70 -694 106 q -617 -22 -617 35 l -694 -22 q -709 26 -694 5 q -761 47 -724 47 q -811 26 -796 47 q -826 -22 -826 5 z "},"҉":{"ha":0,"x_min":-987,"x_max":273,"o":"m -383 -41 l -290 -41 l -283 -50 l -366 -280 l -431 -280 l -383 -41 m -330 764 l -422 764 l -431 773 l -348 1002 l -283 1002 l -330 764 m 38 334 l 38 428 l 47 436 l 273 352 l 273 286 l 38 334 m -752 388 l -752 294 l -761 286 l -987 370 l -987 436 l -752 388 m -60 612 l -125 680 l -124 690 l 94 794 l 140 748 l -60 612 m -655 81 l -589 14 l -591 3 l -808 -101 l -854 -54 l -655 81 m -618 650 l -684 583 l -696 585 l -796 806 l -752 852 l -618 650 m -98 42 l -31 109 l -20 108 l 81 -113 l 37 -161 l -98 42 z "},"Ҋ":{"ha":1063,"x_min":99,"x_max":1014,"o":"m 269 277 l 707 987 l 877 987 l 877 0 l 707 0 l 707 711 l 269 0 l 99 0 l 99 987 l 269 987 l 269 277 m 589 1240 l 711 1240 q 684 1141 711 1184 q 608 1074 657 1098 q 491 1049 559 1049 q 329 1102 389 1049 q 270 1240 270 1156 l 391 1240 q 414 1174 391 1202 q 491 1145 437 1145 q 567 1174 545 1145 q 589 1240 589 1202 m 1014 119 l 1013 3 q 979 -140 1013 -66 q 887 -260 944 -213 l 800 -210 q 834 -148 819 -179 q 859 -81 850 -117 q 869 -3 869 -46 l 869 119 l 1014 119 z "},"ҋ":{"ha":881,"x_min":90,"x_max":843,"o":"m 253 239 l 541 734 l 705 734 l 705 0 l 541 0 l 541 496 l 253 0 l 90 0 l 90 734 l 253 734 l 253 239 m 498 1016 l 619 1016 q 592 917 619 960 q 516 849 566 873 q 399 825 467 825 q 238 878 297 825 q 178 1016 178 931 l 300 1016 q 322 949 300 978 q 399 920 345 920 q 475 949 453 920 q 498 1016 498 978 m 842 119 l 842 3 q 807 -140 842 -66 q 715 -260 772 -213 l 628 -210 q 663 -148 647 -179 q 688 -81 678 -117 q 697 -3 697 -46 l 697 119 l 842 119 z "},"ҍ":{"ha":765,"x_min":-21,"x_max":718,"o":"m 205 521 l 420 521 q 583 487 516 521 q 684 396 649 454 q 718 262 718 338 q 684 128 718 187 q 583 34 649 68 q 420 0 516 0 l 96 0 l 96 1107 l 260 1107 l 260 130 l 420 130 q 499 148 469 130 q 542 196 528 166 q 555 260 555 226 q 542 322 555 292 q 499 372 528 353 q 420 391 469 391 l 205 391 l 205 521 m 454 987 l 454 875 l -21 875 l -21 987 l 454 987 z "},"Ҏ":{"ha":879,"x_min":100,"x_max":835,"o":"m 558 671 l 833 368 l 762 304 l 488 606 l 558 671 m 475 368 l 218 368 l 218 503 l 475 503 q 584 525 543 503 q 645 585 625 547 q 664 673 664 623 q 645 761 664 720 q 584 827 625 802 q 475 852 543 852 l 270 852 l 270 0 l 100 0 l 100 987 l 475 987 q 670 947 590 987 q 792 836 750 907 q 835 674 835 765 q 793 510 835 578 q 670 405 751 441 q 475 368 590 368 z "},"ҏ":{"ha":785,"x_min":85,"x_max":726,"o":"m 477 289 l 720 5 l 649 -59 l 405 224 l 477 289 m 248 593 l 248 -282 l 85 -282 l 85 734 l 235 734 l 248 593 m 726 374 l 726 359 q 708 211 726 279 q 653 93 689 143 q 564 14 616 42 q 441 -14 511 -14 q 322 12 373 -14 q 235 84 271 37 q 179 194 200 131 q 149 334 157 258 l 149 389 q 179 535 157 469 q 235 648 200 601 q 321 722 271 696 q 440 747 372 747 q 563 721 509 747 q 653 645 616 694 q 708 527 690 595 q 726 374 726 458 m 563 359 l 563 374 q 553 468 563 425 q 524 545 544 512 q 472 597 503 578 q 396 616 440 616 q 321 601 353 616 q 269 561 290 587 q 237 501 248 535 q 220 427 225 467 l 220 295 q 239 225 227 258 q 272 169 251 193 q 323 131 292 144 q 397 117 354 117 q 473 136 441 117 q 524 188 504 155 q 553 266 544 222 q 563 359 563 310 z "},"Ґ":{"ha":767,"x_min":97,"x_max":732,"o":"m 732 1228 l 732 858 l 568 858 l 568 1228 l 732 1228 m 726 987 l 726 852 l 267 852 l 267 0 l 97 0 l 97 987 l 726 987 z "},"ґ":{"ha":631,"x_min":85,"x_max":586,"o":"m 586 949 l 586 604 l 422 604 l 422 949 l 586 949 m 569 734 l 569 604 l 248 604 l 248 0 l 85 0 l 85 734 l 569 734 z "},"Ҕ":{"ha":853,"x_min":104,"x_max":799,"o":"m 732 987 l 732 852 l 273 852 l 273 0 l 104 0 l 104 987 l 732 987 m 220 432 l 220 566 l 392 566 q 561 541 486 566 q 689 465 635 515 q 770 341 742 415 q 799 172 799 268 q 779 21 799 91 q 718 -102 760 -49 q 610 -184 676 -155 q 451 -214 544 -214 l 451 -90 q 543 -68 507 -90 q 599 -10 579 -47 q 627 72 619 26 q 635 166 635 118 q 619 282 635 233 q 573 365 604 332 q 497 415 543 399 q 392 432 452 432 l 220 432 z "},"ҕ":{"ha":719,"x_min":85,"x_max":671,"o":"m 139 311 l 139 445 l 303 445 q 493 407 410 445 q 624 297 576 370 q 671 118 671 225 q 657 33 671 79 q 612 -59 643 -14 q 533 -139 581 -104 q 415 -193 484 -175 l 355 -79 q 442 -32 408 -60 q 491 34 475 -4 q 507 118 507 72 q 481 224 507 182 q 410 289 456 267 q 303 311 365 311 l 139 311 m 569 734 l 569 604 l 248 604 l 248 0 l 85 0 l 85 734 l 569 734 z "},"Җ":{"ha":1413,"x_min":14,"x_max":1397,"o":"m 400 427 l 35 987 l 241 987 l 482 574 l 660 574 l 636 427 l 400 427 m 485 449 l 226 0 l 14 0 l 358 564 l 485 449 m 758 987 l 758 0 l 589 0 l 589 987 l 758 987 m 1305 987 l 943 427 l 710 427 l 686 574 l 861 574 l 1098 987 l 1305 987 m 1114 0 l 859 449 l 986 564 l 1325 0 l 1114 0 m 1397 121 l 1397 -243 l 1234 -243 l 1234 121 l 1397 121 z "},"җ":{"ha":1194,"x_min":22,"x_max":1175,"o":"m 328 296 l 35 734 l 235 734 l 406 445 l 549 445 l 528 296 l 328 296 m 410 320 l 222 0 l 22 0 l 288 413 l 410 320 m 648 734 l 648 0 l 485 0 l 485 734 l 648 734 m 1100 734 l 807 296 l 606 296 l 584 445 l 728 445 l 899 734 l 1100 734 m 911 0 l 723 320 l 850 413 l 1114 0 l 911 0 m 1175 121 l 1175 -243 l 1011 -243 l 1011 121 l 1175 121 z "},"Қ":{"ha":1004,"x_min":104,"x_max":955,"o":"m 273 987 l 273 0 l 104 0 l 104 987 l 273 987 m 867 987 l 466 425 l 225 425 l 202 572 l 372 572 l 659 987 l 867 987 m 694 0 l 374 450 l 484 581 l 898 0 l 694 0 m 954 120 l 954 -244 l 791 -244 l 791 120 l 954 120 z "},"қ":{"ha":865,"x_min":97,"x_max":825,"o":"m 260 734 l 260 0 l 97 0 l 97 734 l 260 734 m 739 734 l 409 292 l 222 292 l 201 440 l 337 440 l 535 734 l 739 734 m 548 0 l 327 320 l 456 413 l 763 0 l 548 0 m 825 121 l 825 -243 l 662 -243 l 662 121 l 825 121 z "},"Ҝ":{"ha":899,"x_min":98,"x_max":906,"o":"m 98 987 l 269 987 l 269 0 l 98 0 l 98 987 m 331 745 l 438 745 l 438 262 l 331 262 l 331 745 m 669 987 l 878 987 l 551 423 l 220 423 l 197 570 l 475 570 l 669 987 m 470 449 l 594 564 l 906 0 l 690 0 l 470 449 z "},"ҝ":{"ha":811,"x_min":96,"x_max":811,"o":"m 96 734 l 259 734 l 259 0 l 96 0 l 96 734 m 321 577 l 421 577 l 421 168 l 321 168 l 321 577 m 589 734 l 793 734 l 524 292 l 221 292 l 200 440 l 452 440 l 589 734 m 441 320 l 565 413 l 811 0 l 602 0 l 441 320 z "},"Ҡ":{"ha":1142,"x_min":35,"x_max":1152,"o":"m 412 987 l 412 857 l 35 857 l 35 987 l 412 987 m 527 987 l 527 0 l 357 0 l 357 987 l 527 987 m 1122 987 l 720 425 l 479 425 l 456 572 l 625 572 l 913 987 l 1122 987 m 947 0 l 627 450 l 737 581 l 1152 0 l 947 0 z "},"ҡ":{"ha":977,"x_min":41,"x_max":979,"o":"m 401 734 l 401 604 l 41 604 l 41 734 l 401 734 m 477 734 l 477 0 l 313 0 l 313 734 l 477 734 m 956 734 l 625 292 l 439 292 l 417 440 l 553 440 l 751 734 l 956 734 m 764 0 l 544 320 l 672 413 l 979 0 l 764 0 z "},"Ң":{"ha":1063,"x_min":100,"x_max":1013,"o":"m 753 575 l 753 440 l 229 440 l 229 575 l 753 575 m 271 987 l 271 0 l 100 0 l 100 987 l 271 987 m 884 987 l 884 0 l 714 0 l 714 987 l 884 987 m 1013 121 l 1013 -243 l 850 -243 l 850 121 l 1013 121 z "},"ң":{"ha":873,"x_min":90,"x_max":834,"o":"m 585 427 l 585 298 l 205 298 l 205 427 l 585 427 m 253 734 l 253 0 l 90 0 l 90 734 l 253 734 m 703 734 l 703 0 l 540 0 l 540 734 l 703 734 m 833 121 l 833 -243 l 670 -243 l 670 121 l 833 121 z "},"Ҥ":{"ha":1365,"x_min":100,"x_max":1312,"o":"m 1312 987 l 1312 857 l 878 857 l 752 987 l 1312 987 m 752 575 l 752 440 l 229 440 l 229 575 l 752 575 m 271 987 l 271 0 l 100 0 l 100 987 l 271 987 m 884 987 l 884 0 l 713 0 l 713 987 l 884 987 z "},"ҥ":{"ha":985,"x_min":85,"x_max":941,"o":"m 941 734 l 941 604 l 639 604 l 640 734 l 941 734 m 581 427 l 581 298 l 201 298 l 201 427 l 581 427 m 248 734 l 248 0 l 85 0 l 85 734 l 248 734 m 699 734 l 699 0 l 535 0 l 535 734 l 699 734 z "},"Ҧ":{"ha":1438,"x_min":102,"x_max":1381,"o":"m 881 987 l 881 0 l 711 0 l 711 852 l 273 852 l 273 0 l 102 0 l 102 987 l 881 987 m 802 431 l 802 566 l 975 566 q 1143 540 1068 566 q 1272 465 1218 515 q 1353 341 1325 414 q 1381 171 1381 267 q 1362 20 1381 90 q 1300 -102 1342 -50 q 1193 -185 1259 -155 q 1034 -214 1126 -214 l 1034 -90 q 1126 -69 1090 -90 q 1182 -11 1162 -47 q 1210 72 1202 26 q 1218 165 1218 117 q 1202 281 1218 232 q 1156 365 1186 331 q 1080 415 1125 398 q 975 431 1034 431 l 802 431 z "},"ҧ":{"ha":1204,"x_min":85,"x_max":1165,"o":"m 589 313 l 589 447 l 785 447 q 982 410 896 447 q 1116 300 1067 372 q 1165 121 1165 227 q 1151 35 1165 82 q 1107 -56 1137 -12 q 1027 -137 1076 -101 q 909 -191 978 -172 l 849 -77 q 936 -30 903 -58 q 985 37 969 -1 q 1001 121 1001 75 q 974 227 1002 184 q 898 291 947 269 q 785 313 850 313 l 589 313 m 572 734 l 572 604 l 210 604 l 210 734 l 572 734 m 248 734 l 248 0 l 85 0 l 85 734 l 248 734 m 701 734 l 701 0 l 536 0 l 536 734 l 701 734 z "},"Ҩ":{"ha":1079,"x_min":70,"x_max":1020,"o":"m 1020 119 l 1020 -14 q 779 22 887 -14 q 592 125 670 58 q 471 283 513 192 q 429 486 429 375 l 429 629 q 450 775 429 708 q 507 893 470 843 q 597 972 545 944 q 713 1000 650 1000 q 835 972 781 1000 q 929 891 890 943 q 990 767 969 839 q 1012 610 1012 696 l 1012 471 q 977 279 1012 368 q 877 125 942 191 q 722 23 812 60 q 522 -14 631 -14 q 336 21 420 -14 q 194 121 253 57 q 102 269 134 184 q 70 452 70 354 l 70 583 q 94 748 70 672 q 162 881 118 825 q 269 970 207 938 q 406 1002 331 1002 l 406 861 q 339 840 369 861 q 290 782 310 819 q 258 694 269 745 q 248 585 248 644 l 248 452 q 266 323 248 382 q 320 219 285 263 q 407 150 356 175 q 522 125 457 125 q 656 152 597 125 q 757 225 715 178 q 820 335 798 272 q 842 471 842 397 l 842 624 q 833 728 842 684 q 808 802 825 772 q 768 846 791 831 q 713 861 744 861 q 663 845 685 861 q 625 801 640 830 q 601 728 609 771 q 592 630 592 686 l 592 484 q 620 337 592 404 q 703 221 648 271 q 837 145 758 172 q 1020 119 917 119 z "},"ҩ":{"ha":871,"x_min":65,"x_max":833,"o":"m 833 96 l 833 -13 q 629 16 718 -13 q 479 98 540 45 q 388 222 419 151 q 357 374 357 292 l 357 462 q 373 576 357 524 q 418 667 389 628 q 489 727 447 705 q 581 748 530 748 q 676 725 633 748 q 749 659 719 701 q 795 561 779 617 q 811 439 811 505 l 811 353 q 784 209 811 275 q 705 92 756 142 q 584 14 654 41 q 428 -14 514 -14 q 280 15 347 -14 q 165 97 214 45 q 91 220 117 150 q 65 372 65 290 l 65 425 q 84 553 65 494 q 139 655 104 612 q 224 723 175 699 q 333 747 273 747 l 333 613 q 293 598 311 612 q 262 559 275 584 q 242 500 249 534 q 235 427 235 467 l 235 372 q 248 273 235 319 q 286 193 261 227 q 347 140 311 159 q 428 121 383 121 q 519 139 479 121 q 589 189 560 157 q 632 264 617 221 q 647 359 647 308 l 647 446 q 642 512 647 481 q 627 565 637 542 q 602 601 616 588 q 570 614 588 614 q 536 602 551 614 q 512 570 522 591 q 497 521 502 549 q 492 459 492 492 l 492 369 q 514 260 492 310 q 581 173 537 210 q 688 116 625 136 q 833 96 751 96 z "},"Ҳ":{"ha":907,"x_min":26,"x_max":891,"o":"m 230 987 l 439 627 l 649 987 l 845 987 l 547 498 l 852 0 l 654 0 l 439 367 l 224 0 l 26 0 l 332 498 l 33 987 l 230 987 m 891 121 l 891 -243 l 728 -243 l 728 121 l 891 121 z "},"ҳ":{"ha":739,"x_min":21,"x_max":720,"o":"m 209 734 l 349 490 l 491 734 l 671 734 l 448 374 l 680 0 l 500 0 l 351 254 l 201 0 l 21 0 l 252 374 l 30 734 l 209 734 m 720 121 l 720 -243 l 556 -243 l 556 121 l 720 121 z "},"Ҵ":{"ha":1242,"x_min":28,"x_max":1166,"o":"m 677 987 l 677 857 l 28 857 l 28 987 l 677 987 m 1166 136 l 1154 -238 l 997 -238 l 997 0 l 909 0 l 909 136 l 1166 136 m 267 0 l 267 987 l 437 987 l 437 135 l 876 135 l 876 987 l 1046 987 l 1046 0 l 267 0 z "},"ҵ":{"ha":943,"x_min":26,"x_max":907,"o":"m 506 734 l 506 604 l 26 604 l 26 734 l 506 734 m 193 0 l 193 734 l 356 734 l 356 130 l 644 130 l 644 734 l 808 734 l 808 0 l 193 0 m 907 130 l 895 -218 l 745 -218 l 745 0 l 656 0 l 656 130 l 907 130 z "},"Ҷ":{"ha":1032,"x_min":98,"x_max":983,"o":"m 98 987 l 269 987 l 269 682 q 290 572 269 612 q 354 516 311 532 q 461 500 397 500 q 527 503 492 500 q 596 510 562 505 q 664 523 631 515 q 724 538 696 530 l 724 404 q 666 388 697 395 q 600 375 634 380 q 531 368 566 370 q 461 365 496 365 q 268 397 349 365 q 142 499 186 429 q 98 682 98 569 l 98 987 m 685 987 l 855 987 l 855 0 l 685 0 l 685 987 m 983 121 l 983 -243 l 819 -243 l 819 121 l 983 121 z "},"ҷ":{"ha":844,"x_min":65,"x_max":805,"o":"m 673 734 l 673 0 l 510 0 l 510 734 l 673 734 m 604 409 l 604 279 q 537 256 574 267 q 460 239 500 245 q 378 233 419 233 q 211 262 281 233 q 103 354 140 292 q 65 512 65 416 l 65 734 l 228 734 l 228 512 q 244 425 228 457 q 294 378 261 392 q 378 363 328 363 q 457 369 420 363 q 531 385 494 375 q 604 409 568 395 m 804 121 l 804 -243 l 641 -243 l 641 121 l 804 121 z "},"Ҹ":{"ha":944,"x_min":87,"x_max":845,"o":"m 530 705 l 530 209 l 423 209 l 423 705 l 530 705 m 87 987 l 258 987 l 258 682 q 279 572 258 612 q 343 516 300 532 q 450 500 386 500 q 516 503 481 500 q 586 510 551 505 q 653 523 621 515 q 713 538 686 530 l 713 404 q 655 388 686 395 q 590 375 624 380 q 520 368 555 370 q 450 365 485 365 q 257 397 338 365 q 132 499 176 429 q 87 682 87 569 l 87 987 m 675 987 l 845 987 l 845 0 l 675 0 l 675 987 z "},"ҹ":{"ha":773,"x_min":79,"x_max":688,"o":"m 443 551 l 443 138 l 336 138 l 336 551 l 443 551 m 688 734 l 688 0 l 525 0 l 525 734 l 688 734 m 618 409 l 618 279 q 552 256 589 267 q 475 239 515 245 q 393 233 434 233 q 225 262 296 233 q 117 354 155 292 q 79 512 79 416 l 79 734 l 243 734 l 243 512 q 259 425 243 457 q 309 378 275 392 q 393 363 342 363 q 472 369 434 363 q 546 385 510 375 q 618 409 582 395 z "},"Һ":{"ha":958,"x_min":93,"x_max":850,"o":"m 850 0 l 680 0 l 680 306 q 659 416 680 376 q 595 471 637 455 q 487 488 552 488 q 422 485 456 488 q 352 477 387 482 q 284 465 317 472 q 225 449 252 458 l 225 584 q 282 600 251 592 q 348 612 314 607 q 418 620 382 617 q 487 623 453 623 q 681 590 600 623 q 806 488 762 558 q 850 306 850 418 l 850 0 m 263 0 l 93 0 l 93 987 l 263 987 l 263 0 z "},"Ҽ":{"ha":1060,"x_min":7,"x_max":990,"o":"m 7 733 l 127 733 q 144 649 127 685 q 195 594 161 614 q 281 574 229 574 l 281 456 q 131 490 193 456 q 38 586 70 524 q 7 733 7 649 m 661 -16 q 472 16 554 -16 q 335 104 391 47 q 252 239 280 161 q 224 410 224 317 l 224 583 q 254 751 224 675 q 337 884 284 828 q 460 970 390 940 q 613 1000 531 1001 q 777 968 706 1000 q 895 877 847 937 q 966 732 943 817 q 990 543 990 647 l 990 450 l 341 450 l 341 578 l 821 578 l 821 600 q 809 701 821 654 q 774 783 798 747 q 710 838 749 818 q 613 857 670 857 q 519 836 560 857 q 450 777 478 814 q 408 689 422 739 q 394 583 394 640 l 394 410 q 409 300 394 351 q 455 210 423 248 q 537 149 486 171 q 661 127 589 127 q 807 143 747 127 q 905 177 867 160 l 937 45 q 886 22 922 36 q 794 -4 850 7 q 661 -16 738 -16 z "},"ҽ":{"ha":827,"x_min":-36,"x_max":792,"o":"m -36 583 l 77 583 q 112 475 77 515 q 221 435 147 435 l 221 326 q 81 357 138 326 q -6 446 24 389 q -36 583 -36 504 m 498 -14 q 351 13 416 -14 q 240 88 286 40 q 170 201 194 136 q 146 342 146 267 l 146 369 q 171 525 146 455 q 240 645 195 595 q 346 721 286 694 q 478 747 407 747 q 616 721 557 747 q 714 647 675 694 q 773 533 753 599 q 792 388 792 467 l 792 318 l 224 318 l 224 435 l 631 435 l 631 448 q 620 511 629 481 q 593 566 611 542 q 547 604 575 590 q 477 617 518 617 q 405 600 437 617 q 352 550 374 583 q 320 472 331 517 q 309 369 309 426 l 309 342 q 322 253 309 294 q 361 181 336 212 q 424 133 387 151 q 507 116 460 116 q 613 140 567 116 q 692 207 659 163 l 779 123 q 717 57 755 89 q 624 6 679 26 q 498 -14 570 -14 z "},"Ӄ":{"ha":890,"x_min":98,"x_max":857,"o":"m 269 987 l 269 0 l 98 0 l 98 987 l 269 987 m 844 987 l 422 425 l 220 425 l 197 576 l 347 576 l 636 987 l 844 987 m 272 425 l 272 564 l 450 564 q 617 538 542 564 q 746 463 692 513 q 828 339 800 413 q 857 168 857 265 q 837 20 857 90 q 775 -104 817 -50 q 666 -189 733 -158 q 505 -220 599 -220 l 504 -91 q 596 -69 560 -91 q 652 -10 632 -47 q 679 71 671 26 q 686 161 686 116 q 671 276 686 227 q 626 359 656 326 q 551 408 595 392 q 450 425 507 425 l 272 425 z "},"ӄ":{"ha":776,"x_min":96,"x_max":739,"o":"m 259 734 l 259 0 l 96 0 l 96 734 l 259 734 m 739 734 l 393 292 l 221 292 l 200 440 l 321 440 l 534 734 l 739 734 m 156 293 l 156 427 l 353 427 q 550 392 464 427 q 684 289 635 358 q 733 113 733 219 q 719 29 733 74 q 674 -60 705 -16 q 595 -138 644 -103 q 477 -191 547 -173 l 417 -77 q 504 -32 471 -59 q 553 32 537 -4 q 570 113 570 68 q 543 215 570 176 q 467 274 515 255 q 353 293 418 293 l 156 293 z "},"Ӆ":{"ha":1063,"x_min":30,"x_max":1013,"o":"m 748 987 l 748 852 l 275 852 l 275 987 l 748 987 m 878 987 l 878 0 l 708 0 l 708 987 l 878 987 m 241 987 l 410 987 l 386 497 q 368 307 381 389 q 331 167 354 225 q 273 72 308 109 q 188 17 237 35 q 73 0 139 0 l 30 0 l 30 135 l 56 137 q 118 154 92 140 q 163 198 144 169 q 193 273 181 227 q 213 385 205 319 q 223 541 220 452 l 241 987 m 1013 119 l 1013 3 q 978 -140 1013 -66 q 886 -260 943 -213 l 799 -210 q 833 -148 818 -179 q 859 -81 849 -117 q 868 -3 868 -46 l 868 119 l 1013 119 z "},"ӆ":{"ha":882,"x_min":22,"x_max":843,"o":"m 577 734 l 577 604 l 219 604 l 219 734 l 577 734 m 705 734 l 705 0 l 542 0 l 542 734 l 705 734 m 179 734 l 340 734 l 321 371 q 305 229 317 290 q 273 124 293 168 q 225 53 254 80 q 159 13 197 26 q 73 0 121 0 l 22 0 l 22 134 l 47 136 q 91 150 73 138 q 122 182 109 161 q 144 236 136 203 q 158 315 153 269 q 165 420 163 360 l 179 734 m 843 119 l 842 3 q 808 -140 842 -66 q 716 -260 773 -213 l 629 -210 q 663 -148 648 -179 q 688 -81 679 -117 q 698 -3 698 -46 l 698 119 l 843 119 z "},"Ӈ":{"ha":985,"x_min":104,"x_max":881,"o":"m 104 987 l 273 987 l 273 555 l 711 555 l 711 987 l 881 987 l 881 -38 q 851 -179 881 -121 q 767 -267 822 -237 q 637 -296 713 -296 q 592 -294 612 -296 q 547 -285 571 -292 l 556 -153 q 589 -159 570 -157 q 623 -161 608 -161 q 671 -146 651 -161 q 701 -105 690 -132 q 711 -38 711 -77 l 711 420 l 273 420 l 273 0 l 104 0 l 104 987 z "},"ӈ":{"ha":785,"x_min":85,"x_max":699,"o":"m 85 734 l 248 734 l 248 427 l 535 427 l 535 734 l 699 734 l 699 -42 q 670 -181 699 -124 q 588 -267 642 -238 q 458 -296 534 -296 q 415 -294 435 -296 q 371 -285 394 -292 l 380 -158 q 413 -164 393 -162 q 447 -166 433 -166 q 495 -152 475 -166 q 525 -109 515 -137 q 535 -42 535 -81 l 535 298 l 248 298 l 248 0 l 85 0 l 85 734 z "},"Ӊ":{"ha":1070,"x_min":100,"x_max":1021,"o":"m 753 575 l 753 440 l 229 440 l 229 575 l 753 575 m 271 987 l 271 0 l 100 0 l 100 987 l 271 987 m 884 987 l 884 0 l 714 0 l 714 987 l 884 987 m 1021 119 l 1020 3 q 985 -140 1020 -66 q 894 -260 951 -213 l 806 -210 q 841 -148 825 -179 q 866 -81 857 -117 q 876 -3 876 -46 l 876 119 l 1021 119 z "},"ӊ":{"ha":880,"x_min":90,"x_max":842,"o":"m 585 427 l 585 298 l 205 298 l 205 427 l 585 427 m 253 734 l 253 0 l 90 0 l 90 734 l 253 734 m 703 734 l 703 0 l 540 0 l 540 734 l 703 734 m 842 119 l 841 3 q 806 -140 841 -66 q 715 -260 772 -213 l 627 -210 q 662 -148 646 -179 q 687 -81 677 -117 q 696 -3 696 -46 l 696 119 l 842 119 z "},"Ӎ":{"ha":1295,"x_min":100,"x_max":1245,"o":"m 170 987 l 321 987 l 607 226 l 892 987 l 1044 987 l 667 0 l 546 0 l 170 987 m 100 987 l 245 987 l 270 328 l 270 0 l 100 0 l 100 987 m 968 987 l 1114 987 l 1114 0 l 943 0 l 943 328 l 968 987 m 1245 119 l 1244 3 q 1210 -140 1244 -66 q 1118 -260 1175 -213 l 1031 -210 q 1065 -148 1050 -179 q 1090 -81 1081 -117 q 1100 -3 1100 -46 l 1100 119 l 1245 119 z "},"ӎ":{"ha":1120,"x_min":97,"x_max":1082,"o":"m 520 198 l 739 734 l 880 734 l 576 0 l 465 0 l 161 734 l 302 734 l 520 198 m 260 734 l 260 0 l 97 0 l 97 734 l 260 734 m 780 0 l 780 734 l 944 734 l 944 0 l 780 0 m 1082 119 l 1081 3 q 1046 -140 1081 -66 q 955 -260 1012 -213 l 867 -210 q 902 -148 886 -179 q 927 -81 918 -117 q 937 -3 937 -46 l 937 119 l 1082 119 z "},"Ә":{"ha":964,"x_min":58,"x_max":892,"o":"m 428 1001 q 629 967 542 1001 q 774 870 715 932 q 862 723 832 808 q 892 534 892 637 l 892 451 q 860 263 892 349 q 771 115 827 177 q 638 19 714 53 q 475 -14 563 -14 q 295 18 373 -14 q 164 110 216 50 q 84 254 111 170 q 58 443 58 338 l 58 540 l 774 540 l 774 408 l 227 408 l 227 385 q 240 285 227 332 q 283 203 254 238 q 359 148 312 168 q 475 128 407 128 q 581 153 535 128 q 659 223 627 178 q 706 326 690 267 q 722 451 722 385 l 722 534 q 706 660 722 602 q 655 763 690 719 q 565 833 621 808 q 428 859 509 859 q 275 842 338 859 q 171 808 211 825 l 138 940 q 193 964 155 949 q 290 990 231 979 q 428 1001 349 1001 z "},"Ӡ":{"ha":805,"x_min":62,"x_max":745,"o":"m 98 987 l 722 987 l 722 878 l 394 503 l 281 503 l 281 584 l 526 852 l 98 852 l 98 987 m 281 582 l 393 588 q 583 552 505 588 q 704 446 662 515 q 745 276 745 376 q 720 153 745 207 q 647 61 694 98 q 536 5 600 24 q 396 -14 472 -14 q 275 2 334 -14 q 167 54 216 19 q 90 143 119 89 q 62 274 62 198 l 232 274 q 252 197 232 232 q 309 141 273 162 q 396 121 346 121 q 493 141 453 121 q 554 197 533 161 q 576 276 576 232 q 553 387 576 345 q 484 450 530 430 q 374 470 439 470 l 281 470 l 281 582 z "},"ӡ":{"ha":806,"x_min":63,"x_max":743,"o":"m 96 734 l 717 734 l 718 629 l 395 248 l 280 248 l 280 329 l 520 604 l 96 604 l 96 734 m 280 326 l 389 331 q 580 295 501 331 q 701 190 659 259 q 743 22 743 121 q 717 -101 743 -47 q 645 -192 691 -155 q 534 -249 598 -229 q 395 -268 471 -268 q 275 -251 334 -268 q 168 -200 216 -235 q 92 -110 120 -165 q 63 20 63 -56 l 227 20 q 248 -59 227 -24 q 307 -116 269 -95 q 395 -138 345 -138 q 494 -117 454 -138 q 557 -60 535 -96 q 578 22 578 -24 q 555 134 578 91 q 486 197 532 177 q 373 216 439 216 l 280 216 l 280 326 z "},"Ӻ":{"ha":827,"x_min":30,"x_max":785,"o":"m 785 987 l 785 852 l 326 852 l 326 0 l 157 0 l 157 987 l 785 987 m 486 581 l 486 469 l 30 469 l 30 581 l 486 581 m 310 140 l 474 140 l 474 -42 q 445 -181 474 -124 q 362 -267 416 -238 q 234 -296 309 -296 q 189 -294 210 -296 q 146 -285 169 -292 l 155 -154 q 188 -160 168 -158 q 222 -162 208 -162 q 270 -149 250 -162 q 300 -108 290 -135 q 310 -42 310 -81 l 310 140 z "},"ӻ":{"ha":636,"x_min":24,"x_max":626,"o":"m 625 734 l 625 604 l 305 604 l 305 0 l 142 0 l 142 734 l 625 734 m 479 460 l 479 348 l 24 348 l 24 460 l 479 460 m 279 137 l 443 137 l 443 -45 q 414 -184 443 -127 q 331 -270 385 -241 q 203 -299 277 -299 q 158 -297 178 -299 q 115 -288 138 -294 l 124 -157 q 157 -163 137 -161 q 191 -165 176 -165 q 239 -151 219 -165 q 269 -111 258 -138 q 279 -45 279 -84 l 279 137 z "},"Ӽ":{"ha":939,"x_min":26,"x_max":924,"o":"m 230 987 l 439 627 l 649 987 l 845 987 l 547 498 l 852 0 l 654 0 l 439 367 l 224 0 l 26 0 l 332 498 l 33 987 l 230 987 m 760 140 l 924 140 l 924 -42 q 895 -181 924 -124 q 812 -267 866 -238 q 684 -296 759 -296 q 640 -294 660 -296 q 596 -285 619 -292 l 606 -154 q 638 -160 618 -158 q 673 -162 658 -162 q 720 -149 701 -162 q 750 -108 740 -135 q 760 -42 760 -81 l 760 140 z "},"ӽ":{"ha":771,"x_min":21,"x_max":753,"o":"m 209 734 l 349 490 l 491 734 l 671 734 l 448 374 l 680 0 l 500 0 l 351 254 l 201 0 l 21 0 l 252 374 l 30 734 l 209 734 m 589 140 l 753 140 l 753 -42 q 724 -181 753 -124 q 641 -267 694 -238 q 513 -296 587 -296 q 468 -294 488 -296 q 425 -285 448 -292 l 434 -154 q 467 -160 447 -158 q 501 -162 486 -162 q 549 -149 529 -162 q 578 -108 568 -135 q 589 -42 589 -81 l 589 140 z "},"Ԁ":{"ha":863,"x_min":54,"x_max":777,"o":"m 411 625 l 659 625 l 659 490 l 411 490 q 304 465 346 490 q 243 400 263 440 q 224 315 224 361 q 243 228 224 269 q 304 161 263 186 q 411 135 346 135 l 606 135 l 606 987 l 777 987 l 777 0 l 411 0 q 218 41 298 0 q 96 152 138 81 q 54 314 54 223 q 78 438 54 382 q 148 537 102 495 q 260 602 194 579 q 411 625 326 625 z "},"Ԃ":{"ha":1206,"x_min":71,"x_max":1159,"o":"m 428 625 l 675 625 l 675 490 l 428 490 q 322 465 363 490 q 261 400 281 440 q 241 315 241 361 q 261 228 241 269 q 322 161 281 186 q 428 135 363 135 l 624 135 l 624 987 l 793 987 l 793 0 l 428 0 q 235 41 315 0 q 113 152 155 81 q 71 314 71 223 q 95 438 71 382 q 165 537 119 495 q 277 602 211 579 q 428 625 343 625 m 847 0 l 752 0 l 752 134 l 847 135 q 927 161 897 136 q 972 229 958 187 q 987 317 986 270 q 985 375 988 343 q 978 442 983 408 q 965 509 972 477 q 947 568 957 541 l 1112 568 q 1135 488 1124 533 q 1152 398 1145 444 q 1158 317 1159 353 q 1118 149 1156 220 q 1011 39 1080 77 q 847 0 942 0 z "},"ԃ":{"ha":1190,"x_min":64,"x_max":1125,"o":"m 64 344 l 64 358 q 83 515 64 444 q 138 638 102 586 q 228 719 174 690 q 351 747 281 747 q 443 730 402 747 q 515 682 484 713 q 569 605 546 650 q 606 505 591 560 q 627 385 620 450 l 627 339 q 598 196 618 260 q 544 84 578 131 q 463 11 511 37 q 350 -14 414 -14 q 228 12 281 -14 q 138 87 175 39 q 83 200 102 135 q 64 344 64 266 m 229 358 l 229 344 q 237 255 229 296 q 266 183 246 214 q 316 135 285 152 q 391 118 347 118 q 483 142 446 118 q 542 207 520 166 q 570 300 563 248 l 570 422 q 553 498 566 463 q 518 559 540 533 q 466 601 497 585 q 392 616 434 616 q 317 596 348 616 q 266 540 286 576 q 238 458 247 505 q 229 358 229 411 m 531 244 l 531 1058 l 695 1058 l 695 244 q 706 178 694 207 q 740 133 718 149 q 792 117 762 117 q 863 134 833 117 q 915 183 894 151 q 948 259 937 214 q 960 359 959 303 q 950 495 962 427 q 919 632 939 564 l 1078 632 q 1111 497 1097 566 q 1124 359 1125 429 q 1096 194 1122 264 q 1023 78 1069 124 q 918 9 977 32 q 792 -14 859 -14 q 657 11 714 -16 q 568 94 600 37 q 531 244 536 152 z "},"Ԅ":{"ha":1097,"x_min":41,"x_max":1023,"o":"m 303 417 l 153 417 l 153 553 l 267 553 q 380 571 338 553 q 443 623 423 588 q 463 709 463 657 q 452 767 463 741 q 420 812 442 793 q 363 841 398 831 q 278 851 328 851 l 41 851 l 41 987 l 278 987 q 430 969 364 987 q 541 916 496 951 q 609 828 586 880 q 632 707 632 777 q 621 636 632 669 q 589 575 610 604 q 537 525 568 547 q 465 487 506 503 q 374 459 425 470 q 370 452 372 459 q 365 437 368 444 q 361 429 363 430 q 325 422 334 423 q 303 417 317 420 m 456 212 l 456 214 l 456 257 q 437 341 456 305 q 385 397 419 376 q 303 417 351 417 l 315 498 q 465 480 405 498 q 560 430 524 463 q 611 354 595 398 q 626 258 626 311 l 626 212 q 635 165 626 186 q 661 133 644 145 q 701 121 677 121 q 764 139 736 122 q 811 187 792 155 q 841 262 830 218 q 852 359 851 305 q 842 495 853 427 q 810 632 830 564 l 976 632 q 1008 497 994 566 q 1021 359 1023 429 q 993 195 1020 265 q 921 78 966 125 q 817 9 876 32 q 694 -14 759 -14 q 570 7 623 -16 q 489 80 518 30 q 456 212 460 131 z "},"ԅ":{"ha":895,"x_min":32,"x_max":869,"o":"m 268 283 l 91 283 l 90 408 l 216 408 q 291 419 262 408 q 333 452 319 431 q 347 500 347 473 q 333 554 347 530 q 290 591 319 577 q 214 604 260 604 l 36 604 l 32 734 l 214 734 q 375 708 309 734 q 476 633 441 682 q 511 515 511 585 q 499 454 511 481 q 464 404 487 426 q 406 366 440 382 q 328 338 372 350 q 325 327 326 338 q 321 306 323 317 q 317 294 319 295 q 289 287 294 288 q 268 283 284 286 m 521 160 l 521 161 q 532 115 520 134 q 576 97 544 97 q 630 111 606 98 q 669 148 653 124 q 694 207 686 172 q 704 284 703 241 q 694 392 705 336 q 662 500 683 448 l 821 500 q 854 393 839 448 q 867 284 869 338 q 843 151 866 208 q 780 57 819 94 q 689 0 740 19 q 582 -18 638 -18 q 487 -10 528 -19 q 418 18 446 -1 q 375 70 391 38 q 357 145 360 101 l 357 197 q 345 243 357 224 q 310 273 333 262 q 251 283 286 283 l 276 372 q 424 350 370 372 q 499 290 477 328 q 521 202 521 252 l 521 160 z "},"Ԇ":{"ha":783,"x_min":50,"x_max":736,"o":"m 288 410 l 102 410 l 102 541 l 242 541 q 352 559 311 541 q 414 612 394 577 q 433 696 433 647 q 414 781 433 745 q 355 837 395 817 q 250 857 314 857 l 52 857 l 50 987 l 250 987 q 438 954 360 987 q 556 857 515 921 q 597 701 597 793 q 587 630 597 663 q 558 570 577 597 q 509 519 538 542 q 442 480 480 497 q 357 452 404 464 q 353 445 356 452 q 349 433 351 439 q 345 426 347 427 q 320 419 327 422 q 307 414 313 416 q 288 410 302 412 m 269 410 l 298 498 q 479 465 414 498 q 572 376 545 433 q 600 245 600 319 l 600 164 q 604 113 600 141 q 618 58 608 84 q 648 16 629 33 l 648 0 l 479 0 q 450 51 459 18 q 438 117 440 84 q 436 165 436 149 l 436 244 q 416 333 436 296 q 359 390 397 370 q 269 410 322 410 m 736 157 l 736 39 q 702 -103 736 -30 q 610 -224 667 -176 l 523 -172 q 557 -111 542 -142 q 583 -45 573 -80 q 592 33 592 -9 l 592 157 l 736 157 z "},"ԇ":{"ha":743,"x_min":78,"x_max":713,"o":"m 323 280 l 120 280 l 120 399 l 279 399 q 358 411 328 399 q 404 446 389 423 q 419 498 419 468 q 404 553 419 528 q 358 591 389 577 q 279 605 328 605 l 81 605 l 78 734 l 279 734 q 407 718 351 734 q 503 673 463 703 q 563 602 543 644 q 584 507 584 560 q 571 441 584 471 q 532 388 558 412 q 469 347 507 364 q 382 317 431 329 q 376 306 379 317 q 371 294 374 295 q 351 288 355 291 q 342 283 346 286 q 323 280 338 281 m 291 280 l 330 363 q 486 338 430 363 q 565 270 542 313 q 589 170 589 226 l 589 111 q 591 80 589 100 q 601 41 594 60 q 620 11 608 22 l 620 0 l 451 0 q 433 34 438 11 q 426 80 427 57 q 425 112 425 102 l 425 169 q 410 229 425 204 q 365 267 395 254 q 291 280 335 280 m 713 147 l 713 30 q 679 -112 713 -39 q 587 -233 644 -185 l 500 -182 q 534 -120 519 -151 q 559 -54 550 -90 q 569 24 569 -19 l 569 147 l 713 147 z "},"Ԉ":{"ha":1343,"x_min":45,"x_max":1300,"o":"m 256 987 l 425 987 l 401 497 q 383 307 397 389 q 347 167 370 225 q 288 72 323 109 q 203 17 252 35 q 89 0 155 0 l 45 0 l 45 135 l 72 137 q 133 154 107 140 q 178 198 159 169 q 209 273 197 227 q 228 385 220 319 q 238 541 235 452 l 256 987 m 743 987 l 743 851 l 312 851 l 312 987 l 743 987 m 701 246 l 701 987 l 871 987 l 871 246 q 878 195 871 218 q 897 156 884 172 q 927 130 909 139 q 966 121 944 121 q 1035 138 1005 121 q 1085 186 1064 155 q 1117 261 1105 217 q 1128 359 1128 304 q 1119 495 1130 427 q 1087 632 1107 564 l 1253 632 q 1285 497 1271 566 q 1299 359 1300 429 q 1270 194 1297 264 q 1197 78 1243 124 q 1092 9 1151 32 q 966 -14 1032 -14 q 827 12 886 -14 q 734 96 768 38 q 701 246 701 153 z "},"ԉ":{"ha":1153,"x_min":43,"x_max":1101,"o":"m 200 734 l 361 734 l 342 371 q 326 229 338 290 q 295 124 315 168 q 246 53 275 80 q 180 13 218 26 q 94 0 142 0 l 43 0 l 43 134 l 68 136 q 112 150 94 138 q 143 182 130 161 q 165 236 156 203 q 179 315 174 269 q 186 420 184 360 l 200 734 m 581 734 l 581 602 l 248 602 l 248 734 l 581 734 m 536 244 l 536 734 l 700 734 l 700 244 q 707 193 700 216 q 728 152 714 169 q 760 126 741 135 q 802 117 779 117 q 859 132 834 117 q 900 174 883 146 q 926 241 917 202 q 936 329 935 280 q 926 458 937 393 q 895 587 915 524 l 1054 588 q 1086 460 1072 525 q 1100 329 1101 395 q 1074 178 1099 243 q 1009 71 1050 113 q 915 7 968 28 q 802 -14 861 -14 q 694 0 743 -14 q 610 46 645 15 q 555 126 574 77 q 536 244 536 175 z "},"Ԋ":{"ha":1381,"x_min":100,"x_max":1299,"o":"m 229 555 l 743 555 l 743 420 l 229 420 l 229 555 m 100 987 l 271 987 l 271 0 l 100 0 l 100 987 m 701 987 l 871 987 l 871 246 q 883 181 871 210 q 915 137 894 153 q 966 121 936 121 q 1034 139 1004 122 q 1084 186 1063 155 q 1116 261 1105 217 q 1128 359 1127 304 q 1118 495 1130 427 q 1086 632 1107 564 l 1252 632 q 1285 497 1270 566 q 1298 359 1299 429 q 1270 194 1297 264 q 1196 78 1242 124 q 1091 9 1150 32 q 966 -14 1031 -14 q 829 11 886 -16 q 739 95 771 37 q 701 246 706 153 l 701 987 z "},"ԋ":{"ha":1149,"x_min":79,"x_max":1101,"o":"m 565 431 l 565 302 l 198 302 l 198 431 l 565 431 m 243 734 l 243 0 l 79 0 l 79 734 l 243 734 m 535 244 l 535 734 l 699 734 l 699 244 q 706 193 699 216 q 726 152 713 169 q 759 126 740 135 q 802 117 778 117 q 858 132 833 117 q 899 175 882 147 q 925 241 916 202 q 935 329 935 280 q 925 458 937 393 q 895 587 914 524 l 1053 588 q 1086 460 1071 525 q 1099 329 1101 395 q 1074 178 1098 243 q 1008 71 1050 113 q 914 7 967 28 q 802 -14 861 -14 q 694 -1 741 -15 q 612 45 646 14 q 558 125 578 76 q 535 244 539 175 z "},"Ԍ":{"ha":872,"x_min":62,"x_max":824,"o":"m 474 -14 q 307 17 382 -14 q 176 105 231 49 q 92 238 121 162 q 62 405 62 315 l 62 583 q 92 749 62 673 q 176 882 121 825 q 307 970 231 939 q 474 1002 382 1002 q 612 987 553 1002 q 716 942 671 972 l 675 819 q 582 853 631 842 q 474 865 533 865 q 373 843 418 865 q 297 783 328 821 q 249 693 265 744 q 233 584 233 642 l 233 405 q 249 295 233 347 q 297 204 265 243 q 373 143 328 165 q 474 121 418 121 q 570 143 531 122 q 630 203 610 164 q 652 294 651 241 q 644 414 654 353 q 618 533 634 475 l 784 533 q 811 415 798 475 q 823 294 824 355 q 772 121 821 190 q 645 19 724 53 q 474 -14 566 -14 z "},"ԍ":{"ha":726,"x_min":58,"x_max":680,"o":"m 409 117 q 472 130 450 117 q 505 163 495 142 q 515 214 515 184 q 512 289 515 250 q 503 364 509 328 l 661 364 q 674 290 669 328 q 680 214 680 252 q 643 86 678 137 q 546 11 607 35 q 409 -14 486 -14 q 259 15 325 -14 q 149 96 193 45 q 81 213 104 147 q 58 353 58 279 l 58 381 q 80 520 58 454 q 145 637 102 587 q 251 718 189 688 q 395 747 314 747 q 508 736 460 747 q 586 703 556 724 l 555 577 q 484 606 524 596 q 395 616 443 616 q 316 596 349 616 q 262 541 283 575 q 231 465 241 507 q 222 381 222 423 l 222 353 q 232 269 222 311 q 265 192 243 227 q 323 137 288 158 q 409 117 359 117 z "},"Ԏ":{"ha":982,"x_min":22,"x_max":927,"o":"m 804 987 l 804 851 l 22 851 l 22 987 l 804 987 m 329 246 l 329 987 l 498 987 l 498 246 q 505 196 498 218 q 524 156 511 173 q 553 131 536 140 q 593 121 571 121 q 662 139 632 122 q 712 186 691 155 q 743 261 732 217 q 755 359 754 304 q 745 495 757 427 q 714 632 734 564 l 880 632 q 912 497 898 566 q 925 359 927 429 q 897 194 924 264 q 824 78 870 124 q 719 9 778 32 q 593 -14 659 -14 q 456 11 513 -16 q 366 95 398 37 q 329 246 333 153 z "},"ԏ":{"ha":888,"x_min":46,"x_max":832,"o":"m 661 734 l 661 604 l 46 604 l 46 734 l 661 734 m 267 244 l 267 734 l 429 734 l 429 244 q 442 178 429 207 q 478 133 454 149 q 533 117 501 117 q 589 129 565 117 q 631 163 614 141 q 657 217 648 186 q 667 289 667 249 q 657 393 669 340 q 626 498 646 447 l 785 498 q 817 394 802 447 q 831 289 832 342 q 805 156 829 213 q 740 61 781 98 q 645 4 699 23 q 533 -14 592 -14 q 426 -1 473 -15 q 343 45 378 14 q 290 125 309 76 q 267 244 270 175 z "},"Ԑ":{"ha":921,"x_min":85,"x_max":865,"o":"m 456 532 l 605 532 l 605 437 l 475 437 q 380 428 421 437 q 311 399 339 418 q 269 349 283 380 q 255 276 255 318 q 270 215 255 243 q 315 165 286 186 q 387 132 345 144 q 485 121 430 121 q 595 141 547 121 q 669 197 642 162 q 695 274 695 232 l 865 274 q 832 143 865 198 q 744 54 799 89 q 622 2 690 19 q 485 -14 555 -14 q 325 5 397 -14 q 198 61 252 24 q 114 153 144 98 q 85 276 85 207 q 110 386 85 338 q 182 466 134 433 q 298 515 229 498 q 456 532 368 532 m 605 473 l 456 473 q 310 493 376 473 q 198 546 245 512 q 125 625 151 580 q 100 720 100 669 q 127 842 100 789 q 205 930 154 895 q 327 984 256 966 q 485 1002 397 1002 q 667 968 584 1002 q 801 872 751 935 q 851 724 851 810 l 681 724 q 655 799 681 767 q 584 848 629 831 q 485 866 540 866 q 363 846 411 866 q 293 793 316 826 q 271 720 271 760 q 282 659 271 686 q 318 611 294 631 q 382 581 343 591 q 475 570 420 570 l 605 570 l 605 473 z "},"Ԓ":{"ha":1089,"x_min":30,"x_max":1039,"o":"m 748 987 l 748 852 l 275 852 l 275 987 l 748 987 m 878 987 l 878 0 l 708 0 l 708 987 l 878 987 m 241 987 l 410 987 l 386 497 q 368 307 381 389 q 331 167 354 225 q 273 72 308 109 q 188 17 237 35 q 73 0 139 0 l 30 0 l 30 135 l 56 137 q 118 154 92 140 q 163 198 144 169 q 193 273 181 227 q 213 385 205 319 q 223 541 220 452 l 241 987 m 876 140 l 1040 140 l 1040 -42 q 1010 -181 1040 -124 q 928 -267 981 -238 q 800 -296 874 -296 q 755 -294 775 -296 q 711 -285 734 -292 l 721 -154 q 753 -160 734 -158 q 788 -162 773 -162 q 836 -149 816 -162 q 865 -108 855 -135 q 876 -42 876 -81 l 876 140 z "},"ԓ":{"ha":908,"x_min":22,"x_max":869,"o":"m 577 734 l 577 604 l 219 604 l 219 734 l 577 734 m 705 734 l 705 0 l 542 0 l 542 734 l 705 734 m 179 734 l 340 734 l 321 371 q 305 229 317 290 q 273 124 293 168 q 225 53 254 80 q 159 13 197 26 q 73 0 121 0 l 22 0 l 22 134 l 47 136 q 91 150 73 138 q 122 182 109 161 q 144 236 136 203 q 158 315 153 269 q 165 420 163 360 l 179 734 m 705 140 l 869 140 l 869 -42 q 840 -181 869 -124 q 758 -267 811 -238 q 629 -296 704 -296 q 585 -294 605 -296 q 541 -285 564 -292 l 551 -154 q 583 -160 564 -158 q 618 -162 603 -162 q 665 -149 646 -162 q 695 -108 685 -135 q 705 -42 705 -81 l 705 140 z "}," ":{"ha":708,"x_min":0,"x_max":0,"o":""}," ":{"ha":1417,"x_min":0,"x_max":0,"o":""}," ":{"ha":708,"x_min":0,"x_max":0,"o":""}," ":{"ha":1417,"x_min":0,"x_max":0,"o":""}," ":{"ha":473,"x_min":0,"x_max":0,"o":""}," ":{"ha":354,"x_min":0,"x_max":0,"o":""}," ":{"ha":236,"x_min":0,"x_max":0,"o":""}," ":{"ha":781,"x_min":0,"x_max":0,"o":""}," ":{"ha":380,"x_min":0,"x_max":0,"o":""}," ":{"ha":283,"x_min":0,"x_max":0,"o":""}," ":{"ha":142,"x_min":0,"x_max":0,"o":""},"​":{"ha":0,"x_min":0,"x_max":0,"o":""},"‐":{"ha":471,"x_min":54,"x_max":413,"o":"m 413 487 l 413 357 l 54 357 l 54 487 l 413 487 z "},"‑":{"ha":471,"x_min":54,"x_max":413,"o":"m 413 487 l 413 357 l 54 357 l 54 487 l 413 487 z "},"–":{"ha":892,"x_min":106,"x_max":799,"o":"m 799 554 l 799 423 l 106 423 l 106 554 l 799 554 z "},"—":{"ha":1070,"x_min":83,"x_max":1006,"o":"m 1006 554 l 1006 423 l 83 423 l 83 554 l 1006 554 z "},"‗":{"ha":625,"x_min":5,"x_max":623,"o":"m 623 -175 l 623 -278 l 5 -278 l 5 -175 l 623 -175 m 623 0 l 623 -103 l 5 -103 l 5 0 l 623 0 z "},"‘":{"ha":303,"x_min":68,"x_max":271,"o":"m 68 720 l 68 812 q 84 901 68 855 q 126 988 99 947 q 189 1060 154 1030 l 271 1009 q 226 919 243 966 q 209 813 209 872 l 209 720 l 68 720 z "},"’":{"ha":300,"x_min":37,"x_max":239,"o":"m 239 1042 l 239 946 q 224 858 239 903 q 182 770 209 812 q 119 698 155 728 l 37 749 q 82 839 65 791 q 100 945 100 886 l 100 1042 l 239 1042 z "},"‚":{"ha":313,"x_min":36,"x_max":239,"o":"m 239 140 l 239 50 q 223 -39 239 7 q 181 -126 208 -85 q 119 -199 154 -168 l 36 -148 q 80 -58 64 -105 q 96 48 96 -11 l 96 140 l 239 140 z "},"‛":{"ha":284,"x_min":51,"x_max":254,"o":"m 51 1042 l 191 1042 l 191 945 q 209 839 191 886 q 254 749 226 791 l 172 698 q 110 770 137 728 q 66 858 82 812 q 51 946 51 903 l 51 1042 z "},"“":{"ha":528,"x_min":74,"x_max":498,"o":"m 74 720 l 74 812 q 89 901 74 855 q 132 988 104 947 q 195 1060 159 1030 l 276 1009 q 232 919 249 966 q 214 813 214 872 l 214 720 l 74 720 m 296 720 l 296 812 q 312 901 296 855 q 354 988 327 947 q 417 1060 382 1030 l 498 1009 q 454 919 471 966 q 437 813 437 872 l 437 720 l 296 720 z "},"”":{"ha":534,"x_min":45,"x_max":470,"o":"m 248 1042 l 248 946 q 233 858 248 903 q 191 770 218 812 q 128 698 163 728 l 46 749 q 91 839 74 791 q 109 945 109 886 l 109 1042 l 248 1042 m 470 1042 l 470 946 q 455 858 470 903 q 412 770 439 812 q 350 698 385 728 l 268 749 q 313 839 296 791 q 330 945 330 886 l 330 1042 l 470 1042 z "},"„":{"ha":521,"x_min":36,"x_max":456,"o":"m 239 172 l 239 50 q 224 -44 239 5 q 183 -136 210 -92 q 121 -212 157 -180 l 36 -161 q 80 -64 64 -115 q 96 48 96 -14 l 96 172 l 239 172 m 456 172 l 456 50 q 440 -44 456 5 q 398 -136 425 -92 q 336 -212 371 -180 l 250 -161 q 296 -64 279 -115 q 313 48 313 -14 l 313 172 l 456 172 z "},"†":{"ha":756,"x_min":43,"x_max":714,"o":"m 458 987 l 458 0 l 295 0 l 295 987 l 458 987 m 714 734 l 714 601 l 43 601 l 43 734 l 714 734 z "},"‡":{"ha":799,"x_min":63,"x_max":734,"o":"m 478 987 l 478 -282 l 314 -282 l 314 987 l 478 987 m 734 734 l 734 604 l 63 604 l 63 734 l 734 734 m 734 130 l 734 0 l 63 0 l 63 130 l 734 130 z "},"•":{"ha":486,"x_min":94,"x_max":395,"o":"m 94 495 l 94 522 q 134 626 94 585 q 243 667 174 667 q 354 626 313 667 q 395 522 395 585 l 395 495 q 354 392 395 432 q 244 351 314 351 q 134 392 175 351 q 94 495 94 432 z "},"‥":{"ha":692,"x_min":96,"x_max":596,"o":"m 96 81 q 121 145 96 119 q 191 172 147 172 q 261 145 236 172 q 287 81 287 119 q 261 18 287 43 q 191 -8 236 -8 q 121 18 147 -8 q 96 81 96 43 m 405 81 q 431 145 405 119 q 500 172 456 172 q 571 145 545 172 q 596 81 596 119 q 571 18 596 43 q 500 -8 545 -8 q 431 18 456 -8 q 405 81 405 43 z "},"…":{"ha":983,"x_min":96,"x_max":896,"o":"m 96 81 q 121 145 96 119 q 191 172 147 172 q 261 145 236 172 q 287 81 287 119 q 261 18 287 43 q 191 -8 236 -8 q 121 18 147 -8 q 96 81 96 43 m 405 81 q 431 145 405 119 q 500 172 456 172 q 571 145 545 172 q 596 81 596 119 q 571 18 596 43 q 500 -8 545 -8 q 431 18 456 -8 q 405 81 405 43 m 704 81 q 730 145 704 119 q 800 172 755 172 q 870 145 844 172 q 895 81 895 119 q 870 18 895 43 q 800 -8 844 -8 q 730 18 755 -8 q 704 81 704 43 z "},"‧":{"ha":314,"x_min":64,"x_max":251,"o":"m 64 422 q 89 485 64 460 q 157 509 113 509 q 226 485 201 509 q 251 422 251 460 q 226 361 251 385 q 157 336 201 336 q 89 361 113 336 q 64 422 64 385 z "},"‰":{"ha":1333,"x_min":54,"x_max":1282,"o":"m 54 745 l 54 798 q 79 900 54 854 q 149 974 103 946 q 257 1002 195 1002 q 370 974 323 1002 q 442 900 417 946 q 467 798 467 854 l 467 745 q 442 644 467 690 q 371 570 417 598 q 258 543 324 543 q 150 570 195 543 q 79 644 104 598 q 54 745 54 690 m 162 798 l 162 745 q 173 694 162 718 q 204 654 183 669 q 258 640 226 640 q 312 654 291 640 q 343 694 333 669 q 353 745 353 718 l 353 798 q 343 850 353 825 q 311 889 332 874 q 257 905 290 905 q 204 889 225 905 q 173 850 183 874 q 162 798 162 825 m 555 189 l 555 242 q 580 344 555 298 q 652 418 605 390 q 764 446 699 446 q 868 418 825 446 q 934 344 911 390 q 957 242 957 298 l 957 189 q 934 87 957 134 q 868 14 911 41 q 765 -14 825 -14 q 653 14 700 -14 q 580 87 606 41 q 555 189 555 134 m 669 242 l 669 189 q 680 138 669 162 q 713 98 691 113 q 765 83 734 83 q 820 98 800 83 q 850 137 841 113 q 859 189 859 161 l 859 242 q 849 294 859 270 q 817 334 838 319 q 764 349 796 349 q 710 334 732 349 q 679 294 689 319 q 669 242 669 270 m 881 189 l 881 242 q 904 344 881 298 q 970 418 927 390 q 1074 446 1013 446 q 1186 418 1139 446 q 1258 344 1233 390 q 1282 242 1282 298 l 1282 189 q 1258 87 1282 134 q 1186 14 1233 41 q 1075 -14 1140 -14 q 970 14 1014 -14 q 904 87 927 41 q 881 189 881 134 m 979 242 l 979 189 q 990 138 979 162 q 1022 98 1001 113 q 1075 83 1044 83 q 1130 98 1109 83 q 1160 137 1151 113 q 1169 189 1169 161 l 1169 242 q 1159 294 1169 270 q 1127 334 1148 319 q 1074 349 1106 349 q 1020 334 1042 349 q 989 294 999 319 q 979 242 979 270 m 789 846 l 307 75 l 223 123 l 705 895 l 789 846 z "},"‹":{"ha":426,"x_min":73,"x_max":380,"o":"m 380 635 l 210 362 l 73 363 l 73 372 l 268 635 l 380 635 m 210 368 l 380 94 l 268 94 l 73 359 l 73 368 l 210 368 z "},"›":{"ha":418,"x_min":58,"x_max":365,"o":"m 58 94 l 228 368 l 365 367 l 365 358 l 170 94 l 58 94 m 58 635 l 170 635 l 365 371 l 365 362 l 228 361 l 58 635 z "},"⁄":{"ha":625,"x_min":29,"x_max":595,"o":"m 595 846 l 113 75 l 29 123 l 511 895 l 595 846 z "},"⁰":{"ha":513,"x_min":52,"x_max":462,"o":"m 462 771 l 462 668 q 436 543 462 592 q 364 469 410 493 q 258 445 318 445 q 150 469 196 445 q 78 543 104 493 q 52 668 52 592 l 52 771 q 77 897 52 847 q 149 970 103 946 q 256 995 195 995 q 363 970 317 995 q 436 897 410 946 q 462 771 462 847 m 338 661 l 338 779 q 329 846 338 820 q 300 884 319 871 q 256 896 282 896 q 213 884 231 896 q 185 846 195 871 q 175 779 175 820 l 175 661 q 185 593 175 619 q 213 556 195 568 q 258 544 232 544 q 301 556 283 544 q 329 593 319 568 q 338 661 338 619 z "},"⁴":{"ha":513,"x_min":37,"x_max":477,"o":"m 477 665 l 477 564 l 43 564 l 37 644 l 286 987 l 382 987 l 276 818 l 157 665 l 477 665 m 410 987 l 410 452 l 287 452 l 287 987 l 410 987 z "},"⁵":{"ha":513,"x_min":54,"x_max":465,"o":"m 165 689 l 67 713 l 102 987 l 436 987 l 436 889 l 203 889 l 189 785 q 225 796 200 789 q 281 804 251 804 q 380 783 340 804 q 443 724 421 762 q 465 630 465 685 q 442 540 465 582 q 375 471 420 498 q 260 445 330 445 q 162 464 208 445 q 86 517 115 482 q 54 602 56 553 l 178 602 q 202 557 179 571 q 260 544 224 544 q 323 569 306 544 q 341 631 341 595 q 318 693 341 669 q 250 717 294 717 q 195 707 214 717 q 165 689 177 698 z "},"⁶":{"ha":513,"x_min":53,"x_max":472,"o":"m 362 996 l 382 996 l 382 896 l 374 896 q 270 880 315 896 q 201 826 225 864 q 176 723 176 789 l 176 643 q 187 587 176 610 q 218 554 198 565 q 265 543 238 543 q 309 555 290 543 q 338 586 328 567 q 349 630 349 606 q 327 690 349 669 q 264 711 304 711 q 215 701 236 711 q 181 675 193 690 q 168 646 169 661 l 136 669 q 156 732 136 700 q 212 786 175 764 q 301 808 250 808 q 395 785 357 808 q 453 722 433 762 q 472 629 472 682 q 447 535 472 577 q 375 469 421 493 q 268 445 330 445 q 156 470 205 445 q 80 542 108 494 q 53 661 53 590 l 53 696 q 76 829 53 772 q 140 922 98 885 q 238 978 182 960 q 362 996 294 996 z "},"⁷":{"ha":513,"x_min":37,"x_max":465,"o":"m 465 987 l 465 918 l 233 452 l 103 452 l 334 888 l 37 888 l 37 987 l 465 987 z "},"⁸":{"ha":513,"x_min":51,"x_max":463,"o":"m 463 600 q 436 514 463 548 q 362 462 409 479 q 257 445 316 445 q 152 462 199 445 q 78 514 105 479 q 51 600 51 548 q 78 680 51 647 q 152 732 105 713 q 256 750 198 750 q 362 732 315 750 q 435 680 408 713 q 463 600 463 647 m 340 610 q 329 646 340 631 q 299 668 318 661 q 256 676 281 676 q 214 668 232 676 q 185 646 195 661 q 175 610 175 631 q 185 575 175 590 q 214 552 195 559 q 257 544 233 544 q 300 552 281 544 q 329 575 319 559 q 340 610 340 590 m 450 844 q 425 770 450 802 q 357 721 400 739 q 257 704 314 704 q 157 721 201 704 q 89 770 113 739 q 64 844 64 802 q 89 927 64 894 q 157 978 113 960 q 256 995 201 995 q 356 978 313 995 q 425 927 400 960 q 450 844 450 894 m 326 836 q 318 868 326 855 q 294 889 310 882 q 256 897 279 897 q 205 881 224 897 q 187 836 187 865 q 195 805 187 819 q 219 783 203 791 q 257 775 235 775 q 308 792 290 775 q 326 836 326 809 z "},"⁹":{"ha":513,"x_min":48,"x_max":458,"o":"m 144 544 l 153 544 q 254 558 214 544 q 314 605 294 572 q 334 697 334 639 l 334 800 q 324 854 334 833 q 295 886 313 876 q 252 896 277 896 q 209 883 227 896 q 181 849 191 870 q 171 802 171 827 q 180 757 171 777 q 209 727 190 738 q 256 716 229 716 q 303 726 284 716 q 333 751 323 736 q 343 779 343 766 l 380 758 q 359 693 380 724 q 303 643 338 663 q 225 624 268 624 q 130 645 170 624 q 69 707 90 667 q 48 802 48 747 q 74 899 48 855 q 145 969 99 943 q 252 995 191 995 q 359 971 313 995 q 431 898 405 947 q 458 776 458 849 l 458 740 q 437 606 458 662 q 376 515 416 551 q 281 463 337 479 q 155 446 225 446 l 144 446 l 144 544 z "},"⁺":{"ha":559,"x_min":54,"x_max":505,"o":"m 505 734 l 505 632 l 54 632 l 54 734 l 505 734 m 334 923 l 334 444 l 226 444 l 226 923 l 334 923 z "},"⁻":{"ha":512,"x_min":54,"x_max":458,"o":"m 458 736 l 458 633 l 54 633 l 54 736 l 458 736 z "},"⁼":{"ha":512,"x_min":54,"x_max":458,"o":"m 458 644 l 458 541 l 54 541 l 54 644 l 458 644 m 458 825 l 458 722 l 54 722 l 54 825 l 458 825 z "},"⁽":{"ha":349,"x_min":56,"x_max":295,"o":"m 56 664 l 56 675 q 87 868 56 786 q 162 1003 117 951 q 248 1076 207 1056 l 295 993 q 243 926 269 966 q 202 825 218 886 q 186 676 186 764 l 186 663 q 196 543 186 594 q 221 454 205 492 q 256 390 237 417 q 295 345 275 363 l 248 263 q 183 312 217 279 q 121 396 150 345 q 74 514 92 446 q 56 664 56 581 z "},"⁾":{"ha":349,"x_min":54,"x_max":293,"o":"m 293 675 l 293 664 q 262 471 293 553 q 187 336 231 388 q 101 263 142 284 l 54 345 q 105 410 81 370 q 146 510 130 449 q 163 663 163 572 l 163 676 q 154 792 163 742 q 129 881 144 843 q 94 946 113 918 q 54 993 74 973 l 101 1076 q 165 1027 132 1061 q 228 943 199 994 q 275 825 257 892 q 293 675 293 758 z "},"ⁿ":{"ha":583,"x_min":70,"x_max":521,"o":"m 199 869 l 199 442 l 70 442 l 70 985 l 171 985 l 199 869 m 184 731 l 152 730 q 165 836 152 787 q 202 919 178 884 q 262 975 227 955 q 342 994 298 994 q 437 973 397 994 q 499 905 477 951 q 521 786 521 859 l 521 442 l 391 442 l 391 753 q 379 831 391 802 q 348 872 368 859 q 298 884 327 884 q 232 864 257 884 q 195 809 207 843 q 184 731 184 774 z "},"₀":{"ha":513,"x_min":52,"x_max":462,"o":"m 462 71 l 462 -32 q 436 -157 462 -108 q 364 -231 410 -207 q 258 -255 318 -255 q 150 -231 196 -255 q 78 -157 104 -207 q 52 -32 52 -108 l 52 71 q 77 197 52 147 q 149 271 103 246 q 256 295 195 295 q 363 271 317 295 q 436 197 410 246 q 462 71 462 147 m 338 -39 l 338 79 q 329 146 338 120 q 300 184 319 172 q 256 196 282 196 q 213 184 231 196 q 185 146 195 172 q 175 79 175 120 l 175 -39 q 185 -106 175 -81 q 213 -144 195 -132 q 258 -156 232 -156 q 301 -144 283 -156 q 329 -106 319 -132 q 338 -39 338 -81 z "},"₁":{"ha":513,"x_min":88,"x_max":348,"o":"m 348 288 l 348 -247 l 225 -247 l 225 144 l 88 111 l 88 208 l 335 288 l 348 288 z "},"₂":{"ha":513,"x_min":41,"x_max":467,"o":"m 467 -149 l 467 -247 l 54 -247 l 54 -164 l 248 16 q 293 62 276 41 q 317 101 309 83 q 325 131 325 119 q 306 179 325 160 q 251 197 287 197 q 186 173 208 197 q 165 115 165 149 l 41 115 q 66 205 41 164 q 137 271 91 247 q 246 296 182 296 q 356 276 311 296 q 425 220 401 256 q 449 132 449 183 q 433 63 449 94 q 386 0 416 31 q 309 -68 355 -31 l 214 -149 l 467 -149 z "},"₃":{"ha":513,"x_min":37,"x_max":462,"o":"m 183 68 l 242 68 q 290 77 271 68 q 319 100 309 85 q 329 136 329 115 q 310 179 329 160 q 248 197 292 197 q 192 183 215 197 q 170 144 170 170 l 46 144 q 73 227 46 193 q 146 278 100 260 q 245 296 191 296 q 353 278 307 296 q 426 227 400 261 q 452 143 452 193 q 428 75 452 104 q 362 28 404 45 q 262 12 319 12 l 183 12 l 183 68 m 183 -16 l 183 39 l 262 39 q 370 25 326 39 q 438 -20 415 10 q 462 -97 462 -50 q 433 -182 462 -147 q 356 -236 405 -218 q 245 -254 307 -254 q 147 -238 195 -254 q 68 -185 99 -221 q 37 -91 37 -149 l 161 -91 q 186 -136 161 -117 q 252 -155 210 -155 q 317 -136 296 -155 q 338 -87 338 -117 q 327 -46 338 -62 q 293 -23 315 -31 q 242 -16 271 -16 l 183 -16 z "},"₄":{"ha":513,"x_min":37,"x_max":477,"o":"m 477 -35 l 477 -135 l 43 -135 l 37 -55 l 286 288 l 382 288 l 276 119 l 157 -35 l 477 -35 m 410 288 l 410 -247 l 287 -247 l 287 288 l 410 288 z "},"₅":{"ha":513,"x_min":54,"x_max":465,"o":"m 165 -10 l 67 14 l 102 288 l 436 288 l 436 190 l 203 190 l 189 85 q 225 97 200 90 q 281 104 251 104 q 380 84 340 104 q 443 24 421 63 q 465 -69 465 -14 q 442 -159 465 -117 q 375 -228 420 -201 q 260 -254 330 -254 q 162 -236 208 -254 q 86 -182 115 -217 q 54 -98 56 -146 l 178 -98 q 202 -142 179 -128 q 260 -155 224 -155 q 323 -130 306 -155 q 341 -68 341 -104 q 318 -6 341 -30 q 250 18 294 18 q 195 8 214 18 q 165 -10 177 -1 z "},"₆":{"ha":513,"x_min":53,"x_max":472,"o":"m 362 297 l 382 297 l 382 197 l 374 197 q 270 181 315 197 q 201 127 225 165 q 176 24 176 90 l 176 -56 q 187 -112 176 -90 q 218 -145 198 -134 q 265 -156 238 -156 q 309 -144 290 -156 q 338 -113 328 -132 q 349 -69 349 -94 q 327 -9 349 -31 q 264 12 304 12 q 215 1 236 12 q 181 -24 193 -9 q 168 -54 169 -39 l 136 -30 q 156 33 136 1 q 212 87 175 65 q 301 109 250 109 q 395 86 357 109 q 453 23 433 63 q 472 -70 472 -18 q 447 -164 472 -122 q 375 -230 421 -206 q 268 -254 330 -254 q 156 -230 205 -254 q 80 -157 108 -205 q 53 -39 53 -109 l 53 -3 q 76 130 53 73 q 140 223 98 186 q 238 279 182 260 q 362 297 294 297 z "},"₇":{"ha":513,"x_min":37,"x_max":465,"o":"m 465 288 l 465 219 l 233 -247 l 103 -247 l 334 189 l 37 189 l 37 288 l 465 288 z "},"₈":{"ha":513,"x_min":51,"x_max":463,"o":"m 463 -100 q 436 -185 463 -151 q 362 -237 409 -220 q 257 -254 316 -254 q 152 -237 199 -254 q 78 -185 105 -220 q 51 -100 51 -151 q 78 -19 51 -52 q 152 33 105 14 q 256 51 198 51 q 362 33 315 51 q 435 -19 408 14 q 463 -100 463 -52 m 340 -89 q 329 -53 340 -68 q 299 -31 318 -39 q 256 -23 281 -23 q 214 -31 232 -23 q 185 -53 195 -39 q 175 -89 175 -68 q 185 -124 175 -109 q 214 -148 195 -140 q 257 -155 233 -155 q 300 -148 281 -155 q 329 -124 319 -140 q 340 -89 340 -109 m 450 145 q 425 71 450 102 q 357 22 400 39 q 257 5 314 5 q 157 22 201 5 q 89 71 113 39 q 64 145 64 102 q 89 228 64 195 q 157 278 113 261 q 256 296 201 296 q 356 278 313 296 q 425 228 400 261 q 450 145 450 195 m 326 137 q 318 169 326 156 q 294 190 310 182 q 256 197 279 197 q 205 181 224 197 q 187 137 187 165 q 195 105 187 119 q 219 84 203 92 q 257 76 235 76 q 308 93 290 76 q 326 137 326 110 z "},"₉":{"ha":513,"x_min":48,"x_max":458,"o":"m 144 -155 l 153 -155 q 254 -141 214 -155 q 314 -94 294 -127 q 334 -2 334 -60 l 334 101 q 324 155 334 134 q 295 186 313 176 q 252 197 277 197 q 209 184 227 197 q 181 150 191 171 q 171 102 171 128 q 180 58 171 77 q 209 28 190 39 q 256 17 229 17 q 303 27 284 17 q 333 52 323 37 q 343 79 343 66 l 380 58 q 359 -6 380 24 q 303 -56 338 -37 q 225 -75 268 -75 q 130 -54 170 -75 q 69 7 90 -33 q 48 103 48 47 q 74 200 48 156 q 145 270 99 243 q 252 296 191 296 q 359 272 313 296 q 431 199 405 248 q 458 77 458 150 l 458 41 q 437 -93 458 -37 q 376 -184 416 -149 q 281 -237 337 -220 q 155 -254 225 -254 l 144 -254 l 144 -155 z "},"₊":{"ha":559,"x_min":54,"x_max":505,"o":"m 505 57 l 505 -45 l 54 -45 l 54 57 l 505 57 m 334 245 l 334 -233 l 226 -233 l 226 245 l 334 245 z "},"₋":{"ha":512,"x_min":54,"x_max":458,"o":"m 458 59 l 458 -44 l 54 -44 l 54 59 l 458 59 z "},"₌":{"ha":512,"x_min":54,"x_max":458,"o":"m 458 -34 l 458 -137 l 54 -137 l 54 -34 l 458 -34 m 458 147 l 458 45 l 54 45 l 54 147 l 458 147 z "},"₍":{"ha":349,"x_min":56,"x_max":295,"o":"m 56 15 l 56 26 q 87 210 56 132 q 162 337 117 288 q 248 406 207 387 l 295 323 q 243 261 269 298 q 202 166 218 223 q 186 27 186 109 l 186 14 q 203 -127 186 -71 q 244 -220 219 -184 q 295 -281 269 -256 l 248 -362 q 183 -317 217 -348 q 121 -238 150 -286 q 74 -127 92 -190 q 56 15 56 -64 z "},"₎":{"ha":349,"x_min":54,"x_max":293,"o":"m 293 33 l 293 22 q 262 -163 293 -84 q 187 -292 231 -242 q 101 -361 142 -342 l 54 -280 q 105 -219 81 -256 q 146 -124 130 -182 q 163 22 163 -66 l 163 34 q 147 170 163 115 q 106 262 131 226 q 54 323 81 299 l 101 406 q 166 361 132 392 q 228 283 199 330 q 275 173 257 236 q 293 33 293 111 z "},"₤":{"ha":817,"x_min":66,"x_max":777,"o":"m 777 0 l 67 0 l 67 135 l 777 135 l 777 0 m 336 705 l 352 284 q 329 168 353 219 q 250 87 304 117 l 126 135 q 160 164 149 140 q 177 219 172 187 q 181 278 181 250 l 167 705 q 206 864 167 798 q 313 966 245 930 q 471 1001 382 1001 q 631 966 565 1001 q 731 870 696 932 q 766 728 766 809 l 602 728 q 583 809 602 779 q 533 852 564 839 q 466 866 502 866 q 400 848 429 866 q 353 793 370 829 q 336 705 336 758 m 555 594 l 555 498 l 66 498 l 66 594 l 555 594 m 555 414 l 555 318 l 66 318 l 66 414 l 555 414 z "},"₦":{"ha":1116,"x_min":24,"x_max":1093,"o":"m 1093 654 l 1093 549 l 24 549 l 24 654 l 1093 654 m 1093 443 l 1093 338 l 24 338 l 24 443 l 1093 443 m 947 987 l 947 0 l 778 0 l 335 707 l 335 0 l 165 0 l 165 987 l 335 987 l 779 279 l 779 987 l 947 987 z "},"₧":{"ha":1171,"x_min":104,"x_max":1086,"o":"m 371 367 l 222 367 l 222 503 l 371 503 q 475 528 438 503 q 526 594 512 553 q 541 679 541 634 q 526 762 541 723 q 475 826 512 802 q 371 851 438 851 l 273 851 l 273 0 l 104 0 l 104 987 l 371 987 q 562 947 487 987 q 673 838 637 907 q 710 680 710 768 q 673 519 710 590 q 562 408 637 448 q 371 367 487 367 m 1080 734 l 1080 614 l 667 614 l 667 734 l 1080 734 m 785 913 l 949 913 l 949 203 q 959 151 949 169 q 986 127 968 133 q 1027 121 1004 121 q 1060 123 1044 121 q 1085 127 1076 125 l 1086 2 q 1039 -9 1065 -4 q 977 -14 1012 -14 q 878 6 921 -14 q 810 72 834 26 q 785 193 785 117 l 785 913 z "},"₨":{"ha":1490,"x_min":100,"x_max":1431,"o":"m 100 987 l 450 987 q 642 954 562 987 q 763 853 721 920 q 806 690 806 787 q 779 560 806 616 q 702 466 751 504 q 584 406 652 427 l 532 381 l 218 381 l 217 516 l 452 516 q 554 538 513 516 q 615 597 595 559 q 636 682 636 635 q 616 772 636 734 q 555 831 596 810 q 450 852 513 852 l 271 852 l 271 0 l 100 0 l 100 987 m 664 0 l 432 444 l 610 444 l 846 9 l 846 0 l 664 0 m 1270 199 q 1258 243 1270 223 q 1212 279 1246 263 q 1111 309 1177 296 q 1004 340 1053 322 q 921 384 956 358 q 867 445 886 410 q 848 526 848 480 q 868 611 848 571 q 924 682 888 651 q 1014 730 961 712 q 1131 747 1066 747 q 1290 716 1223 747 q 1391 633 1356 686 q 1426 515 1426 581 l 1263 515 q 1248 569 1263 544 q 1204 611 1234 595 q 1131 627 1175 627 q 1062 613 1089 627 q 1021 579 1034 600 q 1008 533 1008 558 q 1015 500 1008 515 q 1039 474 1022 486 q 1085 452 1056 462 q 1160 432 1115 441 q 1304 387 1244 414 q 1398 316 1365 359 q 1430 208 1430 273 q 1410 118 1430 159 q 1350 48 1389 78 q 1256 3 1310 19 q 1133 -14 1201 -14 q 964 22 1034 -14 q 860 114 895 58 q 824 230 824 170 l 982 230 q 1007 158 985 184 q 1064 119 1030 131 q 1135 107 1099 107 q 1209 119 1179 107 q 1255 152 1239 131 q 1270 199 1270 172 z "},"₩":{"ha":1082,"x_min":24,"x_max":1058,"o":"m 1058 725 l 1058 621 l 24 621 l 24 725 l 1058 725 m 1058 509 l 1058 405 l 24 405 l 24 509 l 1058 509 m 328 0 l 345 235 l 465 987 l 565 987 l 559 756 l 431 0 l 328 0 m 232 987 l 355 235 l 370 0 l 262 0 l 62 987 l 232 987 m 710 0 l 726 237 l 846 987 l 1016 987 l 816 0 l 710 0 m 616 987 l 738 235 l 752 0 l 647 0 l 520 759 l 517 987 l 616 987 z "},"₪":{"ha":1147,"x_min":85,"x_max":1063,"o":"m 85 734 l 534 734 q 644 718 597 734 q 722 669 691 703 q 767 584 752 636 q 782 458 782 532 l 782 242 l 618 242 l 618 458 q 609 530 618 501 q 582 574 600 558 q 539 597 564 591 q 482 604 514 604 l 248 604 l 248 0 l 85 0 l 85 734 m 743 0 l 366 0 l 366 493 l 529 493 l 529 130 l 764 130 q 836 142 806 130 q 883 186 866 155 q 899 275 899 218 l 899 734 l 1063 734 l 1063 276 q 1037 150 1063 203 q 966 64 1011 98 q 864 16 922 31 q 743 0 806 0 z "},"€":{"ha":789,"x_min":62,"x_max":729,"o":"m 572 121 q 644 126 609 121 q 709 142 678 132 l 729 7 q 647 -8 690 -3 q 560 -14 604 -14 q 407 11 477 -14 q 287 84 338 35 q 208 204 236 132 q 180 373 180 277 l 180 603 q 208 776 180 702 q 288 901 236 850 q 411 976 340 951 q 568 1001 481 1001 q 649 995 610 1001 q 729 980 689 989 l 709 844 q 645 860 680 854 q 574 866 610 866 q 480 850 522 866 q 410 803 439 835 q 365 722 380 772 q 350 604 350 673 l 350 373 q 366 257 350 305 q 411 179 382 210 q 481 135 440 149 q 572 121 522 121 m 593 634 l 593 541 l 62 541 l 62 634 l 593 634 m 593 452 l 593 359 l 62 359 l 62 452 l 593 452 z "},"₱":{"ha":1027,"x_min":24,"x_max":1004,"o":"m 1004 807 l 1004 702 l 24 702 l 24 807 l 1004 807 m 1004 648 l 1004 543 l 24 543 l 24 648 l 1004 648 m 522 368 l 265 368 l 265 503 l 522 503 q 630 525 589 503 q 691 585 672 547 q 711 673 711 623 q 691 761 711 720 q 630 827 672 802 q 522 852 589 852 l 317 852 l 317 0 l 147 0 l 147 987 l 522 987 q 717 947 636 987 q 840 836 798 907 q 882 674 882 765 q 840 510 882 578 q 717 405 798 441 q 522 368 636 368 z "},"₹":{"ha":725,"x_min":28,"x_max":697,"o":"m 696 743 l 663 623 l 28 623 l 62 743 l 696 743 m 389 0 l 48 402 l 47 503 l 210 503 q 314 526 273 503 q 375 588 355 549 q 395 675 395 627 q 376 767 395 727 q 316 829 357 807 q 207 852 275 852 l 29 852 l 66 987 l 207 987 q 406 951 327 987 q 525 847 486 916 q 565 682 565 779 q 536 532 565 597 q 441 428 507 467 q 269 378 376 388 l 581 9 l 581 0 l 389 0 m 697 987 l 663 867 l 144 867 l 178 987 l 697 987 z "},"₺":{"ha":800,"x_min":24,"x_max":744,"o":"m 336 987 l 336 0 l 167 0 l 167 987 l 336 987 m 574 520 l 744 520 l 744 467 q 714 267 744 355 q 630 115 685 178 q 500 20 576 53 q 333 -13 425 -13 q 245 -9 286 -13 q 167 0 203 -5 l 333 125 q 437 148 392 125 q 512 212 481 170 q 558 319 543 255 q 574 467 574 383 l 574 520 m 485 897 l 485 766 l 24 585 l 24 716 l 485 897 m 485 673 l 485 541 l 24 360 l 24 491 l 485 673 z "},"₼":{"ha":935,"x_min":54,"x_max":880,"o":"m 880 0 l 717 0 l 717 121 q 706 243 717 189 q 673 339 695 298 q 621 409 652 380 q 552 451 591 437 q 467 465 513 465 q 365 443 410 465 q 286 377 319 420 q 235 270 253 334 q 218 121 218 205 l 218 0 l 54 0 l 54 120 q 84 321 54 232 q 171 472 115 410 q 301 567 226 534 q 467 600 376 600 q 603 579 540 600 q 718 517 667 557 q 805 418 768 476 q 861 284 842 359 q 880 120 880 210 l 880 0 m 549 734 l 549 0 l 385 0 l 385 734 l 549 734 z "},"₽":{"ha":954,"x_min":29,"x_max":902,"o":"m 543 368 l 29 368 l 29 503 l 539 503 q 650 525 608 503 q 711 585 692 546 q 731 675 731 623 q 711 761 731 721 q 650 826 692 801 q 543 852 609 852 l 338 852 l 338 0 l 168 0 l 168 987 l 543 987 q 736 947 656 987 q 859 837 817 907 q 902 676 902 767 q 859 510 902 579 q 735 405 816 441 q 543 368 655 368 m 559 296 l 559 161 l 29 161 l 29 296 l 559 296 z "},"℅":{"ha":1023,"x_min":75,"x_max":962,"o":"m 352 718 l 466 718 q 444 631 466 671 q 378 567 421 591 q 272 543 334 543 q 165 570 210 543 q 98 644 121 598 q 75 745 75 690 l 75 798 q 98 900 75 854 q 165 974 121 946 q 271 1002 209 1002 q 377 977 334 1002 q 443 912 420 953 q 466 825 466 872 l 352 825 q 332 880 352 855 q 271 905 312 905 q 224 890 243 905 q 197 850 206 875 q 189 798 189 825 l 189 745 q 198 694 189 718 q 225 654 207 669 q 272 640 244 640 q 333 665 313 640 q 352 718 352 691 m 544 189 l 544 242 q 569 344 544 298 q 640 418 593 390 q 753 446 687 446 q 867 418 821 446 q 938 344 913 390 q 962 242 962 298 l 962 189 q 938 87 962 134 q 867 14 913 41 q 754 -14 821 -14 q 641 14 688 -14 q 569 87 593 41 q 544 189 544 134 m 658 242 l 658 189 q 669 138 658 162 q 702 98 680 113 q 754 83 724 83 q 810 98 789 83 q 840 137 831 113 q 849 189 849 161 l 849 242 q 839 294 849 270 q 807 334 828 319 q 753 349 785 349 q 700 334 721 349 q 668 294 679 319 q 658 242 658 270 m 788 846 l 306 75 l 222 123 l 704 895 l 788 846 z "},"ℓ":{"ha":675,"x_min":47,"x_max":618,"o":"m 496 132 l 496 -14 q 356 7 416 -14 q 258 70 297 29 q 200 166 219 110 q 180 292 180 223 l 180 752 q 196 871 180 819 q 241 960 212 924 q 314 1016 271 997 q 409 1035 356 1035 q 492 1020 454 1035 q 558 975 530 1004 q 602 904 587 945 q 618 810 618 863 l 618 783 q 593 650 618 719 q 522 518 569 582 q 405 402 474 454 q 246 320 336 350 q 47 290 156 290 l 47 412 q 236 447 157 412 q 366 538 315 481 q 440 659 416 594 q 465 781 465 723 l 465 810 q 461 849 465 832 q 450 877 457 866 q 433 894 442 888 q 412 900 423 900 q 385 892 397 900 q 366 867 374 884 q 354 826 358 850 q 350 768 350 802 l 350 313 q 357 237 350 270 q 381 180 364 203 q 426 144 398 156 q 496 132 454 132 z "},"№":{"ha":1417,"x_min":98,"x_max":1343,"o":"m 1314 379 l 1314 282 l 904 282 l 904 379 l 1314 379 m 876 703 l 876 760 q 905 883 876 829 q 986 968 934 937 q 1109 998 1038 998 q 1234 968 1182 998 q 1314 883 1286 937 q 1343 760 1343 829 l 1343 703 q 1315 580 1343 633 q 1235 496 1286 526 q 1111 465 1183 465 q 986 496 1039 465 q 905 580 934 526 q 876 703 876 633 m 990 760 l 990 703 q 1003 630 990 662 q 1043 580 1016 598 q 1111 562 1070 562 q 1177 580 1151 562 q 1217 630 1204 598 q 1230 703 1230 662 l 1230 760 q 1216 832 1230 800 q 1177 883 1203 864 q 1109 901 1150 901 q 1043 883 1069 901 q 1003 832 1016 864 q 990 760 990 800 m 781 987 l 781 0 l 602 0 l 262 707 l 262 0 l 98 0 l 98 987 l 277 987 l 618 279 l 618 987 l 781 987 z "}}}
